<svg version="1.1" viewBox="0.0 0.0 874.5249343832021 187.0997375328084" fill="none" stroke="none" stroke-linecap="square" stroke-miterlimit="10" xmlns:xlink="http://www.w3.org/1999/xlink" xmlns="http://www.w3.org/2000/svg"><clipPath id="p.0"><path d="m0 0l874.52496 0l0 187.09973l-874.52496 0l0 -187.09973z" clip-rule="nonzero"/></clipPath><g clip-path="url(#p.0)"><path fill="#000000" fill-opacity="0.0" d="m0 0l874.52496 0l0 187.09973l-874.52496 0z" fill-rule="evenodd"/><path fill="#d9ead3" d="m380.3071 10.259751l152.6614 0l0 42.614174l-152.6614 0z" fill-rule="evenodd"/><path stroke="#38761d" stroke-width="1.0" stroke-linejoin="round" stroke-linecap="butt" d="m380.3071 10.259751l152.6614 0l0 42.614174l-152.6614 0z" fill-rule="evenodd"/><path fill="#000000" d="m417.8178 33.65871q0.125 0.21875 0.21875 0.46875q0.109375 0.25 0.203125 0.5q0.09375 -0.265625 0.1875 -0.5q0.109375 -0.234375 0.234375 -0.484375l4.53125 -8.21875q0.109375 -0.21875 0.234375 -0.265625q0.140625 -0.046875 0.390625 -0.046875l1.328125 0l0 13.375l-1.578125 0l0 -9.828125q0 -0.1875 0 -0.40625q0.015625 -0.234375 0.03125 -0.46875l-4.578125 8.359375q-0.234375 0.421875 -0.65625 0.421875l-0.265625 0q-0.421875 0 -0.65625 -0.421875l-4.671875 -8.390625q0.03125 0.25 0.03125 0.484375q0.015625 0.234375 0.015625 0.421875l0 9.828125l-1.578125 0l0 -13.375l1.328125 0q0.25 0 0.375 0.046875q0.125 0.046875 0.25 0.265625l4.625 8.234375l0 0zm14.148132 -4.765625q1.03125 0 1.859375 0.34375q0.84375 0.34375 1.421875 0.984375q0.59375 0.625 0.90625 1.53125q0.3125 0.890625 0.3125 2.0q0 1.125 -0.3125 2.03125q-0.3125 0.890625 -0.90625 1.53125q-0.578125 0.625 -1.421875 0.96875q-0.828125 0.328125 -1.859375 0.328125q-1.03125 0 -1.875 -0.328125q-0.828125 -0.34375 -1.421875 -0.96875q-0.578125 -0.640625 -0.90625 -1.53125q-0.3125 -0.90625 -0.3125 -2.03125q0 -1.109375 0.3125 -2.0q0.328125 -0.90625 0.90625 -1.53125q0.59375 -0.640625 1.421875 -0.984375q0.84375 -0.34375 1.875 -0.34375zm0 8.421875q1.390625 0 2.078125 -0.9375q0.703125 -0.9375 0.703125 -2.609375q0 -1.6875 -0.703125 -2.625q-0.6875 -0.953125 -2.078125 -0.953125q-0.703125 0 -1.234375 0.25q-0.515625 0.234375 -0.875 0.703125q-0.34375 0.453125 -0.515625 1.125q-0.171875 0.65625 -0.171875 1.5q0 0.84375 0.171875 1.5q0.171875 0.65625 0.515625 1.109375q0.359375 0.453125 0.875 0.703125q0.53125 0.234375 1.234375 0.234375zm13.201019 1.171875q-0.359375 0 -0.453125 -0.34375l-0.140625 -1.15625q-0.609375 0.75 -1.390625 1.1875q-0.78125 0.4375 -1.78125 0.4375q-0.8125 0 -1.484375 -0.3125q-0.65625 -0.3125 -1.125 -0.90625q-0.46875 -0.609375 -0.71875 -1.515625q-0.25 -0.90625 -0.25 -2.078125q0 -1.046875 0.28125 -1.9375q0.28125 -0.90625 0.796875 -1.5625q0.53125 -0.671875 1.28125 -1.046875q0.765625 -0.390625 1.71875 -0.390625q0.875 0 1.484375 0.296875q0.625 0.296875 1.109375 0.828125l0 -5.234375l1.65625 0l0 13.734375l-0.984375 0zm-3.21875 -1.21875q0.8125 0 1.421875 -0.359375q0.609375 -0.375 1.125 -1.0625l0 -4.5625q-0.453125 -0.625 -1.0 -0.875q-0.546875 -0.25 -1.21875 -0.25q-1.3125 0 -2.03125 0.953125q-0.703125 0.9375 -0.703125 2.6875q0 0.921875 0.15625 1.578125q0.15625 0.65625 0.46875 1.078125q0.3125 0.421875 0.75 0.625q0.453125 0.1875 1.03125 0.1875zm10.741333 -8.375q0.84375 0 1.5625 0.28125q0.71875 0.28125 1.234375 0.828125q0.53125 0.53125 0.8125 1.328125q0.296875 0.78125 0.296875 1.78125q0 0.390625 -0.078125 0.53125q-0.078125 0.125 -0.3125 0.125l-6.296875 0q0.015625 0.890625 0.234375 1.5625q0.234375 0.65625 0.625 1.109375q0.390625 0.4375 0.9375 0.65625q0.546875 0.21875 1.203125 0.21875q0.625 0 1.078125 -0.140625q0.453125 -0.15625 0.78125 -0.3125q0.328125 -0.171875 0.546875 -0.3125q0.21875 -0.15625 0.375 -0.15625q0.21875 0 0.328125 0.15625l0.46875 0.609375q-0.3125 0.375 -0.75 0.65625q-0.421875 0.265625 -0.921875 0.453125q-0.484375 0.171875 -1.015625 0.25q-0.515625 0.09375 -1.015625 0.09375q-0.984375 0 -1.8125 -0.328125q-0.828125 -0.328125 -1.4375 -0.96875q-0.59375 -0.640625 -0.9375 -1.578125q-0.328125 -0.9375 -0.328125 -2.171875q0 -0.984375 0.296875 -1.84375q0.3125 -0.859375 0.875 -1.484375q0.578125 -0.625 1.390625 -0.984375q0.828125 -0.359375 1.859375 -0.359375zm0.03125 1.21875q-1.203125 0 -1.890625 0.703125q-0.6875 0.6875 -0.859375 1.921875l5.140625 0q0 -0.578125 -0.171875 -1.0625q-0.15625 -0.484375 -0.46875 -0.828125q-0.296875 -0.359375 -0.75 -0.546875q-0.4375 -0.1875 -1.0 -0.1875zm7.838379 -5.359375l0 13.734375l-1.65625 0l0 -13.734375l1.65625 0zm17.798553 13.734375l-1.40625 0q-0.234375 0 -0.390625 -0.125q-0.140625 -0.125 -0.21875 -0.296875l-1.25 -3.234375l-6.0 0l-1.25 3.234375q-0.0625 0.15625 -0.234375 0.296875q-0.15625 0.125 -0.375 0.125l-1.40625 0l5.34375 -13.375l1.84375 0l5.34375 13.375zm-8.765625 -4.96875l5.0 0l-2.109375 -5.4375q-0.203125 -0.5 -0.390625 -1.25q-0.109375 0.375 -0.21875 0.703125q-0.09375 0.3125 -0.1875 0.5625l-2.09375 5.421875zm19.80252 1.015625l-0.796875 3.953125l-0.75 0q-0.21875 0 -0.375 -0.15625q-0.140625 -0.15625 -0.140625 -0.40625q0 -0.046875 0 -0.078125q0.015625 -0.03125 0.015625 -0.078125l0.671875 -3.234375l-2.3125 0l-0.65625 3.3125q-0.078125 0.34375 -0.296875 0.5q-0.203125 0.140625 -0.46875 0.140625l-0.734375 0l0.796875 -3.953125l-1.375 0q-0.203125 0 -0.328125 -0.09375q-0.125 -0.109375 -0.125 -0.375q0 -0.046875 0 -0.09375q0.015625 -0.0625 0.015625 -0.125l0.078125 -0.53125l1.90625 0l0.609375 -3.03125l-2.171875 0l0.125 -0.703125q0.046875 -0.265625 0.21875 -0.390625q0.171875 -0.140625 0.53125 -0.140625l1.46875 0l0.671875 -3.328125q0.0625 -0.28125 0.25 -0.4375q0.203125 -0.171875 0.484375 -0.171875l0.75 0l-0.78125 3.9375l2.296875 0l0.796875 -3.9375l0.734375 0q0.234375 0 0.375 0.140625q0.15625 0.140625 0.15625 0.375q0 0.078125 0 0.109375l-0.6875 3.3125l1.984375 0l-0.125 0.703125q-0.046875 0.28125 -0.21875 0.40625q-0.171875 0.125 -0.53125 0.125l-1.28125 0l-0.609375 3.03125l1.671875 0q0.21875 0 0.34375 0.109375q0.125 0.109375 0.125 0.375q0 0.046875 -0.015625 0.109375q0 0.046875 -0.015625 0.09375l-0.078125 0.53125l-2.203125 0zm-3.5 -1.21875l2.296875 0l0.609375 -3.03125l-2.296875 0l-0.609375 3.03125zm9.617523 3.90625l2.875 0l0 -9.109375q0 -0.421875 0.03125 -0.84375l-2.390625 2.046875q-0.09375 0.078125 -0.1875 0.109375q-0.09375 0.03125 -0.171875 0.03125q-0.140625 0 -0.25 -0.0625q-0.109375 -0.0625 -0.171875 -0.140625l-0.515625 -0.71875l3.96875 -3.4375l1.34375 0l0 12.125l2.640625 0l0 1.265625l-7.171875 0l0 -1.265625z" fill-rule="nonzero"/><path fill="#d9ead3" d="m380.3071 66.25975l152.6614 0l0 42.614174l-152.6614 0z" fill-rule="evenodd"/><path stroke="#38761d" stroke-width="1.0" stroke-linejoin="round" stroke-linecap="butt" d="m380.3071 66.25975l152.6614 0l0 42.614174l-152.6614 0z" fill-rule="evenodd"/><path fill="#000000" d="m417.8178 89.658714q0.125 0.21875 0.21875 0.46875q0.109375 0.25 0.203125 0.5q0.09375 -0.265625 0.1875 -0.5q0.109375 -0.234375 0.234375 -0.484375l4.53125 -8.21875q0.109375 -0.21875 0.234375 -0.265625q0.140625 -0.046875 0.390625 -0.046875l1.328125 0l0 13.375l-1.578125 0l0 -9.828125q0 -0.1875 0 -0.40625q0.015625 -0.234375 0.03125 -0.46875l-4.578125 8.359375q-0.234375 0.421875 -0.65625 0.421875l-0.265625 0q-0.421875 0 -0.65625 -0.421875l-4.671875 -8.390625q0.03125 0.25 0.03125 0.484375q0.015625 0.234375 0.015625 0.421875l0 9.828125l-1.578125 0l0 -13.375l1.328125 0q0.25 0 0.375 0.046875q0.125 0.046875 0.25 0.265625l4.625 8.234375l0 0zm14.148132 -4.765625q1.03125 0 1.859375 0.34375q0.84375 0.34375 1.421875 0.984375q0.59375 0.625 0.90625 1.53125q0.3125 0.890625 0.3125 2.0q0 1.125 -0.3125 2.03125q-0.3125 0.890625 -0.90625 1.53125q-0.578125 0.625 -1.421875 0.96875q-0.828125 0.328125 -1.859375 0.328125q-1.03125 0 -1.875 -0.328125q-0.828125 -0.34375 -1.421875 -0.96875q-0.578125 -0.640625 -0.90625 -1.53125q-0.3125 -0.90625 -0.3125 -2.03125q0 -1.109375 0.3125 -2.0q0.328125 -0.90625 0.90625 -1.53125q0.59375 -0.640625 1.421875 -0.984375q0.84375 -0.34375 1.875 -0.34375zm0 8.421875q1.390625 0 2.078125 -0.9375q0.703125 -0.9375 0.703125 -2.609375q0 -1.6875 -0.703125 -2.625q-0.6875 -0.953125 -2.078125 -0.953125q-0.703125 0 -1.234375 0.25q-0.515625 0.234375 -0.875 0.703125q-0.34375 0.453125 -0.515625 1.125q-0.171875 0.65625 -0.171875 1.5q0 0.84375 0.171875 1.5q0.171875 0.65625 0.515625 1.109375q0.359375 0.453125 0.875 0.703125q0.53125 0.234375 1.234375 0.234375zm13.201019 1.171875q-0.359375 0 -0.453125 -0.34375l-0.140625 -1.15625q-0.609375 0.75 -1.390625 1.1875q-0.78125 0.4375 -1.78125 0.4375q-0.8125 0 -1.484375 -0.3125q-0.65625 -0.3125 -1.125 -0.90625q-0.46875 -0.609375 -0.71875 -1.515625q-0.25 -0.90625 -0.25 -2.078125q0 -1.046875 0.28125 -1.9375q0.28125 -0.90625 0.796875 -1.5625q0.53125 -0.671875 1.28125 -1.046875q0.765625 -0.390625 1.71875 -0.390625q0.875 0 1.484375 0.296875q0.625 0.296875 1.109375 0.828125l0 -5.234375l1.65625 0l0 13.734375l-0.984375 0zm-3.21875 -1.21875q0.8125 0 1.421875 -0.359375q0.609375 -0.375 1.125 -1.0625l0 -4.5625q-0.453125 -0.625 -1.0 -0.875q-0.546875 -0.25 -1.21875 -0.25q-1.3125 0 -2.03125 0.953125q-0.703125 0.9375 -0.703125 2.6875q0 0.921875 0.15625 1.578125q0.15625 0.65625 0.46875 1.078125q0.3125 0.421875 0.75 0.625q0.453125 0.1875 1.03125 0.1875zm10.741333 -8.375q0.84375 0 1.5625 0.28125q0.71875 0.28125 1.234375 0.828125q0.53125 0.53125 0.8125 1.328125q0.296875 0.78125 0.296875 1.78125q0 0.390625 -0.078125 0.53125q-0.078125 0.125 -0.3125 0.125l-6.296875 0q0.015625 0.890625 0.234375 1.5625q0.234375 0.65625 0.625 1.109375q0.390625 0.4375 0.9375 0.65625q0.546875 0.21875 1.203125 0.21875q0.625 0 1.078125 -0.140625q0.453125 -0.15625 0.78125 -0.3125q0.328125 -0.171875 0.546875 -0.3125q0.21875 -0.15625 0.375 -0.15625q0.21875 0 0.328125 0.15625l0.46875 0.609375q-0.3125 0.375 -0.75 0.65625q-0.421875 0.265625 -0.921875 0.453125q-0.484375 0.171875 -1.015625 0.25q-0.515625 0.09375 -1.015625 0.09375q-0.984375 0 -1.8125 -0.328125q-0.828125 -0.328125 -1.4375 -0.96875q-0.59375 -0.640625 -0.9375 -1.578125q-0.328125 -0.9375 -0.328125 -2.171875q0 -0.984375 0.296875 -1.84375q0.3125 -0.859375 0.875 -1.484375q0.578125 -0.625 1.390625 -0.984375q0.828125 -0.359375 1.859375 -0.359375zm0.03125 1.21875q-1.203125 0 -1.890625 0.703125q-0.6875 0.6875 -0.859375 1.921875l5.140625 0q0 -0.578125 -0.171875 -1.0625q-0.15625 -0.484375 -0.46875 -0.828125q-0.296875 -0.359375 -0.75 -0.546875q-0.4375 -0.1875 -1.0 -0.1875zm7.838379 -5.359375l0 13.734375l-1.65625 0l0 -13.734375l1.65625 0zm17.798553 13.734375l-1.40625 0q-0.234375 0 -0.390625 -0.125q-0.140625 -0.125 -0.21875 -0.296875l-1.25 -3.234375l-6.0 0l-1.25 3.234375q-0.0625 0.15625 -0.234375 0.296875q-0.15625 0.125 -0.375 0.125l-1.40625 0l5.34375 -13.375l1.84375 0l5.34375 13.375zm-8.765625 -4.96875l5.0 0l-2.109375 -5.4375q-0.203125 -0.5 -0.390625 -1.25q-0.109375 0.375 -0.21875 0.703125q-0.09375 0.3125 -0.1875 0.5625l-2.09375 5.421875zm19.80252 1.015625l-0.796875 3.953125l-0.75 0q-0.21875 0 -0.375 -0.15625q-0.140625 -0.15625 -0.140625 -0.40625q0 -0.046875 0 -0.078125q0.015625 -0.03125 0.015625 -0.078125l0.671875 -3.234375l-2.3125 0l-0.65625 3.3125q-0.078125 0.34375 -0.296875 0.5q-0.203125 0.140625 -0.46875 0.140625l-0.734375 0l0.796875 -3.953125l-1.375 0q-0.203125 0 -0.328125 -0.09375q-0.125 -0.109375 -0.125 -0.375q0 -0.046875 0 -0.09375q0.015625 -0.0625 0.015625 -0.125l0.078125 -0.53125l1.90625 0l0.609375 -3.03125l-2.171875 0l0.125 -0.703125q0.046875 -0.265625 0.21875 -0.390625q0.171875 -0.140625 0.53125 -0.140625l1.46875 0l0.671875 -3.328125q0.0625 -0.28125 0.25 -0.4375q0.203125 -0.171875 0.484375 -0.171875l0.75 0l-0.78125 3.9375l2.296875 0l0.796875 -3.9375l0.734375 0q0.234375 0 0.375 0.140625q0.15625 0.140625 0.15625 0.375q0 0.078125 0 0.109375l-0.6875 3.3125l1.984375 0l-0.125 0.703125q-0.046875 0.28125 -0.21875 0.40625q-0.171875 0.125 -0.53125 0.125l-1.28125 0l-0.609375 3.03125l1.671875 0q0.21875 0 0.34375 0.109375q0.125 0.109375 0.125 0.375q0 0.046875 -0.015625 0.109375q0 0.046875 -0.015625 0.09375l-0.078125 0.53125l-2.203125 0zm-3.5 -1.21875l2.296875 0l0.609375 -3.03125l-2.296875 0l-0.609375 3.03125zm12.555023 -8.34375q0.84375 0 1.578125 0.25q0.734375 0.25 1.265625 0.734375q0.546875 0.484375 0.859375 1.171875q0.3125 0.6875 0.3125 1.5625q0 0.75 -0.234375 1.390625q-0.21875 0.625 -0.609375 1.21875q-0.375 0.578125 -0.875 1.125q-0.5 0.546875 -1.0625 1.109375l-3.515625 3.59375q0.375 -0.09375 0.75 -0.15625q0.390625 -0.0625 0.75 -0.0625l4.46875 0q0.28125 0 0.4375 0.15625q0.15625 0.15625 0.15625 0.421875l0 1.0l-8.921875 0l0 -0.5625q0 -0.1875 0.0625 -0.375q0.078125 -0.1875 0.234375 -0.34375l4.28125 -4.296875q0.53125 -0.546875 0.96875 -1.046875q0.4375 -0.5 0.75 -1.0q0.3125 -0.5 0.484375 -1.015625q0.171875 -0.515625 0.171875 -1.109375q0 -0.578125 -0.1875 -1.015625q-0.1875 -0.453125 -0.515625 -0.734375q-0.328125 -0.296875 -0.765625 -0.4375q-0.4375 -0.15625 -0.9375 -0.15625q-0.5 0 -0.9375 0.15625q-0.421875 0.140625 -0.765625 0.40625q-0.328125 0.265625 -0.5625 0.640625q-0.21875 0.359375 -0.3125 0.796875q-0.078125 0.265625 -0.234375 0.390625q-0.140625 0.125 -0.375 0.125q-0.046875 0 -0.109375 0q-0.046875 -0.015625 -0.109375 -0.015625l-0.875 -0.15625q0.140625 -0.90625 0.515625 -1.609375q0.375 -0.71875 0.9375 -1.1875q0.578125 -0.46875 1.3125 -0.71875q0.75 -0.25 1.609375 -0.25z" fill-rule="nonzero"/><path fill="#d9ead3" d="m380.3071 122.25975l152.6614 0l0 42.61418l-152.6614 0z" fill-rule="evenodd"/><path stroke="#38761d" stroke-width="1.0" stroke-linejoin="round" stroke-linecap="butt" d="m380.3071 122.25975l152.6614 0l0 42.61418l-152.6614 0z" fill-rule="evenodd"/><path fill="#000000" d="m417.8178 145.6587q0.125 0.21875 0.21875 0.46875q0.109375 0.25 0.203125 0.5q0.09375 -0.265625 0.1875 -0.5q0.109375 -0.234375 0.234375 -0.484375l4.53125 -8.21875q0.109375 -0.21875 0.234375 -0.265625q0.140625 -0.046875 0.390625 -0.046875l1.328125 0l0 13.375l-1.578125 0l0 -9.828125q0 -0.1875 0 -0.40625q0.015625 -0.234375 0.03125 -0.46875l-4.578125 8.359375q-0.234375 0.421875 -0.65625 0.421875l-0.265625 0q-0.421875 0 -0.65625 -0.421875l-4.671875 -8.390625q0.03125 0.25 0.03125 0.484375q0.015625 0.234375 0.015625 0.421875l0 9.828125l-1.578125 0l0 -13.375l1.328125 0q0.25 0 0.375 0.046875q0.125 0.046875 0.25 0.265625l4.625 8.234375l0 0zm14.148132 -4.765625q1.03125 0 1.859375 0.34375q0.84375 0.34375 1.421875 0.984375q0.59375 0.625 0.90625 1.53125q0.3125 0.890625 0.3125 2.0q0 1.125 -0.3125 2.03125q-0.3125 0.890625 -0.90625 1.53125q-0.578125 0.625 -1.421875 0.96875q-0.828125 0.328125 -1.859375 0.328125q-1.03125 0 -1.875 -0.328125q-0.828125 -0.34375 -1.421875 -0.96875q-0.578125 -0.640625 -0.90625 -1.53125q-0.3125 -0.90625 -0.3125 -2.03125q0 -1.109375 0.3125 -2.0q0.328125 -0.90625 0.90625 -1.53125q0.59375 -0.640625 1.421875 -0.984375q0.84375 -0.34375 1.875 -0.34375zm0 8.421875q1.390625 0 2.078125 -0.9375q0.703125 -0.9375 0.703125 -2.609375q0 -1.6875 -0.703125 -2.625q-0.6875 -0.953125 -2.078125 -0.953125q-0.703125 0 -1.234375 0.25q-0.515625 0.234375 -0.875 0.703125q-0.34375 0.453125 -0.515625 1.125q-0.171875 0.65625 -0.171875 1.5q0 0.84375 0.171875 1.5q0.171875 0.65625 0.515625 1.109375q0.359375 0.453125 0.875 0.703125q0.53125 0.234375 1.234375 0.234375zm13.201019 1.171875q-0.359375 0 -0.453125 -0.34375l-0.140625 -1.15625q-0.609375 0.75 -1.390625 1.1875q-0.78125 0.4375 -1.78125 0.4375q-0.8125 0 -1.484375 -0.3125q-0.65625 -0.3125 -1.125 -0.90625q-0.46875 -0.609375 -0.71875 -1.515625q-0.25 -0.90625 -0.25 -2.078125q0 -1.046875 0.28125 -1.9375q0.28125 -0.90625 0.796875 -1.5625q0.53125 -0.671875 1.28125 -1.046875q0.765625 -0.390625 1.71875 -0.390625q0.875 0 1.484375 0.296875q0.625 0.296875 1.109375 0.828125l0 -5.234375l1.65625 0l0 13.734375l-0.984375 0zm-3.21875 -1.21875q0.8125 0 1.421875 -0.359375q0.609375 -0.375 1.125 -1.0625l0 -4.5625q-0.453125 -0.625 -1.0 -0.875q-0.546875 -0.25 -1.21875 -0.25q-1.3125 0 -2.03125 0.953125q-0.703125 0.9375 -0.703125 2.6875q0 0.921875 0.15625 1.578125q0.15625 0.65625 0.46875 1.078125q0.3125 0.421875 0.75 0.625q0.453125 0.1875 1.03125 0.1875zm10.741333 -8.375q0.84375 0 1.5625 0.28125q0.71875 0.28125 1.234375 0.828125q0.53125 0.53125 0.8125 1.328125q0.296875 0.78125 0.296875 1.78125q0 0.390625 -0.078125 0.53125q-0.078125 0.125 -0.3125 0.125l-6.296875 0q0.015625 0.890625 0.234375 1.5625q0.234375 0.65625 0.625 1.109375q0.390625 0.4375 0.9375 0.65625q0.546875 0.21875 1.203125 0.21875q0.625 0 1.078125 -0.140625q0.453125 -0.15625 0.78125 -0.3125q0.328125 -0.171875 0.546875 -0.3125q0.21875 -0.15625 0.375 -0.15625q0.21875 0 0.328125 0.15625l0.46875 0.609375q-0.3125 0.375 -0.75 0.65625q-0.421875 0.265625 -0.921875 0.453125q-0.484375 0.171875 -1.015625 0.25q-0.515625 0.09375 -1.015625 0.09375q-0.984375 0 -1.8125 -0.328125q-0.828125 -0.328125 -1.4375 -0.96875q-0.59375 -0.640625 -0.9375 -1.578125q-0.328125 -0.9375 -0.328125 -2.171875q0 -0.984375 0.296875 -1.84375q0.3125 -0.859375 0.875 -1.484375q0.578125 -0.625 1.390625 -0.984375q0.828125 -0.359375 1.859375 -0.359375zm0.03125 1.21875q-1.203125 0 -1.890625 0.703125q-0.6875 0.6875 -0.859375 1.921875l5.140625 0q0 -0.578125 -0.171875 -1.0625q-0.15625 -0.484375 -0.46875 -0.828125q-0.296875 -0.359375 -0.75 -0.546875q-0.4375 -0.1875 -1.0 -0.1875zm7.838379 -5.359375l0 13.734375l-1.65625 0l0 -13.734375l1.65625 0zm17.798553 13.734375l-1.40625 0q-0.234375 0 -0.390625 -0.125q-0.140625 -0.125 -0.21875 -0.296875l-1.25 -3.234375l-6.0 0l-1.25 3.234375q-0.0625 0.15625 -0.234375 0.296875q-0.15625 0.125 -0.375 0.125l-1.40625 0l5.34375 -13.375l1.84375 0l5.34375 13.375zm-8.765625 -4.96875l5.0 0l-2.109375 -5.4375q-0.203125 -0.5 -0.390625 -1.25q-0.109375 0.375 -0.21875 0.703125q-0.09375 0.3125 -0.1875 0.5625l-2.09375 5.421875zm19.80252 1.015625l-0.796875 3.953125l-0.75 0q-0.21875 0 -0.375 -0.15625q-0.140625 -0.15625 -0.140625 -0.40625q0 -0.046875 0 -0.078125q0.015625 -0.03125 0.015625 -0.078125l0.671875 -3.234375l-2.3125 0l-0.65625 3.3125q-0.078125 0.34375 -0.296875 0.5q-0.203125 0.140625 -0.46875 0.140625l-0.734375 0l0.796875 -3.953125l-1.375 0q-0.203125 0 -0.328125 -0.09375q-0.125 -0.109375 -0.125 -0.375q0 -0.046875 0 -0.09375q0.015625 -0.0625 0.015625 -0.125l0.078125 -0.53125l1.90625 0l0.609375 -3.03125l-2.171875 0l0.125 -0.703125q0.046875 -0.265625 0.21875 -0.390625q0.171875 -0.140625 0.53125 -0.140625l1.46875 0l0.671875 -3.328125q0.0625 -0.28125 0.25 -0.4375q0.203125 -0.171875 0.484375 -0.171875l0.75 0l-0.78125 3.9375l2.296875 0l0.796875 -3.9375l0.734375 0q0.234375 0 0.375 0.140625q0.15625 0.140625 0.15625 0.375q0 0.078125 0 0.109375l-0.6875 3.3125l1.984375 0l-0.125 0.703125q-0.046875 0.28125 -0.21875 0.40625q-0.171875 0.125 -0.53125 0.125l-1.28125 0l-0.609375 3.03125l1.671875 0q0.21875 0 0.34375 0.109375q0.125 0.109375 0.125 0.375q0 0.046875 -0.015625 0.109375q0 0.046875 -0.015625 0.09375l-0.078125 0.53125l-2.203125 0zm-3.5 -1.21875l2.296875 0l0.609375 -3.03125l-2.296875 0l-0.609375 3.03125zm12.726898 -8.34375q0.84375 0 1.5625 0.25q0.71875 0.234375 1.234375 0.6875q0.53125 0.4375 0.8125 1.078125q0.296875 0.625 0.296875 1.40625q0 0.640625 -0.171875 1.140625q-0.15625 0.5 -0.46875 0.875q-0.296875 0.375 -0.734375 0.640625q-0.421875 0.25 -0.953125 0.40625q1.3125 0.359375 1.96875 1.171875q0.65625 0.796875 0.65625 2.03125q0 0.921875 -0.359375 1.65625q-0.34375 0.734375 -0.953125 1.25q-0.609375 0.515625 -1.421875 0.796875q-0.796875 0.28125 -1.71875 0.28125q-1.0625 0 -1.828125 -0.265625q-0.75 -0.265625 -1.28125 -0.734375q-0.515625 -0.46875 -0.859375 -1.109375q-0.328125 -0.640625 -0.5625 -1.390625l0.71875 -0.296875q0.1875 -0.078125 0.390625 -0.078125q0.1875 0 0.328125 0.078125q0.140625 0.078125 0.21875 0.25q0.015625 0.03125 0.03125 0.078125q0.03125 0.03125 0.046875 0.078125q0.125 0.28125 0.3125 0.625q0.1875 0.328125 0.5 0.640625q0.328125 0.296875 0.796875 0.5q0.46875 0.203125 1.171875 0.203125q0.703125 0 1.21875 -0.21875q0.53125 -0.234375 0.875 -0.59375q0.359375 -0.375 0.53125 -0.8125q0.1875 -0.453125 0.1875 -0.890625q0 -0.546875 -0.15625 -0.984375q-0.140625 -0.453125 -0.515625 -0.78125q-0.375 -0.328125 -1.046875 -0.515625q-0.671875 -0.1875 -1.71875 -0.1875l0 -1.203125q0.859375 -0.015625 1.453125 -0.1875q0.609375 -0.171875 0.984375 -0.484375q0.390625 -0.3125 0.5625 -0.734375q0.171875 -0.4375 0.171875 -0.953125q0 -0.578125 -0.1875 -1.0q-0.171875 -0.4375 -0.5 -0.71875q-0.3125 -0.28125 -0.75 -0.421875q-0.4375 -0.140625 -0.9375 -0.140625q-0.5 0 -0.9375 0.15625q-0.421875 0.140625 -0.75 0.40625q-0.328125 0.265625 -0.5625 0.640625q-0.21875 0.375 -0.328125 0.796875q-0.078125 0.265625 -0.234375 0.390625q-0.140625 0.125 -0.375 0.125q-0.046875 0 -0.109375 0q-0.046875 -0.015625 -0.109375 -0.015625l-0.859375 -0.15625q0.125 -0.90625 0.5 -1.609375q0.375 -0.71875 0.9375 -1.1875q0.578125 -0.46875 1.3125 -0.71875q0.75 -0.25 1.609375 -0.25z" fill-rule="nonzero"/><path fill="#c9daf8" d="m588.30707 64.56693l110.26776 0l0 42.614166l-110.26776 0z" fill-rule="evenodd"/><path stroke="#1155cc" stroke-width="1.0" stroke-linejoin="round" stroke-linecap="butt" d="m588.30707 64.56693l110.26776 0l0 42.614166l-110.26776 0z" fill-rule="evenodd"/><path fill="#000000" d="m617.5764 90.02839q0.140625 0 0.265625 0.125l0.71875 0.78125q-0.828125 0.9375 -2.0 1.484375q-1.171875 0.53125 -2.828125 0.53125q-1.4375 0 -2.609375 -0.5q-1.171875 -0.5 -2.015625 -1.40625q-0.828125 -0.90625 -1.28125 -2.15625q-0.453125 -1.265625 -0.453125 -2.765625q0 -1.515625 0.484375 -2.765625q0.484375 -1.265625 1.375 -2.171875q0.890625 -0.90625 2.125 -1.40625q1.234375 -0.5 2.734375 -0.5q1.46875 0 2.53125 0.453125q1.078125 0.453125 1.90625 1.25l-0.59375 0.828125q-0.0625 0.09375 -0.15625 0.15625q-0.078125 0.046875 -0.234375 0.046875q-0.125 0 -0.265625 -0.078125q-0.125 -0.09375 -0.3125 -0.21875q-0.1875 -0.140625 -0.4375 -0.28125q-0.25 -0.15625 -0.59375 -0.28125q-0.34375 -0.125 -0.8125 -0.21875q-0.453125 -0.09375 -1.046875 -0.09375q-1.078125 0 -1.96875 0.375q-0.890625 0.359375 -1.53125 1.046875q-0.640625 0.6875 -1.0 1.671875q-0.359375 0.96875 -0.359375 2.1875q0 1.25 0.359375 2.234375q0.359375 0.96875 0.96875 1.640625q0.625 0.671875 1.46875 1.03125q0.859375 0.359375 1.84375 0.359375q0.59375 0 1.0625 -0.0625q0.484375 -0.078125 0.890625 -0.21875q0.40625 -0.15625 0.75 -0.375q0.34375 -0.234375 0.703125 -0.5625q0.15625 -0.140625 0.3125 -0.140625zm6.920166 -6.828125q1.03125 0 1.859375 0.34375q0.84375 0.34375 1.421875 0.984375q0.59375 0.625 0.90625 1.53125q0.3125 0.890625 0.3125 2.0q0 1.125 -0.3125 2.03125q-0.3125 0.890625 -0.90625 1.53125q-0.578125 0.625 -1.421875 0.96875q-0.828125 0.328125 -1.859375 0.328125q-1.03125 0 -1.875 -0.328125q-0.828125 -0.34375 -1.421875 -0.96875q-0.578125 -0.640625 -0.90625 -1.53125q-0.3125 -0.90625 -0.3125 -2.03125q0 -1.109375 0.3125 -2.0q0.328125 -0.90625 0.90625 -1.53125q0.59375 -0.640625 1.421875 -0.984375q0.84375 -0.34375 1.875 -0.34375zm0 8.421875q1.390625 0 2.078125 -0.9375q0.703125 -0.9375 0.703125 -2.609375q0 -1.6875 -0.703125 -2.625q-0.6875 -0.953125 -2.078125 -0.953125q-0.703125 0 -1.234375 0.25q-0.515625 0.234375 -0.875 0.703125q-0.34375 0.453125 -0.515625 1.125q-0.171875 0.65625 -0.171875 1.5q0 0.84375 0.171875 1.5q0.171875 0.65625 0.515625 1.109375q0.359375 0.453125 0.875 0.703125q0.53125 0.234375 1.234375 0.234375zm6.544739 1.171875l0 -9.453125l0.984375 0q0.359375 0 0.453125 0.34375l0.125 0.96875q0.515625 -0.640625 1.15625 -1.046875q0.65625 -0.40625 1.515625 -0.40625q0.96875 0 1.5625 0.53125q0.59375 0.53125 0.84375 1.4375q0.203125 -0.515625 0.515625 -0.890625q0.328125 -0.375 0.71875 -0.609375q0.40625 -0.25 0.859375 -0.359375q0.453125 -0.109375 0.921875 -0.109375q0.75 0 1.328125 0.234375q0.578125 0.234375 0.984375 0.703125q0.40625 0.453125 0.625 1.125q0.21875 0.65625 0.21875 1.515625l0 6.015625l-1.65625 0l0 -6.015625q0 -1.109375 -0.5 -1.6875q-0.484375 -0.578125 -1.40625 -0.578125q-0.40625 0 -0.78125 0.15625q-0.359375 0.140625 -0.640625 0.421875q-0.28125 0.28125 -0.453125 0.703125q-0.15625 0.421875 -0.15625 0.984375l0 6.015625l-1.65625 0l0 -6.015625q0 -1.140625 -0.46875 -1.703125q-0.453125 -0.5625 -1.328125 -0.5625q-0.609375 0 -1.140625 0.34375q-0.53125 0.328125 -0.96875 0.890625l0 7.046875l-1.65625 0zm15.379272 0l0 -13.734375l1.671875 0l0 5.640625q0.578125 -0.671875 1.34375 -1.078125q0.765625 -0.421875 1.734375 -0.421875q0.828125 0 1.484375 0.3125q0.671875 0.296875 1.125 0.90625q0.46875 0.609375 0.71875 1.515625q0.25 0.90625 0.25 2.078125q0 1.046875 -0.28125 1.953125q-0.265625 0.890625 -0.796875 1.546875q-0.53125 0.65625 -1.296875 1.03125q-0.75 0.375 -1.703125 0.375q-0.921875 0 -1.5625 -0.34375q-0.625 -0.359375 -1.109375 -1.0l-0.078125 0.859375q-0.078125 0.359375 -0.4375 0.359375l-1.0625 0zm4.21875 -8.28125q-0.8125 0 -1.4375 0.375q-0.609375 0.375 -1.109375 1.0625l0 4.5625q0.4375 0.625 0.984375 0.875q0.546875 0.25 1.21875 0.25q1.328125 0 2.03125 -0.9375q0.71875 -0.953125 0.71875 -2.6875q0 -0.921875 -0.171875 -1.578125q-0.15625 -0.671875 -0.46875 -1.09375q-0.3125 -0.421875 -0.765625 -0.625q-0.4375 -0.203125 -1.0 -0.203125zm7.991394 -1.171875l0 9.453125l-1.65625 0l0 -9.453125l1.65625 0zm0.375 -2.96875q0 0.25 -0.09375 0.46875q-0.09375 0.203125 -0.265625 0.375q-0.15625 0.15625 -0.375 0.25q-0.21875 0.09375 -0.453125 0.09375q-0.25 0 -0.46875 -0.09375q-0.203125 -0.09375 -0.359375 -0.25q-0.15625 -0.171875 -0.25 -0.375q-0.09375 -0.21875 -0.09375 -0.46875q0 -0.234375 0.09375 -0.453125q0.09375 -0.21875 0.25 -0.375q0.15625 -0.171875 0.359375 -0.265625q0.21875 -0.09375 0.46875 -0.09375q0.234375 0 0.453125 0.09375q0.21875 0.09375 0.375 0.265625q0.171875 0.15625 0.265625 0.375q0.09375 0.21875 0.09375 0.453125zm2.557251 12.421875l0 -9.453125l0.984375 0q0.359375 0 0.453125 0.34375l0.125 1.03125q0.625 -0.6875 1.375 -1.09375q0.765625 -0.421875 1.765625 -0.421875q0.78125 0 1.359375 0.265625q0.59375 0.25 0.984375 0.71875q0.40625 0.46875 0.609375 1.140625q0.203125 0.65625 0.203125 1.453125l0 6.015625l-1.65625 0l0 -6.015625q0 -1.078125 -0.5 -1.671875q-0.484375 -0.59375 -1.484375 -0.59375q-0.734375 0 -1.375 0.359375q-0.640625 0.359375 -1.1875 0.96875l0 6.953125l-1.65625 0zm14.122864 -9.59375q0.84375 0 1.5625 0.28125q0.71875 0.28125 1.234375 0.828125q0.53125 0.53125 0.8125 1.328125q0.296875 0.78125 0.296875 1.78125q0 0.390625 -0.078125 0.53125q-0.078125 0.125 -0.3125 0.125l-6.296875 0q0.015625 0.890625 0.234375 1.5625q0.234375 0.65625 0.625 1.109375q0.390625 0.4375 0.9375 0.65625q0.546875 0.21875 1.203125 0.21875q0.625 0 1.078125 -0.140625q0.453125 -0.15625 0.78125 -0.3125q0.328125 -0.171875 0.546875 -0.3125q0.21875 -0.15625 0.375 -0.15625q0.21875 0 0.328125 0.15625l0.46875 0.609375q-0.3125 0.375 -0.75 0.65625q-0.421875 0.265625 -0.921875 0.453125q-0.484375 0.171875 -1.015625 0.25q-0.515625 0.09375 -1.015625 0.09375q-0.984375 0 -1.8125 -0.328125q-0.828125 -0.328125 -1.4375 -0.96875q-0.59375 -0.640625 -0.9375 -1.578125q-0.328125 -0.9375 -0.328125 -2.171875q0 -0.984375 0.296875 -1.84375q0.3125 -0.859375 0.875 -1.484375q0.578125 -0.625 1.390625 -0.984375q0.828125 -0.359375 1.859375 -0.359375zm0.03125 1.21875q-1.203125 0 -1.890625 0.703125q-0.6875 0.6875 -0.859375 1.921875l5.140625 0q0 -0.578125 -0.171875 -1.0625q-0.15625 -0.484375 -0.46875 -0.828125q-0.296875 -0.359375 -0.75 -0.546875q-0.4375 -0.1875 -1.0 -0.1875z" fill-rule="nonzero"/><path fill="#f3f3f3" d="m149.66142 10.522309l149.10237 0l0 42.614174l-149.10237 0z" fill-rule="evenodd"/><path stroke="#b7b7b7" stroke-width="1.0" stroke-linejoin="round" stroke-linecap="butt" d="m149.66142 10.522309l149.10237 0l0 42.614174l-149.10237 0z" fill-rule="evenodd"/><path fill="#f3f3f3" d="m149.66142 66.52231l149.10237 0l0 42.614174l-149.10237 0z" fill-rule="evenodd"/><path stroke="#b7b7b7" stroke-width="1.0" stroke-linejoin="round" stroke-linecap="butt" d="m149.66142 66.52231l149.10237 0l0 42.614174l-149.10237 0z" fill-rule="evenodd"/><path fill="#f3f3f3" d="m149.66142 122.52231l149.10237 0l0 42.61418l-149.10237 0z" fill-rule="evenodd"/><path stroke="#b7b7b7" stroke-width="1.0" stroke-linejoin="round" stroke-linecap="butt" d="m149.66142 122.52231l149.10237 0l0 42.61418l-149.10237 0z" fill-rule="evenodd"/><path fill="#e06666" d="m208.21129 145.76247l0 0c1.6177063 0 2.9291382 1.3114166 2.9291382 2.9291382l0 0c0 0.77685547 -0.308609 1.5218811 -0.8579254 2.0712128c-0.5493164 0.5493164 -1.2943573 0.85791016 -2.0712128 0.85791016l0 0c-1.6177216 0 -2.9291382 -1.3114166 -2.9291382 -2.929123l0 0c0 -1.6177216 1.3114166 -2.9291382 2.9291382 -2.9291382z" fill-rule="evenodd"/><path fill="#f6b26b" d="m192.21129 129.76247l0 0c1.6177063 0 2.9291382 1.3114166 2.9291382 2.9291382l0 0c0 0.77685547 -0.308609 1.5218811 -0.8579254 2.0712128c-0.5493164 0.5493164 -1.2943573 0.85791016 -2.0712128 0.85791016l0 0c-1.6177216 0 -2.9291382 -1.3114166 -2.9291382 -2.929123l0 0c0 -1.6177216 1.3114166 -2.9291382 2.9291382 -2.9291382z" fill-rule="evenodd"/><path fill="#76a5af" d="m184.21129 137.76247l0 0c1.6177063 0 2.9291382 1.3114166 2.9291382 2.9291382l0 0c0 0.77685547 -0.308609 1.5218811 -0.8579254 2.0712128c-0.5493164 0.5493164 -1.2943573 0.85791016 -2.0712128 0.85791016l0 0c-1.6177216 0 -2.9291382 -1.3114166 -2.9291382 -2.929123l0 0c0 -1.6177216 1.3114166 -2.9291382 2.9291382 -2.9291382z" fill-rule="evenodd"/><path fill="#8e7cc3" d="m160.21129 129.76247l0 0c1.6177063 0 2.9291382 1.3114166 2.9291382 2.9291382l0 0c0 0.77685547 -0.308609 1.5218811 -0.8579254 2.0712128c-0.5493164 0.5493164 -1.2943573 0.85791016 -2.0712128 0.85791016l0 0c-1.6177216 0 -2.9291382 -1.3114166 -2.9291382 -2.929123l0 0c0 -1.6177216 1.3114166 -2.9291382 2.9291382 -2.9291382z" fill-rule="evenodd"/><path fill="#ff0000" d="m288.21127 79.698166l0 0c1.6177368 0 2.9291382 1.3114166 2.9291382 2.9291306l0 0c0 0.77685547 -0.30859375 1.5218887 -0.85791016 2.0712128c-0.5493164 0.5493164 -1.2943726 0.8579178 -2.071228 0.8579178l0 0c-1.6177063 0 -2.9291077 -1.3114166 -2.9291077 -2.9291306l0 0c0 -1.6177139 1.3114014 -2.9291306 2.9291077 -2.9291306z" fill-rule="evenodd"/><path fill="#ffff00" d="m256.21127 79.698166l0 0c1.6177368 0 2.9291382 1.3114166 2.9291382 2.9291306l0 0c0 0.77685547 -0.30859375 1.5218887 -0.85791016 2.0712128c-0.5493164 0.5493164 -1.2943726 0.8579178 -2.071228 0.8579178l0 0c-1.6177063 0 -2.929123 -1.3114166 -2.929123 -2.9291306l0 0c0 -1.6177139 1.3114166 -2.9291306 2.929123 -2.9291306z" fill-rule="evenodd"/><path fill="#0000ff" d="m272.21127 71.698166l0 0c1.6177368 0 2.9291382 1.3114166 2.9291382 2.9291306l0 0c0 0.77685547 -0.30859375 1.5218887 -0.85791016 2.0712128c-0.5493164 0.5493164 -1.2943726 0.8579178 -2.071228 0.8579178l0 0c-1.6177063 0 -2.9291077 -1.3114166 -2.9291077 -2.9291306l0 0c0 -1.6177139 1.3114014 -2.9291306 2.9291077 -2.9291306z" fill-rule="evenodd"/><path fill="#ff00ff" d="m240.21129 71.698166l0 0c1.6177063 0 2.9291382 1.3114166 2.9291382 2.9291306l0 0c0 0.77685547 -0.308609 1.5218887 -0.8579254 2.0712128c-0.5493164 0.5493164 -1.2943573 0.8579178 -2.0712128 0.8579178l0 0c-1.6177216 0 -2.9291382 -1.3114166 -2.9291382 -2.9291306l0 0c0 -1.6177139 1.3114166 -2.9291306 2.9291382 -2.9291306z" fill-rule="evenodd"/><path fill="#ff9900" d="m187.14043 24.036745l0 0c1.6177063 0 2.929123 1.3114185 2.929123 2.9291344l0 0c0 0.77685356 -0.30859375 1.5218906 -0.8579254 2.0712109c-0.5493164 0.5493183 -1.294342 0.8579235 -2.0711975 0.8579235l0 0c-1.6177216 0 -2.9291382 -1.3114185 -2.9291382 -2.9291344l0 0c0 -1.6177158 1.3114166 -2.9291344 2.9291382 -2.9291344z" fill-rule="evenodd"/><path fill="#00ff00" d="m171.14043 32.036747l0 0c1.6177063 0 2.929123 1.3114166 2.929123 2.9291306l0 0c0 0.77685547 -0.30859375 1.5218925 -0.8579254 2.0712128c-0.5493164 0.5493202 -1.294342 0.8579216 -2.0711975 0.8579216l0 0c-1.6177216 0 -2.9291382 -1.3114166 -2.9291382 -2.9291344l0 0c0 -1.6177139 1.3114166 -2.9291306 2.9291382 -2.9291306z" fill-rule="evenodd"/><path fill="#00ffff" d="m197.28215 32.036747l0 0c1.6177216 0 2.9291382 1.3114166 2.9291382 2.9291306l0 0c0 0.77685547 -0.308609 1.5218925 -0.8579254 2.0712128c-0.5493164 0.5493202 -1.2943573 0.8579216 -2.0712128 0.8579216l0 0c-1.6177216 0 -2.9291382 -1.3114166 -2.9291382 -2.9291344l0 0c0 -1.6177139 1.3114166 -2.9291306 2.9291382 -2.9291306z" fill-rule="evenodd"/><path fill="#4a86e8" d="m155.14043 23.201479l0 0c1.6177063 0 2.929123 1.3114166 2.929123 2.9291325l0 0c0 0.77685547 -0.30859375 1.5218925 -0.8579254 2.0712109c-0.5493164 0.5493202 -1.294342 0.8579235 -2.0711975 0.8579235l0 0c-1.6177216 0 -2.9291382 -1.3114166 -2.9291382 -2.9291344l0 0c0 -1.6177158 1.3114166 -2.9291325 2.9291382 -2.9291325z" fill-rule="evenodd"/><path fill="#9900ff" d="m155.14043 40.036747l0 0c1.6177063 0 2.929123 1.3114166 2.929123 2.9291306l0 0c0 0.77685547 -0.30859375 1.5218925 -0.8579254 2.0712128c-0.5493164 0.5493202 -1.294342 0.8579216 -2.0711975 0.8579216l0 0c-1.6177216 0 -2.9291382 -1.3114166 -2.9291382 -2.9291344l0 0c0 -1.6177139 1.3114166 -2.9291306 2.9291382 -2.9291306z" fill-rule="evenodd"/><path fill="#c27ba0" d="m187.14043 40.036747l0 0c1.6177063 0 2.929123 1.3114166 2.929123 2.9291306l0 0c0 0.77685547 -0.30859375 1.5218925 -0.8579254 2.0712128c-0.5493164 0.5493202 -1.294342 0.8579216 -2.0711975 0.8579216l0 0c-1.6177216 0 -2.9291382 -1.3114166 -2.9291382 -2.9291344l0 0c0 -1.6177139 1.3114166 -2.9291306 2.9291382 -2.9291306z" fill-rule="evenodd"/><path fill="#cc4125" d="m211.20473 84.90026l0 0c1.6177063 0 2.9291382 1.3114166 2.9291382 2.9291382l0 0c0 0.77685547 -0.308609 1.5218887 -0.8579254 2.0712051c-0.54933167 0.54932404 -1.2943573 0.8579254 -2.0712128 0.8579254l0 0c-1.6177216 0 -2.9291382 -1.3114166 -2.9291382 -2.9291306l0 0c0 -1.6177216 1.3114166 -2.9291382 2.9291382 -2.9291382z" fill-rule="evenodd"/><path fill="#ffd966" d="m195.20473 76.90026l0 0c1.6177063 0 2.9291382 1.3114166 2.9291382 2.9291382l0 0c0 0.77685547 -0.308609 1.5218887 -0.8579254 2.0712051c-0.54933167 0.54932404 -1.2943573 0.8579254 -2.0712128 0.8579254l0 0c-1.6177216 0 -2.9291382 -1.3114166 -2.9291382 -2.9291306l0 0c0 -1.6177216 1.3114166 -2.9291382 2.9291382 -2.9291382z" fill-rule="evenodd"/><path fill="#93c47d" d="m179.20473 92.90026l0 0c1.6177063 0 2.9291382 1.3114166 2.9291382 2.9291382l0 0c0 0.77685547 -0.308609 1.5218887 -0.8579254 2.0712051c-0.54933167 0.54932404 -1.2943573 0.8579254 -2.0712128 0.8579254l0 0c-1.6177216 0 -2.9291382 -1.3114166 -2.9291382 -2.9291306l0 0c0 -1.6177216 1.3114166 -2.9291382 2.9291382 -2.9291382z" fill-rule="evenodd"/><path fill="#6d9eeb" d="m171.20473 76.90026l0 0c1.6177063 0 2.9291382 1.3114166 2.9291382 2.9291382l0 0c0 0.77685547 -0.308609 1.5218887 -0.8579254 2.0712051c-0.54933167 0.54932404 -1.2943573 0.8579254 -2.0712128 0.8579254l0 0c-1.6177216 0 -2.9291382 -1.3114166 -2.9291382 -2.9291306l0 0c0 -1.6177216 1.3114166 -2.9291382 2.9291382 -2.9291382z" fill-rule="evenodd"/><path fill="#6fa8dc" d="m195.20473 92.90026l0 0c1.6177063 0 2.9291382 1.3114166 2.9291382 2.9291382l0 0c0 0.77685547 -0.308609 1.5218887 -0.8579254 2.0712051c-0.54933167 0.54932404 -1.2943573 0.8579254 -2.0712128 0.8579254l0 0c-1.6177216 0 -2.9291382 -1.3114166 -2.9291382 -2.9291306l0 0c0 -1.6177216 1.3114166 -2.9291382 2.9291382 -2.9291382z" fill-rule="evenodd"/><path fill="#c27ba0" d="m163.20473 92.90026l0 0c1.6177063 0 2.9291382 1.3114166 2.9291382 2.9291382l0 0c0 0.77685547 -0.308609 1.5218887 -0.8579254 2.0712051c-0.54933167 0.54932404 -1.2943573 0.8579254 -2.0712128 0.8579254l0 0c-1.6177216 0 -2.9291382 -1.3114166 -2.9291382 -2.9291306l0 0c0 -1.6177216 1.3114166 -2.9291382 2.9291382 -2.9291382z" fill-rule="evenodd"/><path fill="#ffff00" d="m259.72308 129.76247l0 0c1.6177368 0 2.9291382 1.3114166 2.9291382 2.9291382l0 0c0 0.77685547 -0.30859375 1.5218811 -0.85791016 2.0712128c-0.5493164 0.5493164 -1.2943726 0.85791016 -2.071228 0.85791016l0 0c-1.6177063 0 -2.9291077 -1.3114166 -2.9291077 -2.929123l0 0c0 -1.6177216 1.3114014 -2.9291382 2.9291077 -2.9291382z" fill-rule="evenodd"/><path fill="#00ff00" d="m259.72308 145.76247l0 0c1.6177368 0 2.9291382 1.3114166 2.9291382 2.9291382l0 0c0 0.77685547 -0.30859375 1.5218811 -0.85791016 2.0712128c-0.5493164 0.5493164 -1.2943726 0.85791016 -2.071228 0.85791016l0 0c-1.6177063 0 -2.9291077 -1.3114166 -2.9291077 -2.929123l0 0c0 -1.6177216 1.3114014 -2.9291382 2.9291077 -2.9291382z" fill-rule="evenodd"/><path fill="#4a86e8" d="m243.7231 136.9272l0 0c1.6177216 0 2.9291382 1.3114166 2.9291382 2.9291382l0 0c0 0.77685547 -0.308609 1.5218811 -0.8579254 2.0712128c-0.5493164 0.5493164 -1.2943573 0.85791016 -2.0712128 0.85791016l0 0c-1.6177216 0 -2.9291382 -1.3114166 -2.9291382 -2.929123l0 0c0 -1.6177216 1.3114166 -2.9291382 2.9291382 -2.9291382z" fill-rule="evenodd"/><path fill="#9900ff" d="m243.7231 153.76247l0 0c1.6177216 0 2.9291382 1.3114166 2.9291382 2.9291382l0 0c0 0.77685547 -0.308609 1.5218811 -0.8579254 2.0712128c-0.5493164 0.5493164 -1.2943573 0.85791016 -2.0712128 0.85791016l0 0c-1.6177216 0 -2.9291382 -1.3114166 -2.9291382 -2.929123l0 0c0 -1.6177216 1.3114166 -2.9291382 2.9291382 -2.9291382z" fill-rule="evenodd"/><path fill="#ff00ff" d="m272.21127 138.94357l0 0c1.6177368 0 2.9291382 1.3114166 2.9291382 2.929123l0 0c0 0.77685547 -0.30859375 1.5218964 -0.85791016 2.0712128c-0.5493164 0.54933167 -1.2943726 0.8579254 -2.071228 0.8579254l0 0c-1.6177063 0 -2.9291077 -1.3114166 -2.9291077 -2.9291382l0 0c0 -1.6177063 1.3114014 -2.929123 2.9291077 -2.929123z" fill-rule="evenodd"/><path fill="#cc4125" d="m227.7231 145.76247l0 0c1.6177216 0 2.9291382 1.3114166 2.9291382 2.9291382l0 0c0 0.77685547 -0.308609 1.5218811 -0.8579254 2.0712128c-0.5493164 0.5493164 -1.2943573 0.85791016 -2.0712128 0.85791016l0 0c-1.6177216 0 -2.9291382 -1.3114166 -2.9291382 -2.929123l0 0c0 -1.6177216 1.3114166 -2.9291382 2.9291382 -2.9291382z" fill-rule="evenodd"/><path fill="#e06666" d="m227.7231 129.76247l0 0c1.6177216 0 2.9291382 1.3114166 2.9291382 2.9291382l0 0c0 0.77685547 -0.308609 1.5218811 -0.8579254 2.0712128c-0.5493164 0.5493164 -1.2943573 0.85791016 -2.0712128 0.85791016l0 0c-1.6177216 0 -2.9291382 -1.3114166 -2.9291382 -2.929123l0 0c0 -1.6177216 1.3114166 -2.9291382 2.9291382 -2.9291382z" fill-rule="evenodd"/><path fill="#ff9900" d="m167.88977 140.57349l0 0c1.6177063 0 2.929123 1.3114166 2.929123 2.9291382l0 0c0 0.77685547 -0.30859375 1.5218964 -0.8579254 2.0712128c-0.5493164 0.5493164 -1.294342 0.8579254 -2.0711975 0.8579254l0 0c-1.6177216 0 -2.9291382 -1.3114166 -2.9291382 -2.9291382l0 0c0 -1.6177216 1.3114166 -2.9291382 2.9291382 -2.9291382z" fill-rule="evenodd"/><path fill="#00ffff" d="m178.0315 148.57349l0 0c1.6177216 0 2.9291382 1.3114166 2.9291382 2.9291382l0 0c0 0.77685547 -0.308609 1.5218964 -0.8579254 2.0712128c-0.5493164 0.5493164 -1.2943573 0.8579254 -2.0712128 0.8579254l0 0c-1.6177216 0 -2.9291382 -1.3114166 -2.9291382 -2.9291382l0 0c0 -1.6177216 1.3114166 -2.9291382 2.9291382 -2.9291382z" fill-rule="evenodd"/><path fill="#c27ba0" d="m167.88977 156.57349l0 0c1.6177063 0 2.929123 1.3114166 2.929123 2.9291382l0 0c0 0.77685547 -0.30859375 1.5218964 -0.8579254 2.0712128c-0.5493164 0.5493164 -1.294342 0.8579254 -2.0711975 0.8579254l0 0c-1.6177216 0 -2.9291382 -1.3114166 -2.9291382 -2.9291382l0 0c0 -1.6177216 1.3114166 -2.9291382 2.9291382 -2.9291382z" fill-rule="evenodd"/><path fill="#cc4125" d="m256.21127 32.036747l0 0c1.6177368 0 2.9291382 1.3114166 2.9291382 2.9291306l0 0c0 0.77685547 -0.30859375 1.5218925 -0.85791016 2.0712128c-0.5493164 0.5493202 -1.2943726 0.8579216 -2.071228 0.8579216l0 0c-1.6177063 0 -2.929123 -1.3114166 -2.929123 -2.9291344l0 0c0 -1.6177139 1.3114166 -2.9291306 2.929123 -2.9291306z" fill-rule="evenodd"/><path fill="#ffd966" d="m240.21129 24.036745l0 0c1.6177063 0 2.9291382 1.3114185 2.9291382 2.9291344l0 0c0 0.77685356 -0.308609 1.5218906 -0.8579254 2.0712109c-0.5493164 0.5493183 -1.2943573 0.8579235 -2.0712128 0.8579235l0 0c-1.6177216 0 -2.9291382 -1.3114185 -2.9291382 -2.9291344l0 0c0 -1.6177158 1.3114166 -2.9291344 2.9291382 -2.9291344z" fill-rule="evenodd"/><path fill="#93c47d" d="m224.21129 40.036747l0 0c1.6177063 0 2.9291382 1.3114166 2.9291382 2.9291306l0 0c0 0.77685547 -0.308609 1.5218925 -0.8579254 2.0712128c-0.5493164 0.5493202 -1.2943573 0.8579216 -2.0712128 0.8579216l0 0c-1.6177216 0 -2.9291382 -1.3114166 -2.9291382 -2.9291344l0 0c0 -1.6177139 1.3114166 -2.9291306 2.9291382 -2.9291306z" fill-rule="evenodd"/><path fill="#6d9eeb" d="m216.21129 24.036745l0 0c1.6177063 0 2.9291382 1.3114185 2.9291382 2.9291344l0 0c0 0.77685356 -0.308609 1.5218906 -0.8579254 2.0712109c-0.5493164 0.5493183 -1.2943573 0.8579235 -2.0712128 0.8579235l0 0c-1.6177216 0 -2.9291382 -1.3114185 -2.9291382 -2.9291344l0 0c0 -1.6177158 1.3114166 -2.9291344 2.9291382 -2.9291344z" fill-rule="evenodd"/><path fill="#6fa8dc" d="m240.21129 40.036747l0 0c1.6177063 0 2.9291382 1.3114166 2.9291382 2.9291306l0 0c0 0.77685547 -0.308609 1.5218925 -0.8579254 2.0712128c-0.5493164 0.5493202 -1.2943573 0.8579216 -2.0712128 0.8579216l0 0c-1.6177216 0 -2.9291382 -1.3114166 -2.9291382 -2.9291344l0 0c0 -1.6177139 1.3114166 -2.9291306 2.9291382 -2.9291306z" fill-rule="evenodd"/><path fill="#c27ba0" d="m208.21129 40.036747l0 0c1.6177063 0 2.9291382 1.3114166 2.9291382 2.9291306l0 0c0 0.77685547 -0.308609 1.5218925 -0.8579254 2.0712128c-0.5493164 0.5493202 -1.2943573 0.8579216 -2.0712128 0.8579216l0 0c-1.6177216 0 -2.9291382 -1.3114166 -2.9291382 -2.9291344l0 0c0 -1.6177139 1.3114166 -2.9291306 2.9291382 -2.9291306z" fill-rule="evenodd"/><path fill="#ffff00" d="m241.70735 81.279526l0 0c1.6177063 0 2.9291382 1.3114166 2.9291382 2.9291382l0 0c0 0.77685547 -0.308609 1.5218887 -0.8579254 2.0712051c-0.54933167 0.54932404 -1.2943573 0.8579254 -2.0712128 0.8579254l0 0c-1.6177216 0 -2.9291382 -1.3114166 -2.9291382 -2.9291306l0 0c0 -1.6177216 1.3114166 -2.9291382 2.9291382 -2.9291382z" fill-rule="evenodd"/><path fill="#00ff00" d="m288.21127 22.855642l0 0c1.6177368 0 2.9291382 1.3114185 2.9291382 2.9291344l0 0c0 0.77685547 -0.30859375 1.5218906 -0.85791016 2.0712109c-0.5493164 0.5493183 -1.2943726 0.8579235 -2.071228 0.8579235l0 0c-1.6177063 0 -2.9291077 -1.3114185 -2.9291077 -2.9291344l0 0c0 -1.6177158 1.3114014 -2.9291344 2.9291077 -2.9291344z" fill-rule="evenodd"/><path fill="#4a86e8" d="m272.21127 14.020376l0 0c1.6177368 0 2.9291382 1.3114176 2.9291382 2.9291344l0 0c0 0.77685356 -0.30859375 1.5218906 -0.85791016 2.071209c-0.5493164 0.5493202 -1.2943726 0.8579235 -2.071228 0.8579235l0 0c-1.6177063 0 -2.9291077 -1.3114166 -2.9291077 -2.9291325l0 0c0 -1.6177168 1.3114014 -2.9291344 2.9291077 -2.9291344z" fill-rule="evenodd"/><path fill="#9900ff" d="m272.21127 30.855642l0 0c1.6177368 0 2.9291382 1.3114185 2.9291382 2.9291363l0 0c0 0.77685165 -0.30859375 1.5218887 -0.85791016 2.071209c-0.5493164 0.5493202 -1.2943726 0.8579216 -2.071228 0.8579216l0 0c-1.6177063 0 -2.9291077 -1.3114166 -2.9291077 -2.9291306l0 0c0 -1.6177177 1.3114014 -2.9291363 2.9291077 -2.9291363z" fill-rule="evenodd"/><path fill="#ff00ff" d="m222.71654 92.90026l0 0c1.6177063 0 2.9291382 1.3114166 2.9291382 2.9291382l0 0c0 0.77685547 -0.308609 1.5218887 -0.8579254 2.0712051c-0.5493164 0.54932404 -1.2943573 0.8579254 -2.0712128 0.8579254l0 0c-1.6177216 0 -2.9291382 -1.3114166 -2.9291382 -2.9291306l0 0c0 -1.6177216 1.3114166 -2.9291382 2.9291382 -2.9291382z" fill-rule="evenodd"/><path fill="#ffff00" d="m257.18765 40.036747l0 0c1.6177368 0 2.9291382 1.3114166 2.9291382 2.9291306l0 0c0 0.77685547 -0.30859375 1.5218925 -0.85791016 2.0712128c-0.5493164 0.5493202 -1.2943726 0.8579216 -2.071228 0.8579216l0 0c-1.6177063 0 -2.929123 -1.3114166 -2.929123 -2.9291344l0 0c0 -1.6177139 1.3114166 -2.9291306 2.929123 -2.9291306z" fill-rule="evenodd"/><path fill="#00ff00" d="m227.7231 13.551181l0 0c1.6177216 0 2.9291382 1.3114185 2.9291382 2.9291334l0 0c0 0.77685547 -0.308609 1.5218925 -0.8579254 2.0712109c-0.5493164 0.5493202 -1.2943573 0.8579235 -2.0712128 0.8579235l0 0c-1.6177216 0 -2.9291382 -1.3114185 -2.9291382 -2.9291344l0 0c0 -1.6177149 1.3114166 -2.9291334 2.9291382 -2.9291334z" fill-rule="evenodd"/><path fill="#4a86e8" d="m171.14043 21.553185l0 0c1.6177063 0 2.929123 1.3114185 2.929123 2.9291344l0 0c0 0.77685356 -0.30859375 1.5218906 -0.8579254 2.0712109c-0.5493164 0.5493183 -1.294342 0.8579216 -2.0711975 0.8579216l0 0c-1.6177216 0 -2.9291382 -1.3114166 -2.9291382 -2.9291325l0 0c0 -1.6177158 1.3114166 -2.9291344 2.9291382 -2.9291344z" fill-rule="evenodd"/><path fill="#9900ff" d="m197.67586 16.8084l0 0c1.6177063 0 2.929123 1.3114185 2.929123 2.9291344l0 0c0 0.77685356 -0.30859375 1.5218906 -0.85791016 2.071209c-0.54933167 0.5493202 -1.2943573 0.8579235 -2.0712128 0.8579235l0 0c-1.6177216 0 -2.9291382 -1.3114166 -2.9291382 -2.9291325l0 0c0 -1.6177158 1.3114166 -2.9291344 2.9291382 -2.9291344z" fill-rule="evenodd"/><path fill="#ff00ff" d="m256.21127 13.551181l0 0c1.6177368 0 2.9291382 1.3114185 2.9291382 2.9291334l0 0c0 0.77685547 -0.30859375 1.5218925 -0.85791016 2.0712109c-0.5493164 0.5493202 -1.2943726 0.8579235 -2.071228 0.8579235l0 0c-1.6177063 0 -2.929123 -1.3114185 -2.929123 -2.9291344l0 0c0 -1.6177149 1.3114166 -2.9291334 2.929123 -2.9291334z" fill-rule="evenodd"/><path fill="#ff0000" d="m268.47113 97.11024l0 0c1.6177063 0 2.9291382 1.3114166 2.9291382 2.9291306l0 0c0 0.77685547 -0.30862427 1.5218964 -0.8579407 2.0712128c-0.5493164 0.5493164 -1.294342 0.8579254 -2.0711975 0.8579254l0 0c-1.6177063 0 -2.9291382 -1.3114166 -2.9291382 -2.9291382l0 0c0 -1.6177139 1.3114319 -2.9291306 2.9291382 -2.9291306z" fill-rule="evenodd"/><path fill="#ff9900" d="m241.70735 92.90026l0 0c1.6177063 0 2.9291382 1.3114166 2.9291382 2.9291382l0 0c0 0.77685547 -0.308609 1.5218887 -0.8579254 2.0712051c-0.54933167 0.54932404 -1.2943573 0.8579254 -2.0712128 0.8579254l0 0c-1.6177216 0 -2.9291382 -1.3114166 -2.9291382 -2.9291306l0 0c0 -1.6177216 1.3114166 -2.9291382 2.9291382 -2.9291382z" fill-rule="evenodd"/><path fill="#ffff00" d="m225.70735 76.90026l0 0c1.6177063 0 2.9291382 1.3114166 2.9291382 2.9291382l0 0c0 0.77685547 -0.308609 1.5218887 -0.8579254 2.0712051c-0.54933167 0.54932404 -1.2943573 0.8579254 -2.0712128 0.8579254l0 0c-1.6177216 0 -2.9291382 -1.3114166 -2.9291382 -2.9291306l0 0c0 -1.6177216 1.3114166 -2.9291382 2.9291382 -2.9291382z" fill-rule="evenodd"/><path fill="#00ff00" d="m225.70735 100.90026l0 0c1.6177063 0 2.9291382 1.3114166 2.9291382 2.9291382l0 0c0 0.77685547 -0.308609 1.5218887 -0.8579254 2.0712051c-0.54933167 0.54932404 -1.2943573 0.8579254 -2.0712128 0.8579254l0 0c-1.6177216 0 -2.9291382 -1.3114166 -2.9291382 -2.9291306l0 0c0 -1.6177216 1.3114166 -2.9291382 2.9291382 -2.9291382z" fill-rule="evenodd"/><path fill="#00ffff" d="m251.84908 100.90026l0 0c1.6177216 0 2.9291382 1.3114166 2.9291382 2.9291382l0 0c0 0.77685547 -0.308609 1.5218887 -0.8579254 2.0712051c-0.5493164 0.54932404 -1.2943573 0.8579254 -2.0712128 0.8579254l0 0c-1.6177063 0 -2.929123 -1.3114166 -2.929123 -2.9291306l0 0c0 -1.6177216 1.3114166 -2.9291382 2.929123 -2.9291382z" fill-rule="evenodd"/><path fill="#4a86e8" d="m209.70735 92.064995l0 0c1.6177063 0 2.9291382 1.3114166 2.9291382 2.9291382l0 0c0 0.77684784 -0.308609 1.5218887 -0.8579254 2.0712051c-0.54933167 0.54932404 -1.2943573 0.8579254 -2.0712128 0.8579254l0 0c-1.6177216 0 -2.9291382 -1.3114166 -2.9291382 -2.9291306l0 0c0 -1.6177216 1.3114166 -2.9291382 2.9291382 -2.9291382z" fill-rule="evenodd"/><path fill="#0000ff" d="m184.21129 70.08924l0 0c1.6177063 0 2.9291382 1.3114166 2.9291382 2.9291306l0 0c0 0.77685547 -0.308609 1.5218887 -0.8579254 2.0712128c-0.5493164 0.5493164 -1.2943573 0.8579254 -2.0712128 0.8579254l0 0c-1.6177216 0 -2.9291382 -1.3114243 -2.9291382 -2.9291382l0 0c0 -1.6177139 1.3114166 -2.9291306 2.9291382 -2.9291306z" fill-rule="evenodd"/><path fill="#ff00ff" d="m209.70735 68.90026l0 0c1.6177063 0 2.9291382 1.3114166 2.9291382 2.9291382l0 0c0 0.77685547 -0.308609 1.5218887 -0.8579254 2.0712051c-0.54933167 0.54932404 -1.2943573 0.8579254 -2.0712128 0.8579254l0 0c-1.6177216 0 -2.9291382 -1.3114166 -2.9291382 -2.9291306l0 0c0 -1.6177216 1.3114166 -2.9291382 2.9291382 -2.9291382z" fill-rule="evenodd"/><path fill="#93c47d" d="m272.21127 84.24672l0 0c1.6177368 0 2.9291382 1.3114166 2.9291382 2.9291306l0 0c0 0.77685547 -0.30859375 1.5218964 -0.85791016 2.0712128c-0.5493164 0.5493164 -1.2943726 0.8579254 -2.071228 0.8579254l0 0c-1.6177063 0 -2.9291077 -1.3114166 -2.9291077 -2.9291382l0 0c0 -1.6177139 1.3114014 -2.9291306 2.9291077 -2.9291306z" fill-rule="evenodd"/><path fill="#ff9900" d="m285.8058 132.57349l0 0c1.6177063 0 2.9291077 1.3114166 2.9291077 2.9291382l0 0c0 0.77685547 -0.30859375 1.5218964 -0.85791016 2.0712128c-0.5493164 0.5493164 -1.294342 0.8579254 -2.0711975 0.8579254l0 0c-1.6177368 0 -2.9291382 -1.3114166 -2.9291382 -2.9291382l0 0c0 -1.6177216 1.3114014 -2.9291382 2.9291382 -2.9291382z" fill-rule="evenodd"/><path fill="#00ff00" d="m213.80577 156.57349l0 0c1.6177216 0 2.9291382 1.3114166 2.9291382 2.9291382l0 0c0 0.77685547 -0.308609 1.5218964 -0.8579254 2.0712128c-0.5493164 0.5493164 -1.2943573 0.8579254 -2.0712128 0.8579254l0 0c-1.6177063 0 -2.929123 -1.3114166 -2.929123 -2.9291382l0 0c0 -1.6177216 1.3114166 -2.9291382 2.929123 -2.9291382z" fill-rule="evenodd"/><path fill="#4a86e8" d="m197.80577 147.73822l0 0c1.6177216 0 2.9291382 1.3114166 2.9291382 2.9291382l0 0c0 0.77685547 -0.308609 1.5218964 -0.8579254 2.0712128c-0.5493164 0.5493164 -1.2943573 0.8579254 -2.0712128 0.8579254l0 0c-1.6177063 0 -2.929123 -1.3114166 -2.929123 -2.9291382l0 0c0 -1.6177216 1.3114166 -2.9291382 2.929123 -2.9291382z" fill-rule="evenodd"/><path fill="#9900ff" d="m277.8058 148.57349l0 0c1.6177063 0 2.9291077 1.3114166 2.9291077 2.9291382l0 0c0 0.77685547 -0.30859375 1.5218964 -0.85791016 2.0712128c-0.5493164 0.5493164 -1.294342 0.8579254 -2.0711975 0.8579254l0 0c-1.6177368 0 -2.9291382 -1.3114166 -2.9291382 -2.9291382l0 0c0 -1.6177216 1.3114014 -2.9291382 2.9291382 -2.9291382z" fill-rule="evenodd"/><path fill="#cc4125" d="m181.80577 156.57349l0 0c1.6177216 0 2.9291382 1.3114166 2.9291382 2.9291382l0 0c0 0.77685547 -0.308609 1.5218964 -0.8579254 2.0712128c-0.5493164 0.5493164 -1.2943573 0.8579254 -2.0712128 0.8579254l0 0c-1.6177063 0 -2.929123 -1.3114166 -2.929123 -2.9291382l0 0c0 -1.6177216 1.3114166 -2.9291382 2.929123 -2.9291382z" fill-rule="evenodd"/><path fill="#c27ba0" d="m213.80577 132.57349l0 0c1.6177216 0 2.9291382 1.3114166 2.9291382 2.9291382l0 0c0 0.77685547 -0.308609 1.5218964 -0.8579254 2.0712128c-0.5493164 0.5493164 -1.2943573 0.8579254 -2.0712128 0.8579254l0 0c-1.6177063 0 -2.929123 -1.3114166 -2.929123 -2.9291382l0 0c0 -1.6177216 1.3114166 -2.9291382 2.929123 -2.9291382z" fill-rule="evenodd"/><path fill="#ffffff" d="m25.79189 10.523477l44.85039 0l0 152.6614l-44.85039 0z" fill-rule="evenodd"/><path stroke="#000000" stroke-width="1.0" stroke-linejoin="round" stroke-linecap="butt" d="m25.79189 10.523477l44.85039 0l0 152.6614l-44.85039 0z" fill-rule="evenodd"/><path fill="#ff0000" d="m39.508408 30.89883l0 0c0 -1.6177158 1.3114204 -2.9291344 2.9291344 -2.9291344l0 0c0.77685547 0 1.5218925 0.3086052 2.0712128 0.8579235c0.5493164 0.5493183 0.8579216 1.2943554 0.8579216 2.0712109l0 0c0 1.6177139 -1.3114166 2.9291344 -2.9291344 2.9291344l0 0c-1.6177139 0 -2.9291344 -1.3114204 -2.9291344 -2.9291344z" fill-rule="evenodd"/><path fill="#ff9900" d="m47.508408 46.89883l0 0c0 -1.6177177 1.3114204 -2.9291344 2.9291344 -2.9291344l0 0c0.77685547 0 1.5218925 0.3086052 2.0712128 0.8579216c0.5493164 0.5493202 0.8579216 1.2943573 0.8579216 2.0712128l0 0c0 1.6177139 -1.3114166 2.9291344 -2.9291344 2.9291344l0 0c-1.6177139 0 -2.9291344 -1.3114204 -2.9291344 -2.9291344z" fill-rule="evenodd"/><path fill="#ffff00" d="m39.508408 62.89883l0 0c0 -1.6177177 1.3114204 -2.9291344 2.9291344 -2.9291344l0 0c0.77685547 0 1.5218925 0.3086052 2.0712128 0.8579216c0.5493164 0.5493202 0.8579216 1.2943573 0.8579216 2.0712128l0 0c0 1.6177177 -1.3114166 2.9291344 -2.9291344 2.9291344l0 0c-1.6177139 0 -2.9291344 -1.3114166 -2.9291344 -2.9291344z" fill-rule="evenodd"/><path fill="#00ff00" d="m63.508408 62.89883l0 0c0 -1.6177177 1.3114166 -2.9291344 2.9291382 -2.9291344l0 0c0.77684784 0 1.5218887 0.3086052 2.0712051 0.8579216c0.54932404 0.5493202 0.8579254 1.2943573 0.8579254 2.0712128l0 0c0 1.6177177 -1.3114166 2.9291344 -2.9291306 2.9291344l0 0c-1.6177216 0 -2.9291382 -1.3114166 -2.9291382 -2.9291344z" fill-rule="evenodd"/><path fill="#00ffff" d="m63.508408 36.7571l0 0c0 -1.6177177 1.3114166 -2.9291344 2.9291382 -2.9291344l0 0c0.77684784 0 1.5218887 0.30860138 2.0712051 0.8579216c0.54932404 0.5493202 0.8579254 1.2943573 0.8579254 2.0712128l0 0c0 1.6177139 -1.3114166 2.9291306 -2.9291306 2.9291306l0 0c-1.6177216 0 -2.9291382 -1.3114166 -2.9291382 -2.9291306z" fill-rule="evenodd"/><path fill="#4a86e8" d="m54.67314 78.89883l0 0c0 -1.6177139 1.3114166 -2.9291306 2.9291344 -2.9291306l0 0c0.77685547 0 1.5218925 0.30860138 2.071209 0.8579254c0.5493202 0.5493164 0.8579254 1.2943573 0.8579254 2.0712051l0 0c0 1.6177216 -1.3114204 2.9291382 -2.9291344 2.9291382l0 0c-1.6177177 0 -2.9291344 -1.3114166 -2.9291344 -2.9291382z" fill-rule="evenodd"/><path fill="#0000ff" d="m31.50841 46.89883l0 0c0 -1.6177177 1.3114185 -2.9291344 2.9291325 -2.9291344l0 0c0.77685547 0 1.5218925 0.3086052 2.0712128 0.8579216c0.5493164 0.5493202 0.8579216 1.2943573 0.8579216 2.0712128l0 0c0 1.6177139 -1.3114166 2.9291344 -2.9291344 2.9291344l0 0c-1.6177139 0 -2.9291325 -1.3114204 -2.9291325 -2.9291344z" fill-rule="evenodd"/><path fill="#9900ff" d="m47.508408 70.89883l0 0c0 -1.6177139 1.3114204 -2.9291306 2.9291344 -2.9291306l0 0c0.77685547 0 1.5218925 0.30860138 2.0712128 0.8579254c0.5493164 0.5493164 0.8579216 1.2943573 0.8579216 2.0712051l0 0c0 1.6177216 -1.3114166 2.9291382 -2.9291344 2.9291382l0 0c-1.6177139 0 -2.9291344 -1.3114166 -2.9291344 -2.9291382z" fill-rule="evenodd"/><path fill="#ff00ff" d="m31.50841 78.89883l0 0c0 -1.6177139 1.3114185 -2.9291306 2.9291325 -2.9291306l0 0c0.77685547 0 1.5218925 0.30860138 2.0712128 0.8579254c0.5493164 0.5493164 0.8579216 1.2943573 0.8579216 2.0712051l0 0c0 1.6177216 -1.3114166 2.9291382 -2.9291344 2.9291382l0 0c-1.6177139 0 -2.9291325 -1.3114166 -2.9291325 -2.9291382z" fill-rule="evenodd"/><path fill="#cc4125" d="m63.508408 94.89883l0 0c0 -1.6177139 1.3114166 -2.9291306 2.9291382 -2.9291306l0 0c0.77684784 0 1.5218887 0.30860138 2.0712051 0.8579254c0.54932404 0.5493164 0.8579254 1.2943573 0.8579254 2.0712051l0 0c0 1.6177216 -1.3114166 2.9291382 -2.9291306 2.9291382l0 0c-1.6177216 0 -2.9291382 -1.3114166 -2.9291382 -2.9291382z" fill-rule="evenodd"/><path fill="#e06666" d="m39.508408 94.89883l0 0c0 -1.6177139 1.3114204 -2.9291306 2.9291344 -2.9291306l0 0c0.77685547 0 1.5218925 0.30860138 2.0712128 0.8579254c0.5493164 0.5493164 0.8579216 1.2943573 0.8579216 2.0712051l0 0c0 1.6177216 -1.3114166 2.9291382 -2.9291344 2.9291382l0 0c-1.6177139 0 -2.9291344 -1.3114166 -2.9291344 -2.9291382z" fill-rule="evenodd"/><path fill="#f6b26b" d="m31.50841 110.89883l0 0c0 -1.6177139 1.3114185 -2.9291306 2.9291325 -2.9291306l0 0c0.77685547 0 1.5218925 0.30860138 2.0712128 0.8579254c0.5493164 0.5493164 0.8579216 1.2943573 0.8579216 2.0712051l0 0c0 1.6177216 -1.3114166 2.9291382 -2.9291344 2.9291382l0 0c-1.6177139 0 -2.9291325 -1.3114166 -2.9291325 -2.9291382z" fill-rule="evenodd"/><path fill="#ffd966" d="m47.508408 102.89883l0 0c0 -1.6177139 1.3114204 -2.9291306 2.9291344 -2.9291306l0 0c0.77685547 0 1.5218925 0.30860138 2.0712128 0.8579254c0.5493164 0.5493164 0.8579216 1.2943573 0.8579216 2.0712051l0 0c0 1.6177216 -1.3114166 2.9291382 -2.9291344 2.9291382l0 0c-1.6177139 0 -2.9291344 -1.3114166 -2.9291344 -2.9291382z" fill-rule="evenodd"/><path fill="#93c47d" d="m47.508408 134.89883l0 0c0 -1.6177216 1.3114204 -2.9291382 2.9291344 -2.9291382l0 0c0.77685547 0 1.5218925 0.308609 2.0712128 0.8579254c0.5493164 0.5493164 0.8579216 1.2943573 0.8579216 2.0712128l0 0c0 1.6177063 -1.3114166 2.929123 -2.9291344 2.929123l0 0c-1.6177139 0 -2.9291344 -1.3114166 -2.9291344 -2.929123z" fill-rule="evenodd"/><path fill="#76a5af" d="m39.508408 118.89883l0 0c0 -1.6177139 1.3114204 -2.9291306 2.9291344 -2.9291306l0 0c0.77685547 0 1.5218925 0.30860138 2.0712128 0.8579254c0.5493164 0.5493164 0.8579216 1.2943573 0.8579216 2.0712051l0 0c0 1.6177216 -1.3114166 2.9291382 -2.9291344 2.9291382l0 0c-1.6177139 0 -2.9291344 -1.3114166 -2.9291344 -2.9291382z" fill-rule="evenodd"/><path fill="#6d9eeb" d="m55.508408 134.89883l0 0c0 -1.6177216 1.3114204 -2.9291382 2.9291344 -2.9291382l0 0c0.77685547 0 1.5218925 0.308609 2.0712128 0.8579254c0.5493164 0.5493164 0.8579216 1.2943573 0.8579216 2.0712128l0 0c0 1.6177063 -1.3114166 2.929123 -2.9291344 2.929123l0 0c-1.6177139 0 -2.9291344 -1.3114166 -2.9291344 -2.929123z" fill-rule="evenodd"/><path fill="#6fa8dc" d="m55.508408 118.89883l0 0c0 -1.6177139 1.3114204 -2.9291306 2.9291344 -2.9291306l0 0c0.77685547 0 1.5218925 0.30860138 2.0712128 0.8579254c0.5493164 0.5493164 0.8579216 1.2943573 0.8579216 2.0712051l0 0c0 1.6177216 -1.3114166 2.9291382 -2.9291344 2.9291382l0 0c-1.6177139 0 -2.9291344 -1.3114166 -2.9291344 -2.9291382z" fill-rule="evenodd"/><path fill="#8e7cc3" d="m31.50841 142.89883l0 0c0 -1.6177216 1.3114185 -2.9291382 2.9291325 -2.9291382l0 0c0.77685547 0 1.5218925 0.308609 2.0712128 0.8579254c0.5493164 0.5493164 0.8579216 1.2943573 0.8579216 2.0712128l0 0c0 1.6177063 -1.3114166 2.929123 -2.9291344 2.929123l0 0c-1.6177139 0 -2.9291325 -1.3114166 -2.9291325 -2.929123z" fill-rule="evenodd"/><path fill="#c27ba0" d="m55.508408 30.89883l0 0c0 -1.6177158 1.3114204 -2.9291344 2.9291344 -2.9291344l0 0c0.77685547 0 1.5218925 0.3086052 2.0712128 0.8579235c0.5493164 0.5493183 0.8579216 1.2943554 0.8579216 2.0712109l0 0c0 1.6177139 -1.3114166 2.9291344 -2.9291344 2.9291344l0 0c-1.6177139 0 -2.9291344 -1.3114204 -2.9291344 -2.9291344z" fill-rule="evenodd"/><path fill="#c27ba0" d="m47.508408 150.89883l0 0c0 -1.6177216 1.3114204 -2.9291382 2.9291344 -2.9291382l0 0c0.77685547 0 1.5218925 0.308609 2.0712128 0.8579254c0.5493164 0.5493164 0.8579216 1.2943573 0.8579216 2.0712128l0 0c0 1.6177063 -1.3114166 2.929123 -2.9291344 2.929123l0 0c-1.6177139 0 -2.9291344 -1.3114166 -2.9291344 -2.929123z" fill-rule="evenodd"/><path fill="#000000" fill-opacity="0.0" d="m298.7638 31.829397l81.543304 -0.2519703" fill-rule="evenodd"/><path stroke="#000000" stroke-width="1.0" stroke-linejoin="round" stroke-linecap="butt" d="m298.7638 31.829397l75.543335 -0.23343086" fill-rule="evenodd"/><path fill="#000000" stroke="#000000" stroke-width="1.0" stroke-linecap="butt" d="m374.31223 33.247692l4.532959 -1.6657467l-4.5431824 -1.637703z" fill-rule="evenodd"/><path fill="#000000" fill-opacity="0.0" d="m298.7638 87.8294l81.543304 -0.25196838" fill-rule="evenodd"/><path stroke="#000000" stroke-width="1.0" stroke-linejoin="round" stroke-linecap="butt" d="m298.7638 87.8294l75.543335 -0.23343658" fill-rule="evenodd"/><path fill="#000000" stroke="#000000" stroke-width="1.0" stroke-linecap="butt" d="m374.31223 89.247696l4.532959 -1.6657486l-4.5431824 -1.637703z" fill-rule="evenodd"/><path fill="#000000" fill-opacity="0.0" d="m298.7638 143.82939l81.543304 -0.25196838" fill-rule="evenodd"/><path stroke="#000000" stroke-width="1.0" stroke-linejoin="round" stroke-linecap="butt" d="m298.7638 143.82939l75.543335 -0.23342896" fill-rule="evenodd"/><path fill="#000000" stroke="#000000" stroke-width="1.0" stroke-linecap="butt" d="m374.31223 145.2477l4.532959 -1.6657562l-4.5431824 -1.6376953z" fill-rule="evenodd"/><path fill="#000000" fill-opacity="0.0" d="m532.9685 31.566837l55.338562 54.299213" fill-rule="evenodd"/><path stroke="#000000" stroke-width="1.0" stroke-linejoin="round" stroke-linecap="butt" d="m532.9685 31.566837l51.05591 50.09698" fill-rule="evenodd"/><path fill="#000000" stroke="#000000" stroke-width="1.0" stroke-linecap="butt" d="m582.8676 82.84279l4.395996 1.999382l-2.0823364 -4.3573227z" fill-rule="evenodd"/><path fill="#000000" fill-opacity="0.0" d="m532.9685 87.56684l55.338562 -1.7007904" fill-rule="evenodd"/><path stroke="#000000" stroke-width="1.0" stroke-linejoin="round" stroke-linecap="butt" d="m532.9685 87.56683l49.34143 -1.5164642" fill-rule="evenodd"/><path fill="#000000" stroke="#000000" stroke-width="1.0" stroke-linecap="butt" d="m582.36066 87.70132l4.4852295 -1.7903595l-4.586731 -1.5115433z" fill-rule="evenodd"/><path fill="#000000" fill-opacity="0.0" d="m532.9685 143.56683l55.338562 -57.700783" fill-rule="evenodd"/><path stroke="#000000" stroke-width="1.0" stroke-linejoin="round" stroke-linecap="butt" d="m532.9685 143.56683l51.185486 -53.370438" fill-rule="evenodd"/><path fill="#000000" stroke="#000000" stroke-width="1.0" stroke-linecap="butt" d="m585.3461 91.3397l1.9490356 -4.418556l-4.333252 2.1319656z" fill-rule="evenodd"/><path fill="#000000" fill-opacity="0.0" d="m698.5748 85.874016l34.236206 0" fill-rule="evenodd"/><path stroke="#000000" stroke-width="1.0" stroke-linejoin="round" stroke-linecap="butt" d="m698.5748 85.874016l28.236206 0" fill-rule="evenodd"/><path fill="#000000" stroke="#000000" stroke-width="1.0" stroke-linecap="butt" d="m726.81104 87.52575l4.538086 -1.6517334l-4.538086 -1.6517334z" fill-rule="evenodd"/><path fill="#ffd966" d="m732.1417 69.874176l0 0c0 -4.4183655 3.581787 -8.00016 8.000183 -8.00016l101.511475 0c2.1217651 0 4.1566772 0.8428726 5.6569824 2.343193c1.5003052 1.5003204 2.3432007 3.5351944 2.3432007 5.656967l0 31.99968c0 4.4183655 -3.581787 8.00016 -8.000183 8.00016l-101.511475 0l0 0c-4.418396 0 -8.000183 -3.5817947 -8.000183 -8.00016z" fill-rule="evenodd"/><path stroke="#000000" stroke-width="1.0" stroke-linejoin="round" stroke-linecap="butt" d="m732.1417 69.874176l0 0c0 -4.4183655 3.581787 -8.00016 8.000183 -8.00016l101.511475 0c2.1217651 0 4.1566772 0.8428726 5.6569824 2.343193c1.5003052 1.5003204 2.3432007 3.5351944 2.3432007 5.656967l0 31.99968c0 4.4183655 -3.581787 8.00016 -8.000183 8.00016l-101.511475 0l0 0c-4.418396 0 -8.000183 -3.5817947 -8.000183 -8.00016z" fill-rule="evenodd"/><path fill="#000000" d="m750.85504 92.794014l0 -13.359375l5.046875 0q1.328125 0 2.03125 0.125q0.96875 0.171875 1.640625 0.640625q0.671875 0.453125 1.078125 1.28125q0.40625 0.828125 0.40625 1.828125q0 1.703125 -1.09375 2.890625q-1.078125 1.171875 -3.921875 1.171875l-3.421875 0l0 5.421875l-1.765625 0zm1.765625 -7.0l3.453125 0q1.71875 0 2.4375 -0.640625q0.71875 -0.640625 0.71875 -1.796875q0 -0.84375 -0.421875 -1.4375q-0.421875 -0.59375 -1.125 -0.78125q-0.4375 -0.125 -1.640625 -0.125l-3.421875 0l0 4.78125zm10.4592285 7.0l0 -9.671875l1.46875 0l0 1.46875q0.5625 -1.03125 1.03125 -1.359375q0.484375 -0.328125 1.0625 -0.328125q0.828125 0 1.6875 0.53125l-0.5625 1.515625q-0.609375 -0.359375 -1.203125 -0.359375q-0.546875 0 -0.96875 0.328125q-0.421875 0.328125 -0.609375 0.890625q-0.28125 0.875 -0.28125 1.921875l0 5.0625l-1.625 0zm12.8532715 -3.109375l1.6875 0.203125q-0.40625 1.484375 -1.484375 2.3125q-1.078125 0.8125 -2.765625 0.8125q-2.125 0 -3.375 -1.296875q-1.234375 -1.3125 -1.234375 -3.671875q0 -2.453125 1.25 -3.796875q1.265625 -1.34375 3.265625 -1.34375q1.9375 0 3.15625 1.328125q1.234375 1.3125 1.234375 3.703125q0 0.15625 0 0.4375l-7.21875 0q0.09375 1.59375 0.90625 2.453125q0.8125 0.84375 2.015625 0.84375q0.90625 0 1.546875 -0.46875q0.640625 -0.484375 1.015625 -1.515625zm-5.390625 -2.65625l5.40625 0q-0.109375 -1.21875 -0.625 -1.828125q-0.78125 -0.953125 -2.03125 -0.953125q-1.125 0 -1.90625 0.765625q-0.765625 0.75 -0.84375 2.015625zm15.406982 5.765625l0 -1.21875q-0.90625 1.4375 -2.703125 1.4375q-1.15625 0 -2.125 -0.640625q-0.96875 -0.640625 -1.5 -1.78125q-0.53125 -1.140625 -0.53125 -2.625q0 -1.453125 0.484375 -2.625q0.484375 -1.1875 1.4375 -1.8125q0.96875 -0.625 2.171875 -0.625q0.875 0 1.546875 0.375q0.6875 0.359375 1.109375 0.953125l0 -4.796875l1.640625 0l0 13.359375l-1.53125 0zm-5.171875 -4.828125q0 1.859375 0.78125 2.78125q0.78125 0.921875 1.84375 0.921875q1.078125 0 1.828125 -0.875q0.75 -0.890625 0.75 -2.6875q0 -1.984375 -0.765625 -2.90625q-0.765625 -0.9375 -1.890625 -0.9375q-1.078125 0 -1.8125 0.890625q-0.734375 0.890625 -0.734375 2.8125zm9.281982 -6.640625l0 -1.890625l1.640625 0l0 1.890625l-1.640625 0zm0 11.46875l0 -9.671875l1.640625 0l0 9.671875l-1.640625 0zm10.457275 -3.546875l1.609375 0.21875q-0.265625 1.65625 -1.359375 2.609375q-1.078125 0.9375 -2.671875 0.9375q-1.984375 0 -3.1875 -1.296875q-1.203125 -1.296875 -1.203125 -3.71875q0 -1.578125 0.515625 -2.75q0.515625 -1.171875 1.578125 -1.75q1.0625 -0.59375 2.3125 -0.59375q1.578125 0 2.578125 0.796875q1.0 0.796875 1.28125 2.265625l-1.59375 0.234375q-0.234375 -0.96875 -0.8125 -1.453125q-0.578125 -0.5 -1.390625 -0.5q-1.234375 0 -2.015625 0.890625q-0.78125 0.890625 -0.78125 2.8125q0 1.953125 0.75 2.84375q0.75 0.875 1.953125 0.875q0.96875 0 1.609375 -0.59375q0.65625 -0.59375 0.828125 -1.828125zm6.59375 2.078125l0.234375 1.453125q-0.6875 0.140625 -1.234375 0.140625q-0.890625 0 -1.390625 -0.28125q-0.484375 -0.28125 -0.6875 -0.734375q-0.203125 -0.46875 -0.203125 -1.9375l0 -5.578125l-1.203125 0l0 -1.265625l1.203125 0l0 -2.390625l1.625 -0.984375l0 3.375l1.65625 0l0 1.265625l-1.65625 0l0 5.671875q0 0.6875 0.078125 0.890625q0.09375 0.203125 0.28125 0.328125q0.203125 0.109375 0.578125 0.109375q0.265625 0 0.71875 -0.0625zm1.6052246 -10.0l0 -1.890625l1.640625 0l0 1.890625l-1.640625 0zm0 11.46875l0 -9.671875l1.640625 0l0 9.671875l-1.640625 0zm3.5354004 -4.84375q0 -2.6875 1.484375 -3.96875q1.25 -1.078125 3.046875 -1.078125q2.0 0 3.265625 1.3125q1.265625 1.296875 1.265625 3.609375q0 1.859375 -0.5625 2.9375q-0.5625 1.0625 -1.640625 1.65625q-1.0625 0.59375 -2.328125 0.59375q-2.03125 0 -3.28125 -1.296875q-1.25 -1.3125 -1.25 -3.765625zm1.6875 0q0 1.859375 0.796875 2.796875q0.8125 0.921875 2.046875 0.921875q1.21875 0 2.03125 -0.921875q0.8125 -0.9375 0.8125 -2.84375q0 -1.796875 -0.8125 -2.71875q-0.8125 -0.921875 -2.03125 -0.921875q-1.234375 0 -2.046875 0.921875q-0.796875 0.90625 -0.796875 2.765625zm9.297607 4.84375l0 -9.671875l1.46875 0l0 1.375q1.0625 -1.59375 3.078125 -1.59375q0.875 0 1.609375 0.3125q0.734375 0.3125 1.09375 0.828125q0.375 0.5 0.515625 1.203125q0.09375 0.453125 0.09375 1.59375l0 5.953125l-1.640625 0l0 -5.890625q0 -1.0 -0.203125 -1.484375q-0.1875 -0.5 -0.671875 -0.796875q-0.484375 -0.296875 -1.140625 -0.296875q-1.046875 0 -1.8125 0.671875q-0.75 0.65625 -0.75 2.515625l0 5.28125l-1.640625 0z" fill-rule="nonzero"/><path fill="#000000" fill-opacity="0.0" d="m149.21523 32.44357l-77.19685 0" fill-rule="evenodd"/><path stroke="#000000" stroke-width="1.0" stroke-linejoin="round" stroke-linecap="butt" d="m143.21523 32.44357l-71.19685 0" fill-rule="evenodd"/><path fill="#000000" stroke="#000000" stroke-width="1.0" stroke-linecap="butt" d="m143.21523 34.095303l4.538101 -1.6517334l-4.538101 -1.6517315z" fill-rule="evenodd"/><path fill="#000000" fill-opacity="0.0" d="m149.21523 88.44357l-77.19685 0" fill-rule="evenodd"/><path stroke="#000000" stroke-width="1.0" stroke-linejoin="round" stroke-linecap="butt" d="m143.21523 88.44357l-71.19685 0" fill-rule="evenodd"/><path fill="#000000" stroke="#000000" stroke-width="1.0" stroke-linecap="butt" d="m143.21523 90.0953l4.538101 -1.6517258l-4.538101 -1.6517334z" fill-rule="evenodd"/><path fill="#000000" fill-opacity="0.0" d="m149.21523 144.44357l-77.19685 0" fill-rule="evenodd"/><path stroke="#000000" stroke-width="1.0" stroke-linejoin="round" stroke-linecap="butt" d="m143.21523 144.44357l-71.19685 0" fill-rule="evenodd"/><path fill="#000000" stroke="#000000" stroke-width="1.0" stroke-linecap="butt" d="m143.21523 146.0953l4.538101 -1.6517334l-4.538101 -1.6517334z" fill-rule="evenodd"/></g></svg>