<svg version="1.1" viewBox="0.0 0.0 579.6745406824147 190.44094488188978" fill="none" stroke="none" stroke-linecap="square" stroke-miterlimit="10" xmlns:xlink="http://www.w3.org/1999/xlink" xmlns="http://www.w3.org/2000/svg"><clipPath id="p.0"><path d="m0 0l579.67456 0l0 190.44095l-579.67456 0l0 -190.44095z" clip-rule="nonzero"/></clipPath><g clip-path="url(#p.0)"><path fill="#000000" fill-opacity="0.0" d="m0 0l579.67456 0l0 190.44095l-579.67456 0z" fill-rule="evenodd"/><path fill="#ffffff" d="m173.82939 13.208516l0 44.850395l-152.6614 0l0 -44.850395z" fill-rule="evenodd"/><path stroke="#000000" stroke-width="1.0" stroke-linejoin="round" stroke-linecap="butt" d="m173.82939 13.208516l0 44.850395l-152.6614 0l0 -44.850395z" fill-rule="evenodd"/><path fill="#ff0000" d="m153.45404 26.925035l0 0c1.6177216 0 2.9291382 1.3114166 2.9291382 2.9291325l0 0c0 0.77685547 -0.308609 1.5218925 -0.8579254 2.0712109c-0.5493164 0.5493183 -1.2943573 0.8579235 -2.0712128 0.8579235l0 0c-1.6177063 0 -2.9291382 -1.3114185 -2.9291382 -2.9291344l0 0c0 -1.6177158 1.3114319 -2.9291325 2.9291382 -2.9291325z" fill-rule="evenodd"/><path fill="#ff9900" d="m137.45404 34.925034l0 0c1.6177216 0 2.9291382 1.3114204 2.9291382 2.9291344l0 0c0 0.77685547 -0.308609 1.5218925 -0.8579254 2.0712128c-0.5493164 0.5493164 -1.2943573 0.8579216 -2.0712128 0.8579216l0 0c-1.6177063 0 -2.9291382 -1.3114166 -2.9291382 -2.9291344l0 0c0 -1.6177139 1.3114319 -2.9291344 2.9291382 -2.9291344z" fill-rule="evenodd"/><path fill="#ffff00" d="m121.45404 26.925035l0 0c1.6177216 0 2.9291382 1.3114166 2.9291382 2.9291325l0 0c0 0.77685547 -0.308609 1.5218925 -0.8579254 2.0712109c-0.5493164 0.5493183 -1.2943573 0.8579235 -2.0712128 0.8579235l0 0c-1.6177139 0 -2.9291306 -1.3114185 -2.9291306 -2.9291344l0 0c0 -1.6177158 1.3114166 -2.9291325 2.9291306 -2.9291325z" fill-rule="evenodd"/><path fill="#00ff00" d="m121.45404 50.925034l0 0c1.6177216 0 2.9291382 1.3114204 2.9291382 2.9291344l0 0c0 0.77685547 -0.308609 1.5218925 -0.8579254 2.0712128c-0.5493164 0.5493164 -1.2943573 0.8579216 -2.0712128 0.8579216l0 0c-1.6177139 0 -2.9291306 -1.3114166 -2.9291306 -2.9291344l0 0c0 -1.6177139 1.3114166 -2.9291344 2.9291306 -2.9291344z" fill-rule="evenodd"/><path fill="#00ffff" d="m147.59578 50.925034l0 0c1.6177063 0 2.929123 1.3114204 2.929123 2.9291344l0 0c0 0.77685547 -0.30859375 1.5218925 -0.85791016 2.0712128c-0.54933167 0.5493164 -1.2943573 0.8579216 -2.0712128 0.8579216l0 0c-1.6177216 0 -2.9291382 -1.3114166 -2.9291382 -2.9291344l0 0c0 -1.6177139 1.3114166 -2.9291344 2.9291382 -2.9291344z" fill-rule="evenodd"/><path fill="#4a86e8" d="m105.45404 42.089767l0 0c1.6177216 0 2.9291382 1.3114166 2.9291382 2.9291344l0 0c0 0.77685547 -0.308609 1.5218925 -0.8579254 2.071209c-0.5493164 0.5493202 -1.2943573 0.8579254 -2.0712128 0.8579254l0 0c-1.6177139 0 -2.9291306 -1.3114204 -2.9291306 -2.9291344l0 0c0 -1.6177177 1.3114166 -2.9291344 2.9291306 -2.9291344z" fill-rule="evenodd"/><path fill="#0000ff" d="m137.45404 18.925035l0 0c1.6177216 0 2.9291382 1.3114166 2.9291382 2.9291325l0 0c0 0.77685547 -0.308609 1.5218925 -0.8579254 2.0712109c-0.5493164 0.5493202 -1.2943573 0.8579235 -2.0712128 0.8579235l0 0c-1.6177063 0 -2.9291382 -1.3114185 -2.9291382 -2.9291344l0 0c0 -1.6177158 1.3114319 -2.9291325 2.9291382 -2.9291325z" fill-rule="evenodd"/><path fill="#9900ff" d="m113.45404 34.925034l0 0c1.6177216 0 2.9291382 1.3114204 2.9291382 2.9291344l0 0c0 0.77685547 -0.308609 1.5218925 -0.8579254 2.0712128c-0.5493164 0.5493164 -1.2943573 0.8579216 -2.0712128 0.8579216l0 0c-1.6177139 0 -2.9291306 -1.3114166 -2.9291306 -2.9291344l0 0c0 -1.6177139 1.3114166 -2.9291344 2.9291306 -2.9291344z" fill-rule="evenodd"/><path fill="#ff00ff" d="m105.45404 18.925035l0 0c1.6177216 0 2.9291382 1.3114166 2.9291382 2.9291325l0 0c0 0.77685547 -0.308609 1.5218925 -0.8579254 2.0712109c-0.5493164 0.5493202 -1.2943573 0.8579235 -2.0712128 0.8579235l0 0c-1.6177139 0 -2.9291306 -1.3114185 -2.9291306 -2.9291344l0 0c0 -1.6177158 1.3114166 -2.9291325 2.9291306 -2.9291325z" fill-rule="evenodd"/><path fill="#cc4125" d="m89.45404 50.925034l0 0c1.6177216 0 2.9291382 1.3114204 2.9291382 2.9291344l0 0c0 0.77685547 -0.308609 1.5218925 -0.8579254 2.0712128c-0.5493164 0.5493164 -1.2943573 0.8579216 -2.0712128 0.8579216l0 0c-1.6177139 0 -2.9291306 -1.3114166 -2.9291306 -2.9291344l0 0c0 -1.6177139 1.3114166 -2.9291344 2.9291306 -2.9291344z" fill-rule="evenodd"/><path fill="#e06666" d="m89.45404 26.925035l0 0c1.6177216 0 2.9291382 1.3114166 2.9291382 2.9291325l0 0c0 0.77685547 -0.308609 1.5218925 -0.8579254 2.0712109c-0.5493164 0.5493183 -1.2943573 0.8579235 -2.0712128 0.8579235l0 0c-1.6177139 0 -2.9291306 -1.3114185 -2.9291306 -2.9291344l0 0c0 -1.6177158 1.3114166 -2.9291325 2.9291306 -2.9291325z" fill-rule="evenodd"/><path fill="#f6b26b" d="m73.45404 18.925035l0 0c1.6177216 0 2.9291382 1.3114166 2.9291382 2.9291325l0 0c0 0.77685547 -0.308609 1.5218925 -0.8579254 2.0712109c-0.5493164 0.5493202 -1.2943573 0.8579235 -2.0712128 0.8579235l0 0c-1.6177139 0 -2.9291306 -1.3114185 -2.9291306 -2.9291344l0 0c0 -1.6177158 1.3114166 -2.9291325 2.9291306 -2.9291325z" fill-rule="evenodd"/><path fill="#ffd966" d="m81.45404 34.925034l0 0c1.6177216 0 2.9291382 1.3114204 2.9291382 2.9291344l0 0c0 0.77685547 -0.308609 1.5218925 -0.8579254 2.0712128c-0.5493164 0.5493164 -1.2943573 0.8579216 -2.0712128 0.8579216l0 0c-1.6177139 0 -2.9291306 -1.3114166 -2.9291306 -2.9291344l0 0c0 -1.6177139 1.3114166 -2.9291344 2.9291306 -2.9291344z" fill-rule="evenodd"/><path fill="#93c47d" d="m49.454044 34.925034l0 0c1.6177139 0 2.9291344 1.3114204 2.9291344 2.9291344l0 0c0 0.77685547 -0.3086052 1.5218925 -0.8579254 2.0712128c-0.5493202 0.5493164 -1.2943573 0.8579216 -2.071209 0.8579216l0 0c-1.6177177 0 -2.9291344 -1.3114166 -2.9291344 -2.9291344l0 0c0 -1.6177139 1.3114166 -2.9291344 2.9291344 -2.9291344z" fill-rule="evenodd"/><path fill="#76a5af" d="m65.45404 26.925035l0 0c1.6177216 0 2.9291382 1.3114166 2.9291382 2.9291325l0 0c0 0.77685547 -0.308609 1.5218925 -0.8579254 2.0712109c-0.5493164 0.5493183 -1.2943573 0.8579235 -2.0712128 0.8579235l0 0c-1.6177139 0 -2.9291306 -1.3114185 -2.9291306 -2.9291344l0 0c0 -1.6177158 1.3114166 -2.9291325 2.9291306 -2.9291325z" fill-rule="evenodd"/><path fill="#6d9eeb" d="m49.454044 42.925034l0 0c1.6177139 0 2.9291344 1.3114204 2.9291344 2.9291344l0 0c0 0.77685547 -0.3086052 1.5218925 -0.8579254 2.0712128c-0.5493202 0.5493164 -1.2943573 0.8579216 -2.071209 0.8579216l0 0c-1.6177177 0 -2.9291344 -1.3114166 -2.9291344 -2.9291344l0 0c0 -1.6177139 1.3114166 -2.9291344 2.9291344 -2.9291344z" fill-rule="evenodd"/><path fill="#6fa8dc" d="m65.45404 42.925034l0 0c1.6177216 0 2.9291382 1.3114204 2.9291382 2.9291344l0 0c0 0.77685547 -0.308609 1.5218925 -0.8579254 2.0712128c-0.5493164 0.5493164 -1.2943573 0.8579216 -2.0712128 0.8579216l0 0c-1.6177139 0 -2.9291306 -1.3114166 -2.9291306 -2.9291344l0 0c0 -1.6177139 1.3114166 -2.9291344 2.9291306 -2.9291344z" fill-rule="evenodd"/><path fill="#8e7cc3" d="m41.454044 18.925035l0 0c1.6177139 0 2.9291344 1.3114166 2.9291344 2.9291325l0 0c0 0.77685547 -0.3086052 1.5218925 -0.8579254 2.0712109c-0.5493202 0.5493202 -1.2943573 0.8579235 -2.071209 0.8579235l0 0c-1.6177177 0 -2.9291344 -1.3114185 -2.9291344 -2.9291344l0 0c0 -1.6177158 1.3114166 -2.9291325 2.9291344 -2.9291325z" fill-rule="evenodd"/><path fill="#c27ba0" d="m153.45404 42.925034l0 0c1.6177216 0 2.9291382 1.3114204 2.9291382 2.9291344l0 0c0 0.77685547 -0.308609 1.5218925 -0.8579254 2.0712128c-0.5493164 0.5493164 -1.2943573 0.8579216 -2.0712128 0.8579216l0 0c-1.6177063 0 -2.9291382 -1.3114166 -2.9291382 -2.9291344l0 0c0 -1.6177139 1.3114319 -2.9291344 2.9291382 -2.9291344z" fill-rule="evenodd"/><path fill="#c27ba0" d="m33.454044 34.925034l0 0c1.6177139 0 2.9291344 1.3114204 2.9291344 2.9291344l0 0c0 0.77685547 -0.3086052 1.5218925 -0.8579254 2.0712128c-0.5493202 0.5493164 -1.2943573 0.8579216 -2.071209 0.8579216l0 0c-1.6177177 0 -2.9291344 -1.3114166 -2.9291344 -2.9291344l0 0c0 -1.6177139 1.3114166 -2.9291344 2.9291344 -2.9291344z" fill-rule="evenodd"/><path fill="#d9ead3" d="m223.92126 14.262376l152.6614 0l0 42.614174l-152.6614 0z" fill-rule="evenodd"/><path stroke="#38761d" stroke-width="1.0" stroke-linejoin="round" stroke-linecap="butt" d="m223.92126 14.262376l152.6614 0l0 42.614174l-152.6614 0z" fill-rule="evenodd"/><path fill="#000000" d="m261.432 37.661335q0.125 0.21875 0.21875 0.46875q0.109375 0.25 0.203125 0.5q0.09375 -0.265625 0.1875 -0.5q0.109375 -0.234375 0.234375 -0.484375l4.53125 -8.218748q0.109375 -0.21875 0.234375 -0.265625q0.140625 -0.046875 0.390625 -0.046875l1.328125 0l0 13.374998l-1.578125 0l0 -9.828125q0 -0.1875 0 -0.40625q0.015625 -0.234375 0.03125 -0.4687481l-4.578125 8.359373q-0.234375 0.421875 -0.65625 0.421875l-0.265625 0q-0.421875 0 -0.65625 -0.421875l-4.671875 -8.390623q0.03125 0.2499981 0.03125 0.4843731q0.015625 0.234375 0.015625 0.421875l0 9.828125l-1.5781403 0l0 -13.374998l1.3281403 0q0.25 0 0.375 0.046875q0.125 0.046875 0.25 0.265625l4.625 8.234373l0 0zm14.148132 -4.765625q1.03125 0 1.859375 0.34375q0.84375 0.34375 1.421875 0.984375q0.59375 0.625 0.90625 1.53125q0.3125 0.890625 0.3125 2.0q0 1.125 -0.3125 2.03125q-0.3125 0.890625 -0.90625 1.53125q-0.578125 0.625 -1.421875 0.96875q-0.828125 0.328125 -1.859375 0.328125q-1.03125 0 -1.875 -0.328125q-0.828125 -0.34375 -1.421875 -0.96875q-0.578125 -0.640625 -0.90625 -1.53125q-0.3125 -0.90625 -0.3125 -2.03125q0 -1.109375 0.3125 -2.0q0.328125 -0.90625 0.90625 -1.53125q0.59375 -0.640625 1.421875 -0.984375q0.84375 -0.34375 1.875 -0.34375zm0 8.421875q1.390625 0 2.078125 -0.9375q0.703125 -0.9375 0.703125 -2.609375q0 -1.6875 -0.703125 -2.625q-0.6875 -0.953125 -2.078125 -0.953125q-0.703125 0 -1.234375 0.25q-0.515625 0.234375 -0.875 0.703125q-0.34375 0.453125 -0.515625 1.125q-0.171875 0.65625 -0.171875 1.5q0 0.84375 0.171875 1.5q0.171875 0.65625 0.515625 1.109375q0.359375 0.453125 0.875 0.703125q0.53125 0.234375 1.234375 0.234375zm13.200989 1.171875q-0.359375 0 -0.453125 -0.34375l-0.140625 -1.15625q-0.609375 0.75 -1.390625 1.1875q-0.78125 0.4375 -1.78125 0.4375q-0.8125 0 -1.484375 -0.3125q-0.65625 -0.3125 -1.125 -0.90625q-0.46875 -0.609375 -0.71875 -1.515625q-0.25 -0.90625 -0.25 -2.078125q0 -1.046875 0.28125 -1.9375q0.28125 -0.90625 0.796875 -1.5625q0.53125 -0.671875 1.28125 -1.046875q0.765625 -0.390625 1.71875 -0.390625q0.875 0 1.484375 0.296875q0.625 0.296875 1.109375 0.828125l0 -5.234373l1.65625 0l0 13.734373l-0.984375 0zm-3.21875 -1.21875q0.8125 0 1.421875 -0.359375q0.609375 -0.375 1.125 -1.0625l0 -4.5625q-0.453125 -0.625 -1.0 -0.875q-0.546875 -0.25 -1.21875 -0.25q-1.3125 0 -2.03125 0.953125q-0.703125 0.9375 -0.703125 2.6875q0 0.921875 0.15625 1.578125q0.15625 0.65625 0.46875 1.078125q0.3125 0.421875 0.75 0.625q0.453125 0.1875 1.03125 0.1875zm10.741364 -8.375q0.84375 0 1.5625 0.28125q0.71875 0.28125 1.234375 0.828125q0.53125 0.53125 0.8125 1.328125q0.296875 0.78125 0.296875 1.78125q0 0.390625 -0.078125 0.53125q-0.078125 0.125 -0.3125 0.125l-6.296875 0q0.015625 0.890625 0.234375 1.5625q0.234375 0.65625 0.625 1.109375q0.390625 0.4375 0.9375 0.65625q0.546875 0.21875 1.203125 0.21875q0.625 0 1.078125 -0.140625q0.453125 -0.15625 0.78125 -0.3125q0.328125 -0.171875 0.546875 -0.3125q0.21875 -0.15625 0.375 -0.15625q0.21875 0 0.328125 0.15625l0.46875 0.609375q-0.3125 0.375 -0.75 0.65625q-0.421875 0.265625 -0.921875 0.453125q-0.484375 0.171875 -1.015625 0.25q-0.515625 0.09375 -1.015625 0.09375q-0.984375 0 -1.8125 -0.328125q-0.828125 -0.328125 -1.4375 -0.96875q-0.59375 -0.640625 -0.9375 -1.578125q-0.328125 -0.9375 -0.328125 -2.171875q0 -0.984375 0.296875 -1.84375q0.3125 -0.859375 0.875 -1.484375q0.578125 -0.625 1.390625 -0.984375q0.828125 -0.359375 1.859375 -0.359375zm0.03125 1.21875q-1.203125 0 -1.890625 0.703125q-0.6875 0.6875 -0.859375 1.921875l5.140625 0q0 -0.578125 -0.171875 -1.0625q-0.15625 -0.484375 -0.46875 -0.828125q-0.296875 -0.359375 -0.75 -0.546875q-0.4375 -0.1875 -1.0 -0.1875zm7.838379 -5.359373l0 13.734373l-1.65625 0l0 -13.734373l1.65625 0zm17.798523 13.734373l-1.40625 0q-0.234375 0 -0.390625 -0.125q-0.140625 -0.125 -0.21875 -0.296875l-1.25 -3.234375l-6.0 0l-1.25 3.234375q-0.0625 0.15625 -0.234375 0.296875q-0.15625 0.125 -0.375 0.125l-1.40625 0l5.34375 -13.374998l1.84375 0l5.34375 13.374998zm-8.765625 -4.96875l5.0 0l-2.109375 -5.4375q-0.203125 -0.4999981 -0.390625 -1.2499981q-0.109375 0.375 -0.21875 0.703125q-0.09375 0.3125 -0.1875 0.5624981l-2.09375 5.421875zm19.802551 1.015625l-0.796875 3.953125l-0.75 0q-0.21875 0 -0.375 -0.15625q-0.140625 -0.15625 -0.140625 -0.40625q0 -0.046875 0 -0.078125q0.015625 -0.03125 0.015625 -0.078125l0.671875 -3.234375l-2.3125 0l-0.65625 3.3125q-0.078125 0.34375 -0.296875 0.5q-0.203125 0.140625 -0.46875 0.140625l-0.734375 0l0.796875 -3.953125l-1.375 0q-0.203125 0 -0.328125 -0.09375q-0.125 -0.109375 -0.125 -0.375q0 -0.046875 0 -0.09375q0.015625 -0.0625 0.015625 -0.125l0.078125 -0.53125l1.90625 0l0.609375 -3.03125l-2.171875 0l0.125 -0.703125q0.046875 -0.265625 0.21875 -0.390625q0.171875 -0.140625 0.53125 -0.140625l1.46875 0l0.671875 -3.328123q0.0625 -0.28125 0.25 -0.4375q0.203125 -0.171875 0.484375 -0.171875l0.75 0l-0.78125 3.937498l2.296875 0l0.796875 -3.937498l0.734375 0q0.234375 0 0.375 0.140625q0.15625 0.140625 0.15625 0.375q0 0.078125 0 0.109375l-0.6875 3.312498l1.984375 0l-0.125 0.703125q-0.046875 0.28125 -0.21875 0.40625q-0.171875 0.125 -0.53125 0.125l-1.28125 0l-0.609375 3.03125l1.671875 0q0.21875 0 0.34375 0.109375q0.125 0.109375 0.125 0.375q0 0.046875 -0.015625 0.109375q0 0.046875 -0.015625 0.09375l-0.078125 0.53125l-2.203125 0zm-3.5 -1.21875l2.296875 0l0.609375 -3.03125l-2.296875 0l-0.609375 3.03125zm9.617493 3.90625l2.875 0l0 -9.109375q0 -0.4218731 0.03125 -0.8437481l-2.390625 2.046873q-0.09375 0.078125 -0.1875 0.109375q-0.09375 0.03125 -0.171875 0.03125q-0.140625 0 -0.25 -0.0625q-0.109375 -0.0625 -0.171875 -0.140625l-0.515625 -0.71875l3.96875 -3.437498l1.34375 0l0 12.124998l2.640625 0l0 1.265625l-7.171875 0l0 -1.265625z" fill-rule="nonzero"/><path fill="#d9ead3" d="m223.92126 70.262375l152.6614 0l0 42.614174l-152.6614 0z" fill-rule="evenodd"/><path stroke="#38761d" stroke-width="1.0" stroke-linejoin="round" stroke-linecap="butt" d="m223.92126 70.262375l152.6614 0l0 42.614174l-152.6614 0z" fill-rule="evenodd"/><path fill="#000000" d="m261.432 93.66134q0.125 0.21875 0.21875 0.46875q0.109375 0.25 0.203125 0.5q0.09375 -0.265625 0.1875 -0.5q0.109375 -0.234375 0.234375 -0.484375l4.53125 -8.21875q0.109375 -0.21875 0.234375 -0.265625q0.140625 -0.046875 0.390625 -0.046875l1.328125 0l0 13.375l-1.578125 0l0 -9.828125q0 -0.1875 0 -0.40625q0.015625 -0.234375 0.03125 -0.46875l-4.578125 8.359375q-0.234375 0.421875 -0.65625 0.421875l-0.265625 0q-0.421875 0 -0.65625 -0.421875l-4.671875 -8.390625q0.03125 0.25 0.03125 0.484375q0.015625 0.234375 0.015625 0.421875l0 9.828125l-1.5781403 0l0 -13.375l1.3281403 0q0.25 0 0.375 0.046875q0.125 0.046875 0.25 0.265625l4.625 8.234375l0 0zm14.148132 -4.765625q1.03125 0 1.859375 0.34375q0.84375 0.34375 1.421875 0.984375q0.59375 0.625 0.90625 1.53125q0.3125 0.890625 0.3125 2.0q0 1.125 -0.3125 2.03125q-0.3125 0.890625 -0.90625 1.53125q-0.578125 0.625 -1.421875 0.96875q-0.828125 0.328125 -1.859375 0.328125q-1.03125 0 -1.875 -0.328125q-0.828125 -0.34375 -1.421875 -0.96875q-0.578125 -0.640625 -0.90625 -1.53125q-0.3125 -0.90625 -0.3125 -2.03125q0 -1.109375 0.3125 -2.0q0.328125 -0.90625 0.90625 -1.53125q0.59375 -0.640625 1.421875 -0.984375q0.84375 -0.34375 1.875 -0.34375zm0 8.421875q1.390625 0 2.078125 -0.9375q0.703125 -0.9375 0.703125 -2.609375q0 -1.6875 -0.703125 -2.625q-0.6875 -0.953125 -2.078125 -0.953125q-0.703125 0 -1.234375 0.25q-0.515625 0.234375 -0.875 0.703125q-0.34375 0.453125 -0.515625 1.125q-0.171875 0.65625 -0.171875 1.5q0 0.84375 0.171875 1.5q0.171875 0.65625 0.515625 1.109375q0.359375 0.453125 0.875 0.703125q0.53125 0.234375 1.234375 0.234375zm13.200989 1.171875q-0.359375 0 -0.453125 -0.34375l-0.140625 -1.15625q-0.609375 0.75 -1.390625 1.1875q-0.78125 0.4375 -1.78125 0.4375q-0.8125 0 -1.484375 -0.3125q-0.65625 -0.3125 -1.125 -0.90625q-0.46875 -0.609375 -0.71875 -1.515625q-0.25 -0.90625 -0.25 -2.078125q0 -1.046875 0.28125 -1.9375q0.28125 -0.90625 0.796875 -1.5625q0.53125 -0.671875 1.28125 -1.046875q0.765625 -0.390625 1.71875 -0.390625q0.875 0 1.484375 0.296875q0.625 0.296875 1.109375 0.828125l0 -5.234375l1.65625 0l0 13.734375l-0.984375 0zm-3.21875 -1.21875q0.8125 0 1.421875 -0.359375q0.609375 -0.375 1.125 -1.0625l0 -4.5625q-0.453125 -0.625 -1.0 -0.875q-0.546875 -0.25 -1.21875 -0.25q-1.3125 0 -2.03125 0.953125q-0.703125 0.9375 -0.703125 2.6875q0 0.921875 0.15625 1.578125q0.15625 0.65625 0.46875 1.078125q0.3125 0.421875 0.75 0.625q0.453125 0.1875 1.03125 0.1875zm10.741364 -8.375q0.84375 0 1.5625 0.28125q0.71875 0.28125 1.234375 0.828125q0.53125 0.53125 0.8125 1.328125q0.296875 0.78125 0.296875 1.78125q0 0.390625 -0.078125 0.53125q-0.078125 0.125 -0.3125 0.125l-6.296875 0q0.015625 0.890625 0.234375 1.5625q0.234375 0.65625 0.625 1.109375q0.390625 0.4375 0.9375 0.65625q0.546875 0.21875 1.203125 0.21875q0.625 0 1.078125 -0.140625q0.453125 -0.15625 0.78125 -0.3125q0.328125 -0.171875 0.546875 -0.3125q0.21875 -0.15625 0.375 -0.15625q0.21875 0 0.328125 0.15625l0.46875 0.609375q-0.3125 0.375 -0.75 0.65625q-0.421875 0.265625 -0.921875 0.453125q-0.484375 0.171875 -1.015625 0.25q-0.515625 0.09375 -1.015625 0.09375q-0.984375 0 -1.8125 -0.328125q-0.828125 -0.328125 -1.4375 -0.96875q-0.59375 -0.640625 -0.9375 -1.578125q-0.328125 -0.9375 -0.328125 -2.171875q0 -0.984375 0.296875 -1.84375q0.3125 -0.859375 0.875 -1.484375q0.578125 -0.625 1.390625 -0.984375q0.828125 -0.359375 1.859375 -0.359375zm0.03125 1.21875q-1.203125 0 -1.890625 0.703125q-0.6875 0.6875 -0.859375 1.921875l5.140625 0q0 -0.578125 -0.171875 -1.0625q-0.15625 -0.484375 -0.46875 -0.828125q-0.296875 -0.359375 -0.75 -0.546875q-0.4375 -0.1875 -1.0 -0.1875zm7.838379 -5.359375l0 13.734375l-1.65625 0l0 -13.734375l1.65625 0zm17.798523 13.734375l-1.40625 0q-0.234375 0 -0.390625 -0.125q-0.140625 -0.125 -0.21875 -0.296875l-1.25 -3.234375l-6.0 0l-1.25 3.234375q-0.0625 0.15625 -0.234375 0.296875q-0.15625 0.125 -0.375 0.125l-1.40625 0l5.34375 -13.375l1.84375 0l5.34375 13.375zm-8.765625 -4.96875l5.0 0l-2.109375 -5.4375q-0.203125 -0.5 -0.390625 -1.25q-0.109375 0.375 -0.21875 0.703125q-0.09375 0.3125 -0.1875 0.5625l-2.09375 5.421875zm19.802551 1.015625l-0.796875 3.953125l-0.75 0q-0.21875 0 -0.375 -0.15625q-0.140625 -0.15625 -0.140625 -0.40625q0 -0.046875 0 -0.078125q0.015625 -0.03125 0.015625 -0.078125l0.671875 -3.234375l-2.3125 0l-0.65625 3.3125q-0.078125 0.34375 -0.296875 0.5q-0.203125 0.140625 -0.46875 0.140625l-0.734375 0l0.796875 -3.953125l-1.375 0q-0.203125 0 -0.328125 -0.09375q-0.125 -0.109375 -0.125 -0.375q0 -0.046875 0 -0.09375q0.015625 -0.0625 0.015625 -0.125l0.078125 -0.53125l1.90625 0l0.609375 -3.03125l-2.171875 0l0.125 -0.703125q0.046875 -0.265625 0.21875 -0.390625q0.171875 -0.140625 0.53125 -0.140625l1.46875 0l0.671875 -3.328125q0.0625 -0.28125 0.25 -0.4375q0.203125 -0.171875 0.484375 -0.171875l0.75 0l-0.78125 3.9375l2.296875 0l0.796875 -3.9375l0.734375 0q0.234375 0 0.375 0.140625q0.15625 0.140625 0.15625 0.375q0 0.078125 0 0.109375l-0.6875 3.3125l1.984375 0l-0.125 0.703125q-0.046875 0.28125 -0.21875 0.40625q-0.171875 0.125 -0.53125 0.125l-1.28125 0l-0.609375 3.03125l1.671875 0q0.21875 0 0.34375 0.109375q0.125 0.109375 0.125 0.375q0 0.046875 -0.015625 0.109375q0 0.046875 -0.015625 0.09375l-0.078125 0.53125l-2.203125 0zm-3.5 -1.21875l2.296875 0l0.609375 -3.03125l-2.296875 0l-0.609375 3.03125zm12.554993 -8.34375q0.84375 0 1.578125 0.25q0.734375 0.25 1.265625 0.734375q0.546875 0.484375 0.859375 1.171875q0.3125 0.6875 0.3125 1.5625q0 0.75 -0.234375 1.390625q-0.21875 0.625 -0.609375 1.21875q-0.375 0.578125 -0.875 1.125q-0.5 0.546875 -1.0625 1.109375l-3.515625 3.59375q0.375 -0.09375 0.75 -0.15625q0.390625 -0.0625 0.75 -0.0625l4.46875 0q0.28125 0 0.4375 0.15625q0.15625 0.15625 0.15625 0.421875l0 1.0l-8.921875 0l0 -0.5625q0 -0.1875 0.0625 -0.375q0.078125 -0.1875 0.234375 -0.34375l4.28125 -4.296875q0.53125 -0.546875 0.96875 -1.046875q0.4375 -0.5 0.75 -1.0q0.3125 -0.5 0.484375 -1.015625q0.171875 -0.515625 0.171875 -1.109375q0 -0.578125 -0.1875 -1.015625q-0.1875 -0.453125 -0.515625 -0.734375q-0.328125 -0.296875 -0.765625 -0.4375q-0.4375 -0.15625 -0.9375 -0.15625q-0.5 0 -0.9375 0.15625q-0.421875 0.140625 -0.765625 0.40625q-0.328125 0.265625 -0.5625 0.640625q-0.21875 0.359375 -0.3125 0.796875q-0.078125 0.265625 -0.234375 0.390625q-0.140625 0.125 -0.375 0.125q-0.046875 0 -0.109375 0q-0.046875 -0.015625 -0.109375 -0.015625l-0.875 -0.15625q0.140625 -0.90625 0.515625 -1.609375q0.375 -0.71875 0.9375 -1.1875q0.578125 -0.46875 1.3125 -0.71875q0.75 -0.25 1.609375 -0.25z" fill-rule="nonzero"/><path fill="#d9ead3" d="m223.92126 126.262375l152.6614 0l0 42.61418l-152.6614 0z" fill-rule="evenodd"/><path stroke="#38761d" stroke-width="1.0" stroke-linejoin="round" stroke-linecap="butt" d="m223.92126 126.262375l152.6614 0l0 42.61418l-152.6614 0z" fill-rule="evenodd"/><path fill="#000000" d="m261.432 149.66133q0.125 0.21875 0.21875 0.46875q0.109375 0.25 0.203125 0.5q0.09375 -0.265625 0.1875 -0.5q0.109375 -0.234375 0.234375 -0.484375l4.53125 -8.21875q0.109375 -0.21875 0.234375 -0.265625q0.140625 -0.046875 0.390625 -0.046875l1.328125 0l0 13.375l-1.578125 0l0 -9.828125q0 -0.1875 0 -0.40625q0.015625 -0.234375 0.03125 -0.46875l-4.578125 8.359375q-0.234375 0.421875 -0.65625 0.421875l-0.265625 0q-0.421875 0 -0.65625 -0.421875l-4.671875 -8.390625q0.03125 0.25 0.03125 0.484375q0.015625 0.234375 0.015625 0.421875l0 9.828125l-1.5781403 0l0 -13.375l1.3281403 0q0.25 0 0.375 0.046875q0.125 0.046875 0.25 0.265625l4.625 8.234375l0 0zm14.148132 -4.765625q1.03125 0 1.859375 0.34375q0.84375 0.34375 1.421875 0.984375q0.59375 0.625 0.90625 1.53125q0.3125 0.890625 0.3125 2.0q0 1.125 -0.3125 2.03125q-0.3125 0.890625 -0.90625 1.53125q-0.578125 0.625 -1.421875 0.96875q-0.828125 0.328125 -1.859375 0.328125q-1.03125 0 -1.875 -0.328125q-0.828125 -0.34375 -1.421875 -0.96875q-0.578125 -0.640625 -0.90625 -1.53125q-0.3125 -0.90625 -0.3125 -2.03125q0 -1.109375 0.3125 -2.0q0.328125 -0.90625 0.90625 -1.53125q0.59375 -0.640625 1.421875 -0.984375q0.84375 -0.34375 1.875 -0.34375zm0 8.421875q1.390625 0 2.078125 -0.9375q0.703125 -0.9375 0.703125 -2.609375q0 -1.6875 -0.703125 -2.625q-0.6875 -0.953125 -2.078125 -0.953125q-0.703125 0 -1.234375 0.25q-0.515625 0.234375 -0.875 0.703125q-0.34375 0.453125 -0.515625 1.125q-0.171875 0.65625 -0.171875 1.5q0 0.84375 0.171875 1.5q0.171875 0.65625 0.515625 1.109375q0.359375 0.453125 0.875 0.703125q0.53125 0.234375 1.234375 0.234375zm13.200989 1.171875q-0.359375 0 -0.453125 -0.34375l-0.140625 -1.15625q-0.609375 0.75 -1.390625 1.1875q-0.78125 0.4375 -1.78125 0.4375q-0.8125 0 -1.484375 -0.3125q-0.65625 -0.3125 -1.125 -0.90625q-0.46875 -0.609375 -0.71875 -1.515625q-0.25 -0.90625 -0.25 -2.078125q0 -1.046875 0.28125 -1.9375q0.28125 -0.90625 0.796875 -1.5625q0.53125 -0.671875 1.28125 -1.046875q0.765625 -0.390625 1.71875 -0.390625q0.875 0 1.484375 0.296875q0.625 0.296875 1.109375 0.828125l0 -5.234375l1.65625 0l0 13.734375l-0.984375 0zm-3.21875 -1.21875q0.8125 0 1.421875 -0.359375q0.609375 -0.375 1.125 -1.0625l0 -4.5625q-0.453125 -0.625 -1.0 -0.875q-0.546875 -0.25 -1.21875 -0.25q-1.3125 0 -2.03125 0.953125q-0.703125 0.9375 -0.703125 2.6875q0 0.921875 0.15625 1.578125q0.15625 0.65625 0.46875 1.078125q0.3125 0.421875 0.75 0.625q0.453125 0.1875 1.03125 0.1875zm10.741364 -8.375q0.84375 0 1.5625 0.28125q0.71875 0.28125 1.234375 0.828125q0.53125 0.53125 0.8125 1.328125q0.296875 0.78125 0.296875 1.78125q0 0.390625 -0.078125 0.53125q-0.078125 0.125 -0.3125 0.125l-6.296875 0q0.015625 0.890625 0.234375 1.5625q0.234375 0.65625 0.625 1.109375q0.390625 0.4375 0.9375 0.65625q0.546875 0.21875 1.203125 0.21875q0.625 0 1.078125 -0.140625q0.453125 -0.15625 0.78125 -0.3125q0.328125 -0.171875 0.546875 -0.3125q0.21875 -0.15625 0.375 -0.15625q0.21875 0 0.328125 0.15625l0.46875 0.609375q-0.3125 0.375 -0.75 0.65625q-0.421875 0.265625 -0.921875 0.453125q-0.484375 0.171875 -1.015625 0.25q-0.515625 0.09375 -1.015625 0.09375q-0.984375 0 -1.8125 -0.328125q-0.828125 -0.328125 -1.4375 -0.96875q-0.59375 -0.640625 -0.9375 -1.578125q-0.328125 -0.9375 -0.328125 -2.171875q0 -0.984375 0.296875 -1.84375q0.3125 -0.859375 0.875 -1.484375q0.578125 -0.625 1.390625 -0.984375q0.828125 -0.359375 1.859375 -0.359375zm0.03125 1.21875q-1.203125 0 -1.890625 0.703125q-0.6875 0.6875 -0.859375 1.921875l5.140625 0q0 -0.578125 -0.171875 -1.0625q-0.15625 -0.484375 -0.46875 -0.828125q-0.296875 -0.359375 -0.75 -0.546875q-0.4375 -0.1875 -1.0 -0.1875zm7.838379 -5.359375l0 13.734375l-1.65625 0l0 -13.734375l1.65625 0zm17.798523 13.734375l-1.40625 0q-0.234375 0 -0.390625 -0.125q-0.140625 -0.125 -0.21875 -0.296875l-1.25 -3.234375l-6.0 0l-1.25 3.234375q-0.0625 0.15625 -0.234375 0.296875q-0.15625 0.125 -0.375 0.125l-1.40625 0l5.34375 -13.375l1.84375 0l5.34375 13.375zm-8.765625 -4.96875l5.0 0l-2.109375 -5.4375q-0.203125 -0.5 -0.390625 -1.25q-0.109375 0.375 -0.21875 0.703125q-0.09375 0.3125 -0.1875 0.5625l-2.09375 5.421875zm19.802551 1.015625l-0.796875 3.953125l-0.75 0q-0.21875 0 -0.375 -0.15625q-0.140625 -0.15625 -0.140625 -0.40625q0 -0.046875 0 -0.078125q0.015625 -0.03125 0.015625 -0.078125l0.671875 -3.234375l-2.3125 0l-0.65625 3.3125q-0.078125 0.34375 -0.296875 0.5q-0.203125 0.140625 -0.46875 0.140625l-0.734375 0l0.796875 -3.953125l-1.375 0q-0.203125 0 -0.328125 -0.09375q-0.125 -0.109375 -0.125 -0.375q0 -0.046875 0 -0.09375q0.015625 -0.0625 0.015625 -0.125l0.078125 -0.53125l1.90625 0l0.609375 -3.03125l-2.171875 0l0.125 -0.703125q0.046875 -0.265625 0.21875 -0.390625q0.171875 -0.140625 0.53125 -0.140625l1.46875 0l0.671875 -3.328125q0.0625 -0.28125 0.25 -0.4375q0.203125 -0.171875 0.484375 -0.171875l0.75 0l-0.78125 3.9375l2.296875 0l0.796875 -3.9375l0.734375 0q0.234375 0 0.375 0.140625q0.15625 0.140625 0.15625 0.375q0 0.078125 0 0.109375l-0.6875 3.3125l1.984375 0l-0.125 0.703125q-0.046875 0.28125 -0.21875 0.40625q-0.171875 0.125 -0.53125 0.125l-1.28125 0l-0.609375 3.03125l1.671875 0q0.21875 0 0.34375 0.109375q0.125 0.109375 0.125 0.375q0 0.046875 -0.015625 0.109375q0 0.046875 -0.015625 0.09375l-0.078125 0.53125l-2.203125 0zm-3.5 -1.21875l2.296875 0l0.609375 -3.03125l-2.296875 0l-0.609375 3.03125zm12.726868 -8.34375q0.84375 0 1.5625 0.25q0.71875 0.234375 1.234375 0.6875q0.53125 0.4375 0.8125 1.078125q0.296875 0.625 0.296875 1.40625q0 0.640625 -0.171875 1.140625q-0.15625 0.5 -0.46875 0.875q-0.296875 0.375 -0.734375 0.640625q-0.421875 0.25 -0.953125 0.40625q1.3125 0.359375 1.96875 1.171875q0.65625 0.796875 0.65625 2.03125q0 0.921875 -0.359375 1.65625q-0.34375 0.734375 -0.953125 1.25q-0.609375 0.515625 -1.421875 0.796875q-0.796875 0.28125 -1.71875 0.28125q-1.0625 0 -1.828125 -0.265625q-0.75 -0.265625 -1.28125 -0.734375q-0.515625 -0.46875 -0.859375 -1.109375q-0.328125 -0.640625 -0.5625 -1.390625l0.71875 -0.296875q0.1875 -0.078125 0.390625 -0.078125q0.1875 0 0.328125 0.078125q0.140625 0.078125 0.21875 0.25q0.015625 0.03125 0.03125 0.078125q0.03125 0.03125 0.046875 0.078125q0.125 0.28125 0.3125 0.625q0.1875 0.328125 0.5 0.640625q0.328125 0.296875 0.796875 0.5q0.46875 0.203125 1.171875 0.203125q0.703125 0 1.21875 -0.21875q0.53125 -0.234375 0.875 -0.59375q0.359375 -0.375 0.53125 -0.8125q0.1875 -0.453125 0.1875 -0.890625q0 -0.546875 -0.15625 -0.984375q-0.140625 -0.453125 -0.515625 -0.78125q-0.375 -0.328125 -1.046875 -0.515625q-0.671875 -0.1875 -1.71875 -0.1875l0 -1.203125q0.859375 -0.015625 1.453125 -0.1875q0.609375 -0.171875 0.984375 -0.484375q0.390625 -0.3125 0.5625 -0.734375q0.171875 -0.4375 0.171875 -0.953125q0 -0.578125 -0.1875 -1.0q-0.171875 -0.4375 -0.5 -0.71875q-0.3125 -0.28125 -0.75 -0.421875q-0.4375 -0.140625 -0.9375 -0.140625q-0.5 0 -0.9375 0.15625q-0.421875 0.140625 -0.75 0.40625q-0.328125 0.265625 -0.5625 0.640625q-0.21875 0.375 -0.328125 0.796875q-0.078125 0.265625 -0.234375 0.390625q-0.140625 0.125 -0.375 0.125q-0.046875 0 -0.109375 0q-0.046875 -0.015625 -0.109375 -0.015625l-0.859375 -0.15625q0.125 -0.90625 0.5 -1.609375q0.375 -0.71875 0.9375 -1.1875q0.578125 -0.46875 1.3125 -0.71875q0.75 -0.25 1.609375 -0.25z" fill-rule="nonzero"/><path fill="#ffffff" d="m173.82939 69.20852l0 44.850388l-152.6614 0l0 -44.850388z" fill-rule="evenodd"/><path stroke="#000000" stroke-width="1.0" stroke-linejoin="round" stroke-linecap="butt" d="m173.82939 69.20852l0 44.850388l-152.6614 0l0 -44.850388z" fill-rule="evenodd"/><path fill="#ff0000" d="m153.45404 82.92503l0 0c1.6177216 0 2.9291382 1.3114166 2.9291382 2.9291382l0 0c0 0.77684784 -0.308609 1.5218887 -0.8579254 2.0712051c-0.5493164 0.54932404 -1.2943573 0.8579254 -2.0712128 0.8579254l0 0c-1.6177063 0 -2.9291382 -1.3114166 -2.9291382 -2.9291306l0 0c0 -1.6177216 1.3114319 -2.9291382 2.9291382 -2.9291382z" fill-rule="evenodd"/><path fill="#ff9900" d="m137.45404 90.92503l0 0c1.6177216 0 2.9291382 1.3114166 2.9291382 2.9291382l0 0c0 0.77684784 -0.308609 1.5218887 -0.8579254 2.0712051c-0.5493164 0.54932404 -1.2943573 0.8579254 -2.0712128 0.8579254l0 0c-1.6177063 0 -2.9291382 -1.3114166 -2.9291382 -2.9291306l0 0c0 -1.6177216 1.3114319 -2.9291382 2.9291382 -2.9291382z" fill-rule="evenodd"/><path fill="#ffff00" d="m121.45404 82.92503l0 0c1.6177216 0 2.9291382 1.3114166 2.9291382 2.9291382l0 0c0 0.77684784 -0.308609 1.5218887 -0.8579254 2.0712051c-0.5493164 0.54932404 -1.2943573 0.8579254 -2.0712128 0.8579254l0 0c-1.6177139 0 -2.9291306 -1.3114166 -2.9291306 -2.9291306l0 0c0 -1.6177216 1.3114166 -2.9291382 2.9291306 -2.9291382z" fill-rule="evenodd"/><path fill="#00ff00" d="m121.45404 106.92503l0 0c1.6177216 0 2.9291382 1.3114166 2.9291382 2.9291382l0 0c0 0.77684784 -0.308609 1.5218887 -0.8579254 2.0712051c-0.5493164 0.54932404 -1.2943573 0.8579254 -2.0712128 0.8579254l0 0c-1.6177139 0 -2.9291306 -1.3114166 -2.9291306 -2.9291306l0 0c0 -1.6177216 1.3114166 -2.9291382 2.9291306 -2.9291382z" fill-rule="evenodd"/><path fill="#00ffff" d="m147.59578 106.92503l0 0c1.6177063 0 2.929123 1.3114166 2.929123 2.9291382l0 0c0 0.77684784 -0.30859375 1.5218887 -0.85791016 2.0712051c-0.54933167 0.54932404 -1.2943573 0.8579254 -2.0712128 0.8579254l0 0c-1.6177216 0 -2.9291382 -1.3114166 -2.9291382 -2.9291306l0 0c0 -1.6177216 1.3114166 -2.9291382 2.9291382 -2.9291382z" fill-rule="evenodd"/><path fill="#4a86e8" d="m105.45404 98.08977l0 0c1.6177216 0 2.9291382 1.3114166 2.9291382 2.9291306l0 0c0 0.77685547 -0.308609 1.5218964 -0.8579254 2.0712128c-0.5493164 0.54932404 -1.2943573 0.8579254 -2.0712128 0.8579254l0 0c-1.6177139 0 -2.9291306 -1.3114166 -2.9291306 -2.9291382l0 0c0 -1.6177139 1.3114166 -2.9291306 2.9291306 -2.9291306z" fill-rule="evenodd"/><path fill="#0000ff" d="m137.50656 72.03169l0 0c3.2528229 0 5.8897552 2.6369324 5.8897552 5.889763l0 0c0 1.5620651 -0.6205292 3.0601501 -1.7250671 4.164688c-1.104538 1.1045456 -2.6026306 1.7250748 -4.164688 1.7250748l0 0c-3.2528381 0 -5.8897705 -2.63694 -5.8897705 -5.889763l0 0c0 -3.2528305 2.6369324 -5.889763 5.8897705 -5.889763z" fill-rule="evenodd"/><path fill="#9900ff" d="m115.45409 90.923096l0 0c2.7222824 0 4.9291306 2.2068481 4.9291306 4.929138l0 0c0 1.3072891 -0.5193176 2.5610275 -1.4437103 3.4854202c-0.9243927 0.9243927 -2.178131 1.4437103 -3.4854202 1.4437103l0 0c-2.7222824 0 -4.929138 -2.2068481 -4.929138 -4.9291306l0 0c0 -2.72229 2.2068558 -4.929138 4.929138 -4.929138z" fill-rule="evenodd"/><path fill="#ff00ff" d="m105.45404 74.92503l0 0c1.6177216 0 2.9291382 1.3114166 2.9291382 2.9291382l0 0c0 0.77684784 -0.308609 1.5218887 -0.8579254 2.0712051c-0.5493164 0.54932404 -1.2943573 0.8579254 -2.0712128 0.8579254l0 0c-1.6177139 0 -2.9291306 -1.3114166 -2.9291306 -2.9291306l0 0c0 -1.6177216 1.3114166 -2.9291382 2.9291306 -2.9291382z" fill-rule="evenodd"/><path fill="#cc4125" d="m89.45404 106.92503l0 0c1.6177216 0 2.9291382 1.3114166 2.9291382 2.9291382l0 0c0 0.77684784 -0.308609 1.5218887 -0.8579254 2.0712051c-0.5493164 0.54932404 -1.2943573 0.8579254 -2.0712128 0.8579254l0 0c-1.6177139 0 -2.9291306 -1.3114166 -2.9291306 -2.9291306l0 0c0 -1.6177216 1.3114166 -2.9291382 2.9291306 -2.9291382z" fill-rule="evenodd"/><path fill="#e06666" d="m91.08401 82.92324l0 0c2.5222397 0 4.566925 2.0446854 4.566925 4.5669327l0 0c0 1.2112274 -0.4811554 2.372841 -1.3376236 3.229309c-0.8564606 0.8564606 -2.0180817 1.337616 -3.2293015 1.337616l0 0c-2.5222473 0 -4.5669327 -2.0446777 -4.5669327 -4.566925l0 0c0 -2.5222473 2.0446854 -4.5669327 4.5669327 -4.5669327z" fill-rule="evenodd"/><path fill="#f6b26b" d="m75.20737 74.923195l0 0c2.5918198 0 4.6929092 2.1010895 4.6929092 4.6929092l0 0c0 1.2446442 -0.49443054 2.438301 -1.3745193 3.3183975c-0.88009644 0.8800888 -2.0737534 1.3745193 -3.31839 1.3745193l0 0c-2.5918274 0 -4.692917 -2.1010895 -4.692917 -4.692917l0 0c0 -2.5918198 2.1010895 -4.6929092 4.692917 -4.6929092z" fill-rule="evenodd"/><path fill="#ffd966" d="m81.45404 90.92503l0 0c1.6177216 0 2.9291382 1.3114166 2.9291382 2.9291382l0 0c0 0.77684784 -0.308609 1.5218887 -0.8579254 2.0712051c-0.5493164 0.54932404 -1.2943573 0.8579254 -2.0712128 0.8579254l0 0c-1.6177139 0 -2.9291306 -1.3114166 -2.9291306 -2.9291306l0 0c0 -1.6177216 1.3114166 -2.9291382 2.9291306 -2.9291382z" fill-rule="evenodd"/><path fill="#93c47d" d="m49.454044 90.92503l0 0c1.6177139 0 2.9291344 1.3114166 2.9291344 2.9291382l0 0c0 0.77684784 -0.3086052 1.5218887 -0.8579254 2.0712051c-0.5493202 0.54932404 -1.2943573 0.8579254 -2.071209 0.8579254l0 0c-1.6177177 0 -2.9291344 -1.3114166 -2.9291344 -2.9291306l0 0c0 -1.6177216 1.3114166 -2.9291382 2.9291344 -2.9291382z" fill-rule="evenodd"/><path fill="#76a5af" d="m65.45404 82.92503l0 0c1.6177216 0 2.9291382 1.3114166 2.9291382 2.9291382l0 0c0 0.77684784 -0.308609 1.5218887 -0.8579254 2.0712051c-0.5493164 0.54932404 -1.2943573 0.8579254 -2.0712128 0.8579254l0 0c-1.6177139 0 -2.9291306 -1.3114166 -2.9291306 -2.9291306l0 0c0 -1.6177216 1.3114166 -2.9291382 2.9291306 -2.9291382z" fill-rule="evenodd"/><path fill="#6d9eeb" d="m47.249363 98.92302l0 0c2.83535 0 5.1338577 2.2914581 5.1338577 5.1181107l0 0c0 1.3574066 -0.5408859 2.6592178 -1.5036736 3.619049c-0.9627838 0.95983887 -2.2686005 1.4990616 -3.6301842 1.4990616l0 0c-2.83535 0 -5.1338577 -2.2914505 -5.1338577 -5.1181107l0 0c0 -2.8266525 2.2985077 -5.1181107 5.1338577 -5.1181107z" fill-rule="evenodd"/><path fill="#6fa8dc" d="m65.45404 98.92503l0 0c1.6177216 0 2.9291382 1.3114166 2.9291382 2.9291382l0 0c0 0.77684784 -0.308609 1.5218887 -0.8579254 2.0712051c-0.5493164 0.54932404 -1.2943573 0.8579254 -2.0712128 0.8579254l0 0c-1.6177139 0 -2.9291306 -1.3114166 -2.9291306 -2.9291306l0 0c0 -1.6177216 1.3114166 -2.9291382 2.9291306 -2.9291382z" fill-rule="evenodd"/><path fill="#8e7cc3" d="m42.711296 74.92339l0 0c2.313507 0 4.1889763 1.8754654 4.1889763 4.1889725l0 0c0 1.1109848 -0.4413376 2.176468 -1.2269211 2.9620514c-0.7855873 0.7855911 -1.8510704 1.2269287 -2.9620552 1.2269287l0 0c-2.313507 0 -4.1889763 -1.875473 -4.1889763 -4.18898l0 0c0 -2.313507 1.8754692 -4.1889725 4.1889763 -4.1889725z" fill-rule="evenodd"/><path fill="#c27ba0" d="m157.20476 91.42372l0 0c3.6876984 0 6.67717 2.9894714 6.67717 6.67717l0 0c0 1.7708969 -0.7034912 3.4692535 -1.9557037 4.721466c-1.2522125 1.2522125 -2.9505768 1.9556961 -4.721466 1.9556961l0 0c-3.6876984 0 -6.67717 -2.9894638 -6.67717 -6.677162l0 0c0 -3.6876984 2.9894714 -6.67717 6.67717 -6.67717z" fill-rule="evenodd"/><path fill="#c27ba0" d="m35.141747 87.55052l0 0c2.548336 0 4.614174 2.065834 4.614174 4.6141663l0 0c0 1.2237549 -0.48613358 2.3973923 -1.3514595 3.2627182c-0.8653259 0.8653259 -2.0389595 1.3514557 -3.2627144 1.3514557l0 0c-2.548336 0 -4.614174 -2.065834 -4.614174 -4.614174l0 0c0 -2.5483322 2.0658379 -4.6141663 4.614174 -4.6141663z" fill-rule="evenodd"/><path fill="#ffffff" d="m173.82939 125.20852l0 44.850395l-152.6614 0l0 -44.850395z" fill-rule="evenodd"/><path stroke="#000000" stroke-width="1.0" stroke-linejoin="round" stroke-linecap="butt" d="m173.82939 125.20852l0 44.850395l-152.6614 0l0 -44.850395z" fill-rule="evenodd"/><path fill="#ff0000" d="m153.45404 138.92503l0 0c1.6177216 0 2.9291382 1.3114166 2.9291382 2.9291382l0 0c0 0.77685547 -0.308609 1.5218811 -0.8579254 2.0712128c-0.5493164 0.5493164 -1.2943573 0.8579254 -2.0712128 0.8579254l0 0c-1.6177063 0 -2.9291382 -1.3114319 -2.9291382 -2.9291382l0 0c0 -1.6177216 1.3114319 -2.9291382 2.9291382 -2.9291382z" fill-rule="evenodd"/><path fill="#ff9900" d="m137.45404 146.92503l0 0c1.6177216 0 2.9291382 1.3114166 2.9291382 2.9291382l0 0c0 0.77685547 -0.308609 1.5218811 -0.8579254 2.0712128c-0.5493164 0.5493164 -1.2943573 0.8579254 -2.0712128 0.8579254l0 0c-1.6177063 0 -2.9291382 -1.3114319 -2.9291382 -2.9291382l0 0c0 -1.6177216 1.3114319 -2.9291382 2.9291382 -2.9291382z" fill-rule="evenodd"/><path fill="#ffff00" d="m122.58794 138.92345l0 0c2.243927 0 4.0629883 1.8190613 4.0629883 4.0629883l0 0c0 1.0775757 -0.42806244 2.1110077 -1.1900177 2.8729706c-0.7619629 0.76194763 -1.7953949 1.1900177 -2.8729706 1.1900177l0 0c-2.243927 0 -4.062996 -1.8190613 -4.062996 -4.0629883l0 0c0 -2.243927 1.8190689 -4.0629883 4.062996 -4.0629883z" fill-rule="evenodd"/><path fill="#00ff00" d="m121.45404 162.92503l0 0c1.6177216 0 2.9291382 1.3114166 2.9291382 2.9291382l0 0c0 0.77685547 -0.308609 1.5218811 -0.8579254 2.0712128c-0.5493164 0.5493164 -1.2943573 0.8579254 -2.0712128 0.8579254l0 0c-1.6177139 0 -2.9291306 -1.3114319 -2.9291306 -2.9291382l0 0c0 -1.6177216 1.3114166 -2.9291382 2.9291306 -2.9291382z" fill-rule="evenodd"/><path fill="#00ffff" d="m147.59578 162.92503l0 0c1.6177063 0 2.929123 1.3114166 2.929123 2.9291382l0 0c0 0.77685547 -0.30859375 1.5218811 -0.85791016 2.0712128c-0.54933167 0.5493164 -1.2943573 0.8579254 -2.0712128 0.8579254l0 0c-1.6177216 0 -2.9291382 -1.3114319 -2.9291382 -2.9291382l0 0c0 -1.6177216 1.3114166 -2.9291382 2.9291382 -2.9291382z" fill-rule="evenodd"/><path fill="#4a86e8" d="m105.45404 154.08977l0 0c1.6177216 0 2.9291382 1.3114166 2.9291382 2.9291382l0 0c0 0.77685547 -0.308609 1.5218811 -0.8579254 2.0712128c-0.5493164 0.5493164 -1.2943573 0.85791016 -2.0712128 0.85791016l0 0c-1.6177139 0 -2.9291306 -1.3114166 -2.9291306 -2.929123l0 0c0 -1.6177216 1.3114166 -2.9291382 2.9291306 -2.9291382z" fill-rule="evenodd"/><path fill="#0000ff" d="m136.88715 129.80031l0 0c1.9308167 0 3.4960632 1.5652313 3.4960632 3.4960632l0 0c0 0.9272156 -0.3683319 1.816452 -1.0239716 2.4720917c-0.65563965 0.65563965 -1.5448761 1.0239716 -2.4720917 1.0239716l0 0c-1.9308319 0 -3.4960632 -1.5652466 -3.4960632 -3.4960632l0 0c0 -1.9308319 1.5652313 -3.4960632 3.4960632 -3.4960632z" fill-rule="evenodd"/><path fill="#9900ff" d="m112.50919 145.03113l0 0c2.1395645 0 3.8740158 1.7344513 3.8740158 3.8740082l0 0c0 1.0274506 -0.40814972 2.0128326 -1.1346741 2.7393494c-0.7265167 0.7265167 -1.7118912 1.1346741 -2.7393417 1.1346741l0 0c-2.139557 0 -3.8740158 -1.7344666 -3.8740158 -3.8740234l0 0c0 -2.139557 1.7344589 -3.8740082 3.8740158 -3.8740082z" fill-rule="evenodd"/><path fill="#ff00ff" d="m105.45404 130.92503l0 0c1.6177216 0 2.9291382 1.3114166 2.9291382 2.9291382l0 0c0 0.77685547 -0.308609 1.5218811 -0.8579254 2.0712128c-0.5493164 0.5493164 -1.2943573 0.8579254 -2.0712128 0.8579254l0 0c-1.6177139 0 -2.9291306 -1.3114319 -2.9291306 -2.9291382l0 0c0 -1.6177216 1.3114166 -2.9291382 2.9291306 -2.9291382z" fill-rule="evenodd"/><path fill="#cc4125" d="m89.45404 162.92503l0 0c1.6177216 0 2.9291382 1.3114166 2.9291382 2.9291382l0 0c0 0.77685547 -0.308609 1.5218811 -0.8579254 2.0712128c-0.5493164 0.5493164 -1.2943573 0.8579254 -2.0712128 0.8579254l0 0c-1.6177139 0 -2.9291306 -1.3114319 -2.9291306 -2.9291382l0 0c0 -1.6177216 1.3114166 -2.9291382 2.9291306 -2.9291382z" fill-rule="evenodd"/><path fill="#e06666" d="m88.887146 137.78192l0 0c1.9308167 0 3.4960632 1.5652466 3.4960632 3.4960632l0 0c0 0.9272156 -0.36833954 1.816452 -1.0239716 2.4720917c-0.65563965 0.65563965 -1.5448837 1.0239716 -2.4720917 1.0239716l0 0c-1.9308243 0 -3.4960632 -1.5652313 -3.4960632 -3.4960632l0 0c0 -1.9308167 1.565239 -3.4960632 3.4960632 -3.4960632z" fill-rule="evenodd"/><path fill="#f6b26b" d="m74.46195 130.9235l0 0c2.1656494 0 3.921257 1.7626648 3.921257 3.9370117l0 0c0 1.0441589 -0.4131317 2.0455475 -1.1485062 2.7838745c-0.7353821 0.7383423 -1.7327728 1.153122 -2.7727509 1.153122l0 0c-2.165657 0 -3.9212646 -1.7626495 -3.9212646 -3.9369965l0 0c0 -2.174347 1.7556076 -3.9370117 3.9212646 -3.9370117z" fill-rule="evenodd"/><path fill="#ffd966" d="m81.45404 146.92503l0 0c1.6177216 0 2.9291382 1.3114166 2.9291382 2.9291382l0 0c0 0.77685547 -0.308609 1.5218811 -0.8579254 2.0712128c-0.5493164 0.5493164 -1.2943573 0.8579254 -2.0712128 0.8579254l0 0c-1.6177139 0 -2.9291306 -1.3114319 -2.9291306 -2.9291382l0 0c0 -1.6177216 1.3114166 -2.9291382 2.9291306 -2.9291382z" fill-rule="evenodd"/><path fill="#93c47d" d="m49.454044 146.92503l0 0c1.6177139 0 2.9291344 1.3114166 2.9291344 2.9291382l0 0c0 0.77685547 -0.3086052 1.5218811 -0.8579254 2.0712128c-0.5493202 0.5493164 -1.2943573 0.8579254 -2.071209 0.8579254l0 0c-1.6177177 0 -2.9291344 -1.3114319 -2.9291344 -2.9291382l0 0c0 -1.6177216 1.3114166 -2.9291382 2.9291344 -2.9291382z" fill-rule="evenodd"/><path fill="#76a5af" d="m65.45404 138.92503l0 0c1.6177216 0 2.9291382 1.3114166 2.9291382 2.9291382l0 0c0 0.77685547 -0.308609 1.5218811 -0.8579254 2.0712128c-0.5493164 0.5493164 -1.2943573 0.8579254 -2.0712128 0.8579254l0 0c-1.6177139 0 -2.9291306 -1.3114319 -2.9291306 -2.9291382l0 0c0 -1.6177216 1.3114166 -2.9291382 2.9291306 -2.9291382z" fill-rule="evenodd"/><path fill="#6d9eeb" d="m48.950134 154.92369l0 0c1.8960342 0 3.4330711 1.5370331 3.4330711 3.4330597l0 0c0 0.9105072 -0.36169815 1.7837219 -1.0055237 2.4275513c-0.64382553 0.64382935 -1.5170403 1.0055237 -2.4275475 1.0055237l0 0c-1.8960304 0 -3.4330711 -1.5370331 -3.4330711 -3.433075l0 0c0 -1.8960266 1.5370407 -3.4330597 3.4330711 -3.4330597z" fill-rule="evenodd"/><path fill="#6fa8dc" d="m65.45404 154.92503l0 0c1.6177216 0 2.9291382 1.3114166 2.9291382 2.9291382l0 0c0 0.77685547 -0.308609 1.5218811 -0.8579254 2.0712128c-0.5493164 0.5493164 -1.2943573 0.8579254 -2.0712128 0.8579254l0 0c-1.6177139 0 -2.9291306 -1.3114319 -2.9291306 -2.9291382l0 0c0 -1.6177216 1.3114166 -2.9291382 2.9291306 -2.9291382z" fill-rule="evenodd"/><path fill="#8e7cc3" d="m41.454044 130.92503l0 0c1.6177139 0 2.9291344 1.3114166 2.9291344 2.9291382l0 0c0 0.77685547 -0.3086052 1.5218811 -0.8579254 2.0712128c-0.5493202 0.5493164 -1.2943573 0.8579254 -2.071209 0.8579254l0 0c-1.6177177 0 -2.9291344 -1.3114319 -2.9291344 -2.9291382l0 0c0 -1.6177216 1.3114166 -2.9291382 2.9291344 -2.9291382z" fill-rule="evenodd"/><path fill="#c27ba0" d="m153.45404 154.92503l0 0c1.6177216 0 2.9291382 1.3114166 2.9291382 2.9291382l0 0c0 0.77685547 -0.308609 1.5218811 -0.8579254 2.0712128c-0.5493164 0.5493164 -1.2943573 0.8579254 -2.0712128 0.8579254l0 0c-1.6177063 0 -2.9291382 -1.3114319 -2.9291382 -2.9291382l0 0c0 -1.6177216 1.3114319 -2.9291382 2.9291382 -2.9291382z" fill-rule="evenodd"/><path fill="#c27ba0" d="m32.887146 145.78192l0 0c1.9308205 0 3.4960594 1.5652466 3.4960594 3.4960632l0 0c0 0.9272156 -0.3683319 1.816452 -1.0239716 2.4720917c-0.65563965 0.65563965 -1.5448761 1.0239716 -2.4720879 1.0239716l0 0c-1.9308243 0 -3.4960651 -1.5652313 -3.4960651 -3.4960632l0 0c0 -1.9308167 1.5652409 -3.4960632 3.4960651 -3.4960632z" fill-rule="evenodd"/><path fill="#000000" fill-opacity="0.0" d="m173.82939 35.633713l50.07875 -0.062992096" fill-rule="evenodd"/><path stroke="#000000" stroke-width="1.0" stroke-linejoin="round" stroke-linecap="butt" d="m173.82939 35.633713l44.07875 -0.055446625" fill-rule="evenodd"/><path fill="#000000" stroke="#000000" stroke-width="1.0" stroke-linecap="butt" d="m217.91022 37.23l4.5360107 -1.6574402l-4.540161 -1.6460228z" fill-rule="evenodd"/><path fill="#000000" fill-opacity="0.0" d="m223.92126 35.56946l-50.07875 56.062992" fill-rule="evenodd"/><path stroke="#000000" stroke-width="1.0" stroke-linejoin="round" stroke-linecap="butt" d="m223.92126 35.56946l-46.08165 51.588253" fill-rule="evenodd"/><path fill="#000000" stroke="#000000" stroke-width="1.0" stroke-linecap="butt" d="m176.60777 86.057365l-1.7913666 4.4848175l4.2550507 -2.284111z" fill-rule="evenodd"/><path fill="#000000" fill-opacity="0.0" d="m173.82939 91.63371l50.07875 -0.06298828" fill-rule="evenodd"/><path stroke="#000000" stroke-width="1.0" stroke-linejoin="round" stroke-linecap="butt" d="m173.82939 91.63371l44.07875 -0.05544281" fill-rule="evenodd"/><path fill="#000000" stroke="#000000" stroke-width="1.0" stroke-linecap="butt" d="m217.91022 93.23l4.5360107 -1.6574402l-4.540161 -1.6460266z" fill-rule="evenodd"/><path fill="#000000" fill-opacity="0.0" d="m223.92126 91.569466l-50.07875 56.062996" fill-rule="evenodd"/><path stroke="#000000" stroke-width="1.0" stroke-linejoin="round" stroke-linecap="butt" d="m223.92126 91.56946l-46.08165 51.588257" fill-rule="evenodd"/><path fill="#000000" stroke="#000000" stroke-width="1.0" stroke-linecap="butt" d="m176.60777 142.05736l-1.7913666 4.484833l4.2550507 -2.2841187z" fill-rule="evenodd"/><path fill="#000000" fill-opacity="0.0" d="m173.82939 147.63371l50.07875 -0.06298828" fill-rule="evenodd"/><path stroke="#000000" stroke-width="1.0" stroke-linejoin="round" stroke-linecap="butt" d="m173.82939 147.63371l44.07875 -0.05545044" fill-rule="evenodd"/><path fill="#000000" stroke="#000000" stroke-width="1.0" stroke-linecap="butt" d="m217.91022 149.23l4.5360107 -1.6574402l-4.540161 -1.6460114z" fill-rule="evenodd"/><path fill="#000000" fill-opacity="0.0" d="m376.58267 147.56946l68.44095 0" fill-rule="evenodd"/><path stroke="#000000" stroke-width="1.0" stroke-linejoin="round" stroke-linecap="butt" d="m376.58267 147.56946l62.44095 0" fill-rule="evenodd"/><path fill="#000000" stroke="#000000" stroke-width="1.0" stroke-linecap="butt" d="m439.02362 149.22119l4.538086 -1.6517334l-4.538086 -1.6517334z" fill-rule="evenodd"/><path fill="#ffd966" d="m445.02362 131.56972l0 0c0 -4.418373 3.581787 -8.00016 8.000153 -8.00016l101.511505 0c2.1217651 0 4.156616 0.842865 5.6569824 2.3431854c1.5003052 1.5003281 2.3432007 3.5351944 2.3432007 5.656975l0 31.99968c0 4.4183655 -3.5818481 8.000153 -8.000183 8.000153l-101.511505 0l0 0c-4.4183655 0 -8.000153 -3.581787 -8.000153 -8.000153z" fill-rule="evenodd"/><path stroke="#000000" stroke-width="1.0" stroke-linejoin="round" stroke-linecap="butt" d="m445.02362 131.56972l0 0c0 -4.418373 3.581787 -8.00016 8.000153 -8.00016l101.511505 0c2.1217651 0 4.156616 0.842865 5.6569824 2.3431854c1.5003052 1.5003281 2.3432007 3.5351944 2.3432007 5.656975l0 31.99968c0 4.4183655 -3.5818481 8.000153 -8.000183 8.000153l-101.511505 0l0 0c-4.4183655 0 -8.000153 -3.581787 -8.000153 -8.000153z" fill-rule="evenodd"/><path fill="#000000" d="m463.73694 154.48955l0 -13.359375l5.046875 0q1.328125 0 2.03125 0.125q0.96875 0.171875 1.640625 0.640625q0.671875 0.453125 1.078125 1.28125q0.40625 0.828125 0.40625 1.828125q0 1.703125 -1.09375 2.890625q-1.078125 1.171875 -3.921875 1.171875l-3.421875 0l0 5.421875l-1.765625 0zm1.765625 -7.0l3.453125 0q1.71875 0 2.4375 -0.640625q0.71875 -0.640625 0.71875 -1.796875q0 -0.84375 -0.421875 -1.4375q-0.421875 -0.59375 -1.125 -0.78125q-0.4375 -0.125 -1.640625 -0.125l-3.421875 0l0 4.78125zm10.459198 7.0l0 -9.671875l1.46875 0l0 1.46875q0.5625 -1.03125 1.03125 -1.359375q0.484375 -0.328125 1.0625 -0.328125q0.828125 0 1.6875 0.53125l-0.5625 1.515625q-0.609375 -0.359375 -1.203125 -0.359375q-0.546875 0 -0.96875 0.328125q-0.421875 0.328125 -0.609375 0.890625q-0.28125 0.875 -0.28125 1.921875l0 5.0625l-1.625 0zm12.853302 -3.109375l1.6875 0.203125q-0.40625 1.484375 -1.484375 2.3125q-1.078125 0.8125 -2.765625 0.8125q-2.125 0 -3.375 -1.296875q-1.234375 -1.3125 -1.234375 -3.671875q0 -2.453125 1.25 -3.796875q1.265625 -1.34375 3.265625 -1.34375q1.9375 0 3.15625 1.328125q1.234375 1.3125 1.234375 3.703125q0 0.15625 0 0.4375l-7.21875 0q0.09375 1.59375 0.90625 2.453125q0.8125 0.84375 2.015625 0.84375q0.90625 0 1.546875 -0.46875q0.640625 -0.484375 1.015625 -1.515625zm-5.390625 -2.65625l5.40625 0q-0.109375 -1.21875 -0.625 -1.828125q-0.78125 -0.953125 -2.03125 -0.953125q-1.125 0 -1.90625 0.765625q-0.765625 0.75 -0.84375 2.015625zm15.406952 5.765625l0 -1.21875q-0.90625 1.4375 -2.703125 1.4375q-1.15625 0 -2.125 -0.640625q-0.96875 -0.640625 -1.5 -1.78125q-0.53125 -1.140625 -0.53125 -2.625q0 -1.453125 0.484375 -2.625q0.484375 -1.1875 1.4375 -1.8125q0.96875 -0.625 2.171875 -0.625q0.875 0 1.546875 0.375q0.6875 0.359375 1.109375 0.953125l0 -4.796875l1.640625 0l0 13.359375l-1.53125 0zm-5.171875 -4.828125q0 1.859375 0.78125 2.78125q0.78125 0.921875 1.84375 0.921875q1.078125 0 1.828125 -0.875q0.75 -0.890625 0.75 -2.6875q0 -1.984375 -0.765625 -2.90625q-0.765625 -0.9375 -1.890625 -0.9375q-1.078125 0 -1.8125 0.890625q-0.734375 0.890625 -0.734375 2.8125zm9.281982 -6.640625l0 -1.890625l1.640625 0l0 1.890625l-1.640625 0zm0 11.46875l0 -9.671875l1.640625 0l0 9.671875l-1.640625 0zm10.457306 -3.546875l1.609375 0.21875q-0.265625 1.65625 -1.359375 2.609375q-1.078125 0.9375 -2.671875 0.9375q-1.984375 0 -3.1875 -1.296875q-1.203125 -1.296875 -1.203125 -3.71875q0 -1.578125 0.515625 -2.75q0.515625 -1.171875 1.578125 -1.75q1.0625 -0.59375 2.3125 -0.59375q1.578125 0 2.578125 0.796875q1.0 0.796875 1.28125 2.265625l-1.59375 0.234375q-0.234375 -0.96875 -0.8125 -1.453125q-0.578125 -0.5 -1.390625 -0.5q-1.234375 0 -2.015625 0.890625q-0.78125 0.890625 -0.78125 2.8125q0 1.953125 0.75 2.84375q0.75 0.875 1.953125 0.875q0.96875 0 1.609375 -0.59375q0.65625 -0.59375 0.828125 -1.828125zm6.59375 2.078125l0.234375 1.453125q-0.6875 0.140625 -1.234375 0.140625q-0.890625 0 -1.390625 -0.28125q-0.484375 -0.28125 -0.6875 -0.734375q-0.203125 -0.46875 -0.203125 -1.9375l0 -5.578125l-1.203125 0l0 -1.265625l1.203125 0l0 -2.390625l1.625 -0.984375l0 3.375l1.65625 0l0 1.265625l-1.65625 0l0 5.671875q0 0.6875 0.078125 0.890625q0.09375 0.203125 0.28125 0.328125q0.203125 0.109375 0.578125 0.109375q0.265625 0 0.71875 -0.0625zm1.6051636 -10.0l0 -1.890625l1.640625 0l0 1.890625l-1.640625 0zm0 11.46875l0 -9.671875l1.640625 0l0 9.671875l-1.640625 0zm3.5354614 -4.84375q0 -2.6875 1.484375 -3.96875q1.25 -1.078125 3.046875 -1.078125q2.0 0 3.265625 1.3125q1.265625 1.296875 1.265625 3.609375q0 1.859375 -0.5625 2.9375q-0.5625 1.0625 -1.640625 1.65625q-1.0625 0.59375 -2.328125 0.59375q-2.03125 0 -3.28125 -1.296875q-1.25 -1.3125 -1.25 -3.765625zm1.6875 0q0 1.859375 0.796875 2.796875q0.8125 0.921875 2.046875 0.921875q1.21875 0 2.03125 -0.921875q0.8125 -0.9375 0.8125 -2.84375q0 -1.796875 -0.8125 -2.71875q-0.8125 -0.921875 -2.03125 -0.921875q-1.234375 0 -2.046875 0.921875q-0.796875 0.90625 -0.796875 2.765625zm9.297607 4.84375l0 -9.671875l1.46875 0l0 1.375q1.0625 -1.59375 3.078125 -1.59375q0.875 0 1.609375 0.3125q0.734375 0.3125 1.09375 0.828125q0.375 0.5 0.515625 1.203125q0.09375 0.453125 0.09375 1.59375l0 5.953125l-1.640625 0l0 -5.890625q0 -1.0 -0.203125 -1.484375q-0.1875 -0.5 -0.671875 -0.796875q-0.484375 -0.296875 -1.140625 -0.296875q-1.046875 0 -1.8125 0.671875q-0.75 0.65625 -0.75 2.515625l0 5.28125l-1.640625 0z" fill-rule="nonzero"/></g></svg>