<svg version="1.1" viewBox="0.0 0.0 556.2887139107612 100.0" fill="none" stroke="none" stroke-linecap="square" stroke-miterlimit="10" xmlns:xlink="http://www.w3.org/1999/xlink" xmlns="http://www.w3.org/2000/svg"><clipPath id="p.0"><path d="m0 0l556.2887 0l0 100.0l-556.2887 0l0 -100.0z" clip-rule="nonzero"/></clipPath><g clip-path="url(#p.0)"><path fill="#000000" fill-opacity="0.0" d="m0 0l556.2887 0l0 100.0l-556.2887 0z" fill-rule="evenodd"/><path fill="#ffffff" d="m169.77165 30.736074l0 44.850395l-152.6614 0l0 -44.850395z" fill-rule="evenodd"/><path stroke="#000000" stroke-width="1.0" stroke-linejoin="round" stroke-linecap="butt" d="m169.77165 30.736074l0 44.850395l-152.6614 0l0 -44.850395z" fill-rule="evenodd"/><path fill="#ff0000" d="m149.3963 44.452595l0 0c1.6177216 0 2.9291382 1.3114166 2.9291382 2.9291344l0 0c0 0.77685165 -0.308609 1.5218887 -0.8579254 2.071209c-0.5493164 0.5493202 -1.2943573 0.8579216 -2.0712128 0.8579216l0 0c-1.6177216 0 -2.9291382 -1.3114166 -2.9291382 -2.9291306l0 0c0 -1.6177177 1.3114166 -2.9291344 2.9291382 -2.9291344z" fill-rule="evenodd"/><path fill="#ff9900" d="m133.3963 52.452595l0 0c1.6177216 0 2.9291382 1.3114166 2.9291382 2.9291344l0 0c0 0.77685165 -0.308609 1.5218887 -0.8579254 2.071209c-0.5493164 0.5493202 -1.2943573 0.8579216 -2.0712128 0.8579216l0 0c-1.6177216 0 -2.9291382 -1.3114166 -2.9291382 -2.9291306l0 0c0 -1.6177177 1.3114166 -2.9291344 2.9291382 -2.9291344z" fill-rule="evenodd"/><path fill="#ffff00" d="m117.3963 44.452595l0 0c1.6177139 0 2.9291306 1.3114166 2.9291306 2.9291344l0 0c0 0.77685165 -0.30860138 1.5218887 -0.8579178 2.071209c-0.54932404 0.5493202 -1.2943573 0.8579216 -2.0712128 0.8579216l0 0c-1.6177139 0 -2.9291382 -1.3114166 -2.9291382 -2.9291306l0 0c0 -1.6177177 1.3114243 -2.9291344 2.9291382 -2.9291344z" fill-rule="evenodd"/><path fill="#00ff00" d="m117.3963 68.45259l0 0c1.6177139 0 2.9291306 1.3114243 2.9291306 2.9291382l0 0c0 0.77685547 -0.30860138 1.5218887 -0.8579178 2.0712051c-0.54932404 0.54932404 -1.2943573 0.8579254 -2.0712128 0.8579254l0 0c-1.6177139 0 -2.9291382 -1.3114166 -2.9291382 -2.9291306l0 0c0 -1.6177139 1.3114243 -2.9291382 2.9291382 -2.9291382z" fill-rule="evenodd"/><path fill="#00ffff" d="m143.53804 68.45259l0 0c1.6177063 0 2.929123 1.3114243 2.929123 2.9291382l0 0c0 0.77685547 -0.30859375 1.5218887 -0.8579254 2.0712051c-0.5493164 0.54932404 -1.2943573 0.8579254 -2.0711975 0.8579254l0 0c-1.6177216 0 -2.9291382 -1.3114166 -2.9291382 -2.9291306l0 0c0 -1.6177139 1.3114166 -2.9291382 2.9291382 -2.9291382z" fill-rule="evenodd"/><path fill="#4a86e8" d="m101.3963 59.61733l0 0c1.6177139 0 2.9291306 1.3114166 2.9291306 2.9291306l0 0c0 0.77685547 -0.30860138 1.5218925 -0.8579178 2.071209c-0.54932404 0.54932404 -1.2943573 0.8579254 -2.0712128 0.8579254l0 0c-1.6177139 0 -2.9291382 -1.3114166 -2.9291382 -2.9291344l0 0c0 -1.6177139 1.3114243 -2.9291306 2.9291382 -2.9291306z" fill-rule="evenodd"/><path fill="#0000ff" d="m133.3963 36.452595l0 0c1.6177216 0 2.9291382 1.3114166 2.9291382 2.9291344l0 0c0 0.77685165 -0.308609 1.5218887 -0.8579254 2.071209c-0.5493164 0.5493202 -1.2943573 0.8579216 -2.0712128 0.8579216l0 0c-1.6177216 0 -2.9291382 -1.3114166 -2.9291382 -2.9291306l0 0c0 -1.6177177 1.3114166 -2.9291344 2.9291382 -2.9291344z" fill-rule="evenodd"/><path fill="#9900ff" d="m109.3963 52.452595l0 0c1.6177139 0 2.9291306 1.3114166 2.9291306 2.9291344l0 0c0 0.77685165 -0.30860138 1.5218887 -0.8579178 2.071209c-0.54932404 0.5493202 -1.2943573 0.8579216 -2.0712128 0.8579216l0 0c-1.6177139 0 -2.9291382 -1.3114166 -2.9291382 -2.9291306l0 0c0 -1.6177177 1.3114243 -2.9291344 2.9291382 -2.9291344z" fill-rule="evenodd"/><path fill="#ff00ff" d="m101.3963 36.452595l0 0c1.6177139 0 2.9291306 1.3114166 2.9291306 2.9291344l0 0c0 0.77685165 -0.30860138 1.5218887 -0.8579178 2.071209c-0.54932404 0.5493202 -1.2943573 0.8579216 -2.0712128 0.8579216l0 0c-1.6177139 0 -2.9291382 -1.3114166 -2.9291382 -2.9291306l0 0c0 -1.6177177 1.3114243 -2.9291344 2.9291382 -2.9291344z" fill-rule="evenodd"/><path fill="#cc4125" d="m85.3963 68.45259l0 0c1.6177139 0 2.9291306 1.3114243 2.9291306 2.9291382l0 0c0 0.77685547 -0.30860138 1.5218887 -0.8579178 2.0712051c-0.54932404 0.54932404 -1.2943573 0.8579254 -2.0712128 0.8579254l0 0c-1.6177139 0 -2.9291382 -1.3114166 -2.9291382 -2.9291306l0 0c0 -1.6177139 1.3114243 -2.9291382 2.9291382 -2.9291382z" fill-rule="evenodd"/><path fill="#e06666" d="m85.3963 44.452595l0 0c1.6177139 0 2.9291306 1.3114166 2.9291306 2.9291344l0 0c0 0.77685165 -0.30860138 1.5218887 -0.8579178 2.071209c-0.54932404 0.5493202 -1.2943573 0.8579216 -2.0712128 0.8579216l0 0c-1.6177139 0 -2.9291382 -1.3114166 -2.9291382 -2.9291306l0 0c0 -1.6177177 1.3114243 -2.9291344 2.9291382 -2.9291344z" fill-rule="evenodd"/><path fill="#f6b26b" d="m69.3963 36.452595l0 0c1.6177139 0 2.9291306 1.3114166 2.9291306 2.9291344l0 0c0 0.77685165 -0.30860138 1.5218887 -0.8579178 2.071209c-0.54932404 0.5493202 -1.2943573 0.8579216 -2.0712128 0.8579216l0 0c-1.6177139 0 -2.9291382 -1.3114166 -2.9291382 -2.9291306l0 0c0 -1.6177177 1.3114243 -2.9291344 2.9291382 -2.9291344z" fill-rule="evenodd"/><path fill="#ffd966" d="m77.3963 52.452595l0 0c1.6177139 0 2.9291306 1.3114166 2.9291306 2.9291344l0 0c0 0.77685165 -0.30860138 1.5218887 -0.8579178 2.071209c-0.54932404 0.5493202 -1.2943573 0.8579216 -2.0712128 0.8579216l0 0c-1.6177139 0 -2.9291382 -1.3114166 -2.9291382 -2.9291306l0 0c0 -1.6177177 1.3114243 -2.9291344 2.9291382 -2.9291344z" fill-rule="evenodd"/><path fill="#93c47d" d="m45.3963 52.452595l0 0c1.6177139 0 2.9291344 1.3114166 2.9291344 2.9291344l0 0c0 0.77685165 -0.3086052 1.5218887 -0.8579254 2.071209c-0.5493202 0.5493202 -1.2943535 0.8579216 -2.071209 0.8579216l0 0c-1.6177177 0 -2.9291344 -1.3114166 -2.9291344 -2.9291306l0 0c0 -1.6177177 1.3114166 -2.9291344 2.9291344 -2.9291344z" fill-rule="evenodd"/><path fill="#76a5af" d="m61.3963 44.452595l0 0c1.6177139 0 2.9291306 1.3114166 2.9291306 2.9291344l0 0c0 0.77685165 -0.30860138 1.5218887 -0.8579216 2.071209c-0.5493202 0.5493202 -1.2943535 0.8579216 -2.071209 0.8579216l0 0c-1.6177177 0 -2.9291344 -1.3114166 -2.9291344 -2.9291306l0 0c0 -1.6177177 1.3114166 -2.9291344 2.9291344 -2.9291344z" fill-rule="evenodd"/><path fill="#6d9eeb" d="m45.3963 60.452595l0 0c1.6177139 0 2.9291344 1.3114166 2.9291344 2.9291344l0 0c0 0.77685547 -0.3086052 1.5218887 -0.8579254 2.0712051c-0.5493202 0.54932404 -1.2943535 0.8579254 -2.071209 0.8579254l0 0c-1.6177177 0 -2.9291344 -1.3114166 -2.9291344 -2.9291306l0 0c0 -1.6177177 1.3114166 -2.9291344 2.9291344 -2.9291344z" fill-rule="evenodd"/><path fill="#6fa8dc" d="m61.3963 60.452595l0 0c1.6177139 0 2.9291306 1.3114166 2.9291306 2.9291344l0 0c0 0.77685547 -0.30860138 1.5218887 -0.8579216 2.0712051c-0.5493202 0.54932404 -1.2943535 0.8579254 -2.071209 0.8579254l0 0c-1.6177177 0 -2.9291344 -1.3114166 -2.9291344 -2.9291306l0 0c0 -1.6177177 1.3114166 -2.9291344 2.9291344 -2.9291344z" fill-rule="evenodd"/><path fill="#8e7cc3" d="m37.3963 36.452595l0 0c1.6177139 0 2.9291344 1.3114166 2.9291344 2.9291344l0 0c0 0.77685165 -0.3086052 1.5218887 -0.8579254 2.071209c-0.5493202 0.5493202 -1.2943535 0.8579216 -2.071209 0.8579216l0 0c-1.6177177 0 -2.9291344 -1.3114166 -2.9291344 -2.9291306l0 0c0 -1.6177177 1.3114166 -2.9291344 2.9291344 -2.9291344z" fill-rule="evenodd"/><path fill="#c27ba0" d="m149.3963 60.452595l0 0c1.6177216 0 2.9291382 1.3114166 2.9291382 2.9291344l0 0c0 0.77685547 -0.308609 1.5218887 -0.8579254 2.0712051c-0.5493164 0.54932404 -1.2943573 0.8579254 -2.0712128 0.8579254l0 0c-1.6177216 0 -2.9291382 -1.3114166 -2.9291382 -2.9291306l0 0c0 -1.6177177 1.3114166 -2.9291344 2.9291382 -2.9291344z" fill-rule="evenodd"/><path fill="#c27ba0" d="m29.3963 52.452595l0 0c1.6177177 0 2.9291363 1.3114166 2.9291363 2.9291344l0 0c0 0.77685165 -0.3086052 1.5218887 -0.8579254 2.071209c-0.5493183 0.5493202 -1.2943554 0.8579216 -2.0712109 0.8579216l0 0c-1.6177158 0 -2.9291325 -1.3114166 -2.9291325 -2.9291306l0 0c0 -1.6177177 1.3114166 -2.9291344 2.9291325 -2.9291344z" fill-rule="evenodd"/><path fill="#d9ead3" d="m219.86351 31.789934l152.66142 0l0 42.614174l-152.66142 0z" fill-rule="evenodd"/><path stroke="#38761d" stroke-width="1.0" stroke-linejoin="round" stroke-linecap="butt" d="m219.86351 31.789934l152.66142 0l0 42.614174l-152.66142 0z" fill-rule="evenodd"/><path fill="#000000" d="m269.9952 55.188896q0.125 0.21875 0.21875 0.46875q0.109375 0.25 0.203125 0.5q0.09375 -0.265625 0.1875 -0.5q0.109375 -0.234375 0.234375 -0.484375l4.53125 -8.21875q0.109375 -0.21875 0.234375 -0.265625q0.140625 -0.046875 0.390625 -0.046875l1.328125 0l0 13.375l-1.578125 0l0 -9.828125q0 -0.1875 0 -0.40625q0.015625 -0.234375 0.03125 -0.46875l-4.578125 8.359375q-0.234375 0.421875 -0.65625 0.421875l-0.265625 0q-0.421875 0 -0.65625 -0.421875l-4.671875 -8.390625q0.03125 0.25 0.03125 0.484375q0.015625 0.234375 0.015625 0.421875l0 9.828125l-1.578125 0l0 -13.375l1.328125 0q0.25 0 0.375 0.046875q0.125 0.046875 0.25 0.265625l4.625 8.234375l0 0zm14.148132 -4.765625q1.03125 0 1.859375 0.34375q0.84375 0.34375 1.421875 0.984375q0.59375 0.625 0.90625 1.53125q0.3125 0.890625 0.3125 2.0q0 1.125 -0.3125 2.03125q-0.3125 0.890625 -0.90625 1.53125q-0.578125 0.625 -1.421875 0.96875q-0.828125 0.328125 -1.859375 0.328125q-1.03125 0 -1.875 -0.328125q-0.828125 -0.34375 -1.421875 -0.96875q-0.578125 -0.640625 -0.90625 -1.53125q-0.3125 -0.90625 -0.3125 -2.03125q0 -1.109375 0.3125 -2.0q0.328125 -0.90625 0.90625 -1.53125q0.59375 -0.640625 1.421875 -0.984375q0.84375 -0.34375 1.875 -0.34375zm0 8.421875q1.390625 0 2.078125 -0.9375q0.703125 -0.9375 0.703125 -2.609375q0 -1.6875 -0.703125 -2.625q-0.6875 -0.953125 -2.078125 -0.953125q-0.703125 0 -1.234375 0.25q-0.515625 0.234375 -0.875 0.703125q-0.34375 0.453125 -0.515625 1.125q-0.171875 0.65625 -0.171875 1.5q0 0.84375 0.171875 1.5q0.171875 0.65625 0.515625 1.109375q0.359375 0.453125 0.875 0.703125q0.53125 0.234375 1.234375 0.234375zm13.201019 1.171875q-0.359375 0 -0.453125 -0.34375l-0.140625 -1.15625q-0.609375 0.75 -1.390625 1.1875q-0.78125 0.4375 -1.78125 0.4375q-0.8125 0 -1.484375 -0.3125q-0.65625 -0.3125 -1.125 -0.90625q-0.46875 -0.609375 -0.71875 -1.515625q-0.25 -0.90625 -0.25 -2.078125q0 -1.046875 0.28125 -1.9375q0.28125 -0.90625 0.796875 -1.5625q0.53125 -0.671875 1.28125 -1.046875q0.765625 -0.390625 1.71875 -0.390625q0.875 0 1.484375 0.296875q0.625 0.296875 1.109375 0.828125l0 -5.234375l1.65625 0l0 13.734375l-0.984375 0zm-3.21875 -1.21875q0.8125 0 1.421875 -0.359375q0.609375 -0.375 1.125 -1.0625l0 -4.5625q-0.453125 -0.625 -1.0 -0.875q-0.546875 -0.25 -1.21875 -0.25q-1.3125 0 -2.03125 0.953125q-0.703125 0.9375 -0.703125 2.6875q0 0.921875 0.15625 1.578125q0.15625 0.65625 0.46875 1.078125q0.3125 0.421875 0.75 0.625q0.453125 0.1875 1.03125 0.1875zm10.741333 -8.375q0.84375 0 1.5625 0.28125q0.71875 0.28125 1.234375 0.828125q0.53125 0.53125 0.8125 1.328125q0.296875 0.78125 0.296875 1.78125q0 0.390625 -0.078125 0.53125q-0.078125 0.125 -0.3125 0.125l-6.296875 0q0.015625 0.890625 0.234375 1.5625q0.234375 0.65625 0.625 1.109375q0.390625 0.4375 0.9375 0.65625q0.546875 0.21875 1.203125 0.21875q0.625 0 1.078125 -0.140625q0.453125 -0.15625 0.78125 -0.3125q0.328125 -0.171875 0.546875 -0.3125q0.21875 -0.15625 0.375 -0.15625q0.21875 0 0.328125 0.15625l0.46875 0.609375q-0.3125 0.375 -0.75 0.65625q-0.421875 0.265625 -0.921875 0.453125q-0.484375 0.171875 -1.015625 0.25q-0.515625 0.09375 -1.015625 0.09375q-0.984375 0 -1.8125 -0.328125q-0.828125 -0.328125 -1.4375 -0.96875q-0.59375 -0.640625 -0.9375 -1.578125q-0.328125 -0.9375 -0.328125 -2.171875q0 -0.984375 0.296875 -1.84375q0.3125 -0.859375 0.875 -1.484375q0.578125 -0.625 1.390625 -0.984375q0.828125 -0.359375 1.859375 -0.359375zm0.03125 1.21875q-1.203125 0 -1.890625 0.703125q-0.6875 0.6875 -0.859375 1.921875l5.140625 0q0 -0.578125 -0.171875 -1.0625q-0.15625 -0.484375 -0.46875 -0.828125q-0.296875 -0.359375 -0.75 -0.546875q-0.4375 -0.1875 -1.0 -0.1875zm7.838379 -5.359375l0 13.734375l-1.65625 0l0 -13.734375l1.65625 0zm17.798553 13.734375l-1.40625 0q-0.234375 0 -0.390625 -0.125q-0.140625 -0.125 -0.21875 -0.296875l-1.25 -3.234375l-6.0 0l-1.25 3.234375q-0.0625 0.15625 -0.234375 0.296875q-0.15625 0.125 -0.375 0.125l-1.40625 0l5.34375 -13.375l1.84375 0l5.34375 13.375zm-8.765625 -4.96875l5.0 0l-2.109375 -5.4375q-0.203125 -0.5 -0.390625 -1.25q-0.109375 0.375 -0.21875 0.703125q-0.09375 0.3125 -0.1875 0.5625l-2.09375 5.421875z" fill-rule="nonzero"/><path fill="#000000" fill-opacity="0.0" d="m169.77165 53.16127l50.078735 -0.062992096" fill-rule="evenodd"/><path stroke="#000000" stroke-width="1.0" stroke-linejoin="round" stroke-linecap="butt" d="m169.77165 53.161274l44.078735 -0.055446625" fill-rule="evenodd"/><path fill="#000000" stroke="#000000" stroke-width="1.0" stroke-linecap="butt" d="m213.85248 54.75756l4.5360107 -1.6574402l-4.540161 -1.6460228z" fill-rule="evenodd"/><path fill="#000000" fill-opacity="0.0" d="m371.77167 53.16127l50.078735 -0.062992096" fill-rule="evenodd"/><path stroke="#000000" stroke-width="1.0" stroke-linejoin="round" stroke-linecap="butt" d="m371.77167 53.161274l44.078735 -0.055446625" fill-rule="evenodd"/><path fill="#000000" stroke="#000000" stroke-width="1.0" stroke-linecap="butt" d="m415.85248 54.75756l4.5360107 -1.6574402l-4.540161 -1.6460228z" fill-rule="evenodd"/><path fill="#ffd966" d="m422.46457 37.947666l0 0c0 -4.4183655 3.581787 -8.00016 8.000153 -8.00016l101.511475 0c2.1218262 0 4.1566772 0.8428726 5.6569824 2.343193c1.5003052 1.5003204 2.3432007 3.5351944 2.3432007 5.656967l0 31.999683c0 4.4183655 -3.581787 8.00016 -8.000183 8.00016l-101.511475 0l0 0c-4.4183655 0 -8.000153 -3.5817947 -8.000153 -8.00016z" fill-rule="evenodd"/><path stroke="#000000" stroke-width="1.0" stroke-linejoin="round" stroke-linecap="butt" d="m422.46457 37.947666l0 0c0 -4.4183655 3.581787 -8.00016 8.000153 -8.00016l101.511475 0c2.1218262 0 4.1566772 0.8428726 5.6569824 2.343193c1.5003052 1.5003204 2.3432007 3.5351944 2.3432007 5.656967l0 31.999683c0 4.4183655 -3.581787 8.00016 -8.000183 8.00016l-101.511475 0l0 0c-4.4183655 0 -8.000153 -3.5817947 -8.000153 -8.00016z" fill-rule="evenodd"/><path fill="#000000" d="m441.1779 60.867504l0 -13.359375l5.046875 0q1.328125 0 2.03125 0.125q0.96875 0.171875 1.640625 0.640625q0.671875 0.453125 1.078125 1.28125q0.40625 0.828125 0.40625 1.828125q0 1.703125 -1.09375 2.890625q-1.078125 1.171875 -3.921875 1.171875l-3.421875 0l0 5.421875l-1.765625 0zm1.765625 -7.0l3.453125 0q1.71875 0 2.4375 -0.640625q0.71875 -0.640625 0.71875 -1.796875q0 -0.84375 -0.421875 -1.4375q-0.421875 -0.59375 -1.125 -0.78125q-0.4375 -0.125 -1.640625 -0.125l-3.421875 0l0 4.78125zm10.459198 7.0l0 -9.671875l1.46875 0l0 1.46875q0.5625 -1.03125 1.03125 -1.359375q0.484375 -0.328125 1.0625 -0.328125q0.828125 0 1.6875 0.53125l-0.5625 1.515625q-0.609375 -0.359375 -1.203125 -0.359375q-0.546875 0 -0.96875 0.328125q-0.421875 0.328125 -0.609375 0.890625q-0.28125 0.875 -0.28125 1.921875l0 5.0625l-1.625 0zm12.853302 -3.109375l1.6875 0.203125q-0.40625 1.484375 -1.484375 2.3125q-1.078125 0.8125 -2.765625 0.8125q-2.125 0 -3.375 -1.296875q-1.234375 -1.3125 -1.234375 -3.671875q0 -2.453125 1.25 -3.796875q1.265625 -1.34375 3.265625 -1.34375q1.9375 0 3.15625 1.328125q1.234375 1.3125 1.234375 3.703125q0 0.15625 0 0.4375l-7.21875 0q0.09375 1.59375 0.90625 2.453125q0.8125 0.84375 2.015625 0.84375q0.90625 0 1.546875 -0.46875q0.640625 -0.484375 1.015625 -1.515625zm-5.390625 -2.65625l5.40625 0q-0.109375 -1.21875 -0.625 -1.828125q-0.78125 -0.953125 -2.03125 -0.953125q-1.125 0 -1.90625 0.765625q-0.765625 0.75 -0.84375 2.015625zm15.406952 5.765625l0 -1.21875q-0.90625 1.4375 -2.703125 1.4375q-1.15625 0 -2.125 -0.640625q-0.96875 -0.640625 -1.5 -1.78125q-0.53125 -1.140625 -0.53125 -2.625q0 -1.453125 0.484375 -2.625q0.484375 -1.1875 1.4375 -1.8125q0.96875 -0.625 2.171875 -0.625q0.875 0 1.546875 0.375q0.6875 0.359375 1.109375 0.953125l0 -4.796875l1.640625 0l0 13.359375l-1.53125 0zm-5.171875 -4.828125q0 1.859375 0.78125 2.78125q0.78125 0.921875 1.84375 0.921875q1.078125 0 1.828125 -0.875q0.75 -0.890625 0.75 -2.6875q0 -1.984375 -0.765625 -2.90625q-0.765625 -0.9375 -1.890625 -0.9375q-1.078125 0 -1.8125 0.890625q-0.734375 0.890625 -0.734375 2.8125zm9.281982 -6.640625l0 -1.890625l1.640625 0l0 1.890625l-1.640625 0zm0 11.46875l0 -9.671875l1.640625 0l0 9.671875l-1.640625 0zm10.457306 -3.546875l1.609375 0.21875q-0.265625 1.65625 -1.359375 2.609375q-1.078125 0.9375 -2.671875 0.9375q-1.984375 0 -3.1875 -1.296875q-1.203125 -1.296875 -1.203125 -3.71875q0 -1.578125 0.515625 -2.75q0.515625 -1.171875 1.578125 -1.75q1.0625 -0.59375 2.3125 -0.59375q1.578125 0 2.578125 0.796875q1.0 0.796875 1.28125 2.265625l-1.59375 0.234375q-0.234375 -0.96875 -0.8125 -1.453125q-0.578125 -0.5 -1.390625 -0.5q-1.234375 0 -2.015625 0.890625q-0.78125 0.890625 -0.78125 2.8125q0 1.953125 0.75 2.84375q0.75 0.875 1.953125 0.875q0.96875 0 1.609375 -0.59375q0.65625 -0.59375 0.828125 -1.828125zm6.59375 2.078125l0.234375 1.453125q-0.6875 0.140625 -1.234375 0.140625q-0.890625 0 -1.390625 -0.28125q-0.484375 -0.28125 -0.6875 -0.734375q-0.203125 -0.46875 -0.203125 -1.9375l0 -5.578125l-1.203125 0l0 -1.265625l1.203125 0l0 -2.390625l1.625 -0.984375l0 3.375l1.65625 0l0 1.265625l-1.65625 0l0 5.671875q0 0.6875 0.078125 0.890625q0.09375 0.203125 0.28125 0.328125q0.203125 0.109375 0.578125 0.109375q0.265625 0 0.71875 -0.0625zm1.6051941 -10.0l0 -1.890625l1.640625 0l0 1.890625l-1.640625 0zm0 11.46875l0 -9.671875l1.640625 0l0 9.671875l-1.640625 0zm3.535431 -4.84375q0 -2.6875 1.484375 -3.96875q1.25 -1.078125 3.046875 -1.078125q2.0 0 3.265625 1.3125q1.265625 1.296875 1.265625 3.609375q0 1.859375 -0.5625 2.9375q-0.5625 1.0625 -1.640625 1.65625q-1.0625 0.59375 -2.328125 0.59375q-2.03125 0 -3.28125 -1.296875q-1.25 -1.3125 -1.25 -3.765625zm1.6875 0q0 1.859375 0.796875 2.796875q0.8125 0.921875 2.046875 0.921875q1.21875 0 2.03125 -0.921875q0.8125 -0.9375 0.8125 -2.84375q0 -1.796875 -0.8125 -2.71875q-0.8125 -0.921875 -2.03125 -0.921875q-1.234375 0 -2.046875 0.921875q-0.796875 0.90625 -0.796875 2.765625zm9.297577 4.84375l0 -9.671875l1.46875 0l0 1.375q1.0625 -1.59375 3.078125 -1.59375q0.875 0 1.609375 0.3125q0.734375 0.3125 1.09375 0.828125q0.375 0.5 0.515625 1.203125q0.09375 0.453125 0.09375 1.59375l0 5.953125l-1.640625 0l0 -5.890625q0 -1.0 -0.203125 -1.484375q-0.1875 -0.5 -0.671875 -0.796875q-0.484375 -0.296875 -1.140625 -0.296875q-1.046875 0 -1.8125 0.671875q-0.75 0.65625 -0.75 2.515625l0 5.28125l-1.640625 0z" fill-rule="nonzero"/></g></svg>