<svg version="1.1" viewBox="0.0 0.0 909.6062992125984 178.748031496063" fill="none" stroke="none" stroke-linecap="square" stroke-miterlimit="10" xmlns:xlink="http://www.w3.org/1999/xlink" xmlns="http://www.w3.org/2000/svg"><clipPath id="p.0"><path d="m0 0l909.6063 0l0 178.74803l-909.6063 0l0 -178.74803z" clip-rule="nonzero"/></clipPath><g clip-path="url(#p.0)"><path fill="#000000" fill-opacity="0.0" d="m0 0l909.6063 0l0 178.74803l-909.6063 0z" fill-rule="evenodd"/><path fill="#fff2cc" d="m13.653543 128.81633l44.850395 0l0 37.543304l-44.850395 0z" fill-rule="evenodd"/><path stroke="#000000" stroke-width="1.0" stroke-linejoin="round" stroke-linecap="butt" d="m13.653543 128.81633l44.850395 0l0 37.543304l-44.850395 0z" fill-rule="evenodd"/><path fill="#d9ead3" d="m220.02887 10.301837l149.10236 0l0 42.614174l-149.10236 0z" fill-rule="evenodd"/><path stroke="#38761d" stroke-width="1.0" stroke-linejoin="round" stroke-linecap="butt" d="m220.02887 10.301837l149.10236 0l0 42.614174l-149.10236 0z" fill-rule="evenodd"/><path fill="#000000" d="m268.38104 33.700798q0.125 0.21875 0.21875 0.46875q0.109375 0.25 0.203125 0.5q0.09375 -0.265625 0.1875 -0.5q0.109375 -0.234375 0.234375 -0.484375l4.53125 -8.21875q0.109375 -0.21875 0.234375 -0.265625q0.140625 -0.046875 0.390625 -0.046875l1.328125 0l0 13.375l-1.578125 0l0 -9.828125q0 -0.1875 0 -0.40625q0.015625 -0.234375 0.03125 -0.46875l-4.578125 8.359375q-0.234375 0.421875 -0.65625 0.421875l-0.265625 0q-0.421875 0 -0.65625 -0.421875l-4.671875 -8.390625q0.03125 0.25 0.03125 0.484375q0.015625 0.234375 0.015625 0.421875l0 9.828125l-1.578125 0l0 -13.375l1.328125 0q0.25 0 0.375 0.046875q0.125 0.046875 0.25 0.265625l4.625 8.234375l0 0zm14.148132 -4.765625q1.03125 0 1.859375 0.34375q0.84375 0.34375 1.421875 0.984375q0.59375 0.625 0.90625 1.53125q0.3125 0.890625 0.3125 2.0q0 1.125 -0.3125 2.03125q-0.3125 0.890625 -0.90625 1.53125q-0.578125 0.625 -1.421875 0.96875q-0.828125 0.328125 -1.859375 0.328125q-1.03125 0 -1.875 -0.328125q-0.828125 -0.34375 -1.421875 -0.96875q-0.578125 -0.640625 -0.90625 -1.53125q-0.3125 -0.90625 -0.3125 -2.03125q0 -1.109375 0.3125 -2.0q0.328125 -0.90625 0.90625 -1.53125q0.59375 -0.640625 1.421875 -0.984375q0.84375 -0.34375 1.875 -0.34375zm0 8.421875q1.390625 0 2.078125 -0.9375q0.703125 -0.9375 0.703125 -2.609375q0 -1.6875 -0.703125 -2.625q-0.6875 -0.953125 -2.078125 -0.953125q-0.703125 0 -1.234375 0.25q-0.515625 0.234375 -0.875 0.703125q-0.34375 0.453125 -0.515625 1.125q-0.171875 0.65625 -0.171875 1.5q0 0.84375 0.171875 1.5q0.171875 0.65625 0.515625 1.109375q0.359375 0.453125 0.875 0.703125q0.53125 0.234375 1.234375 0.234375zm13.200989 1.171875q-0.359375 0 -0.453125 -0.34375l-0.140625 -1.15625q-0.609375 0.75 -1.390625 1.1875q-0.78125 0.4375 -1.78125 0.4375q-0.8125 0 -1.484375 -0.3125q-0.65625 -0.3125 -1.125 -0.90625q-0.46875 -0.609375 -0.71875 -1.515625q-0.25 -0.90625 -0.25 -2.078125q0 -1.046875 0.28125 -1.9375q0.28125 -0.90625 0.796875 -1.5625q0.53125 -0.671875 1.28125 -1.046875q0.765625 -0.390625 1.71875 -0.390625q0.875 0 1.484375 0.296875q0.625 0.296875 1.109375 0.828125l0 -5.234375l1.65625 0l0 13.734375l-0.984375 0zm-3.21875 -1.21875q0.8125 0 1.421875 -0.359375q0.609375 -0.375 1.125 -1.0625l0 -4.5625q-0.453125 -0.625 -1.0 -0.875q-0.546875 -0.25 -1.21875 -0.25q-1.3125 0 -2.03125 0.953125q-0.703125 0.9375 -0.703125 2.6875q0 0.921875 0.15625 1.578125q0.15625 0.65625 0.46875 1.078125q0.3125 0.421875 0.75 0.625q0.453125 0.1875 1.03125 0.1875zm10.741364 -8.375q0.84375 0 1.5625 0.28125q0.71875 0.28125 1.234375 0.828125q0.53125 0.53125 0.8125 1.328125q0.296875 0.78125 0.296875 1.78125q0 0.390625 -0.078125 0.53125q-0.078125 0.125 -0.3125 0.125l-6.296875 0q0.015625 0.890625 0.234375 1.5625q0.234375 0.65625 0.625 1.109375q0.390625 0.4375 0.9375 0.65625q0.546875 0.21875 1.203125 0.21875q0.625 0 1.078125 -0.140625q0.453125 -0.15625 0.78125 -0.3125q0.328125 -0.171875 0.546875 -0.3125q0.21875 -0.15625 0.375 -0.15625q0.21875 0 0.328125 0.15625l0.46875 0.609375q-0.3125 0.375 -0.75 0.65625q-0.421875 0.265625 -0.921875 0.453125q-0.484375 0.171875 -1.015625 0.25q-0.515625 0.09375 -1.015625 0.09375q-0.984375 0 -1.8125 -0.328125q-0.828125 -0.328125 -1.4375 -0.96875q-0.59375 -0.640625 -0.9375 -1.578125q-0.328125 -0.9375 -0.328125 -2.171875q0 -0.984375 0.296875 -1.84375q0.3125 -0.859375 0.875 -1.484375q0.578125 -0.625 1.390625 -0.984375q0.828125 -0.359375 1.859375 -0.359375zm0.03125 1.21875q-1.203125 0 -1.890625 0.703125q-0.6875 0.6875 -0.859375 1.921875l5.140625 0q0 -0.578125 -0.171875 -1.0625q-0.15625 -0.484375 -0.46875 -0.828125q-0.296875 -0.359375 -0.75 -0.546875q-0.4375 -0.1875 -1.0 -0.1875zm7.838379 -5.359375l0 13.734375l-1.65625 0l0 -13.734375l1.65625 0zm17.798523 13.734375l-1.40625 0q-0.234375 0 -0.390625 -0.125q-0.140625 -0.125 -0.21875 -0.296875l-1.25 -3.234375l-6.0 0l-1.25 3.234375q-0.0625 0.15625 -0.234375 0.296875q-0.15625 0.125 -0.375 0.125l-1.40625 0l5.34375 -13.375l1.84375 0l5.34375 13.375zm-8.765625 -4.96875l5.0 0l-2.109375 -5.4375q-0.203125 -0.5 -0.390625 -1.25q-0.109375 0.375 -0.21875 0.703125q-0.09375 0.3125 -0.1875 0.5625l-2.09375 5.421875z" fill-rule="nonzero"/><path fill="#d9ead3" d="m220.02887 66.301834l149.10236 0l0 42.614174l-149.10236 0z" fill-rule="evenodd"/><path stroke="#38761d" stroke-width="1.0" stroke-linejoin="round" stroke-linecap="butt" d="m220.02887 66.301834l149.10236 0l0 42.614174l-149.10236 0z" fill-rule="evenodd"/><path fill="#000000" d="m268.68887 89.7008q0.125 0.21875 0.21875 0.46875q0.109375 0.25 0.203125 0.5q0.09375 -0.265625 0.1875 -0.5q0.109375 -0.234375 0.234375 -0.484375l4.53125 -8.21875q0.109375 -0.21875 0.234375 -0.265625q0.140625 -0.046875 0.390625 -0.046875l1.328125 0l0 13.375l-1.578125 0l0 -9.828125q0 -0.1875 0 -0.40625q0.015625 -0.234375 0.03125 -0.46875l-4.578125 8.359375q-0.234375 0.421875 -0.65625 0.421875l-0.265625 0q-0.421875 0 -0.65625 -0.421875l-4.671875 -8.390625q0.03125 0.25 0.03125 0.484375q0.015625 0.234375 0.015625 0.421875l0 9.828125l-1.578125 0l0 -13.375l1.328125 0q0.25 0 0.375 0.046875q0.125 0.046875 0.25 0.265625l4.625 8.234375l0 0zm14.148132 -4.765625q1.03125 0 1.859375 0.34375q0.84375 0.34375 1.421875 0.984375q0.59375 0.625 0.90625 1.53125q0.3125 0.890625 0.3125 2.0q0 1.125 -0.3125 2.03125q-0.3125 0.890625 -0.90625 1.53125q-0.578125 0.625 -1.421875 0.96875q-0.828125 0.328125 -1.859375 0.328125q-1.03125 0 -1.875 -0.328125q-0.828125 -0.34375 -1.421875 -0.96875q-0.578125 -0.640625 -0.90625 -1.53125q-0.3125 -0.90625 -0.3125 -2.03125q0 -1.109375 0.3125 -2.0q0.328125 -0.90625 0.90625 -1.53125q0.59375 -0.640625 1.421875 -0.984375q0.84375 -0.34375 1.875 -0.34375zm0 8.421875q1.390625 0 2.078125 -0.9375q0.703125 -0.9375 0.703125 -2.609375q0 -1.6875 -0.703125 -2.625q-0.6875 -0.953125 -2.078125 -0.953125q-0.703125 0 -1.234375 0.25q-0.515625 0.234375 -0.875 0.703125q-0.34375 0.453125 -0.515625 1.125q-0.171875 0.65625 -0.171875 1.5q0 0.84375 0.171875 1.5q0.171875 0.65625 0.515625 1.109375q0.359375 0.453125 0.875 0.703125q0.53125 0.234375 1.234375 0.234375zm13.200989 1.171875q-0.359375 0 -0.453125 -0.34375l-0.140625 -1.15625q-0.609375 0.75 -1.390625 1.1875q-0.78125 0.4375 -1.78125 0.4375q-0.8125 0 -1.484375 -0.3125q-0.65625 -0.3125 -1.125 -0.90625q-0.46875 -0.609375 -0.71875 -1.515625q-0.25 -0.90625 -0.25 -2.078125q0 -1.046875 0.28125 -1.9375q0.28125 -0.90625 0.796875 -1.5625q0.53125 -0.671875 1.28125 -1.046875q0.765625 -0.390625 1.71875 -0.390625q0.875 0 1.484375 0.296875q0.625 0.296875 1.109375 0.828125l0 -5.234375l1.65625 0l0 13.734375l-0.984375 0zm-3.21875 -1.21875q0.8125 0 1.421875 -0.359375q0.609375 -0.375 1.125 -1.0625l0 -4.5625q-0.453125 -0.625 -1.0 -0.875q-0.546875 -0.25 -1.21875 -0.25q-1.3125 0 -2.03125 0.953125q-0.703125 0.9375 -0.703125 2.6875q0 0.921875 0.15625 1.578125q0.15625 0.65625 0.46875 1.078125q0.3125 0.421875 0.75 0.625q0.453125 0.1875 1.03125 0.1875zm10.741364 -8.375q0.84375 0 1.5625 0.28125q0.71875 0.28125 1.234375 0.828125q0.53125 0.53125 0.8125 1.328125q0.296875 0.78125 0.296875 1.78125q0 0.390625 -0.078125 0.53125q-0.078125 0.125 -0.3125 0.125l-6.296875 0q0.015625 0.890625 0.234375 1.5625q0.234375 0.65625 0.625 1.109375q0.390625 0.4375 0.9375 0.65625q0.546875 0.21875 1.203125 0.21875q0.625 0 1.078125 -0.140625q0.453125 -0.15625 0.78125 -0.3125q0.328125 -0.171875 0.546875 -0.3125q0.21875 -0.15625 0.375 -0.15625q0.21875 0 0.328125 0.15625l0.46875 0.609375q-0.3125 0.375 -0.75 0.65625q-0.421875 0.265625 -0.921875 0.453125q-0.484375 0.171875 -1.015625 0.25q-0.515625 0.09375 -1.015625 0.09375q-0.984375 0 -1.8125 -0.328125q-0.828125 -0.328125 -1.4375 -0.96875q-0.59375 -0.640625 -0.9375 -1.578125q-0.328125 -0.9375 -0.328125 -2.171875q0 -0.984375 0.296875 -1.84375q0.3125 -0.859375 0.875 -1.484375q0.578125 -0.625 1.390625 -0.984375q0.828125 -0.359375 1.859375 -0.359375zm0.03125 1.21875q-1.203125 0 -1.890625 0.703125q-0.6875 0.6875 -0.859375 1.921875l5.140625 0q0 -0.578125 -0.171875 -1.0625q-0.15625 -0.484375 -0.46875 -0.828125q-0.296875 -0.359375 -0.75 -0.546875q-0.4375 -0.1875 -1.0 -0.1875zm7.838379 -5.359375l0 13.734375l-1.65625 0l0 -13.734375l1.65625 0zm6.798523 13.734375l0 -13.375l4.265625 0q1.234375 0 2.125 0.25q0.890625 0.25 1.453125 0.703125q0.578125 0.4375 0.84375 1.09375q0.28125 0.640625 0.28125 1.453125q0 0.484375 -0.15625 0.953125q-0.15625 0.453125 -0.46875 0.84375q-0.3125 0.390625 -0.78125 0.703125q-0.46875 0.296875 -1.09375 0.5q1.453125 0.296875 2.203125 1.0625q0.75 0.75 0.75 2.0q0 0.859375 -0.3125 1.5625q-0.3125 0.6875 -0.921875 1.203125q-0.59375 0.5 -1.46875 0.78125q-0.875 0.265625 -1.984375 0.265625l-4.734375 0zm1.8125 -6.09375l0 4.65625l2.890625 0q0.765625 0 1.3125 -0.171875q0.5625 -0.1875 0.921875 -0.5q0.359375 -0.328125 0.53125 -0.765625q0.171875 -0.453125 0.171875 -0.984375q0 -1.03125 -0.734375 -1.625q-0.734375 -0.609375 -2.21875 -0.609375l-2.875 0zm0 -1.28125l2.390625 0q0.75 0 1.3125 -0.171875q0.5625 -0.171875 0.921875 -0.46875q0.375 -0.296875 0.546875 -0.71875q0.1875 -0.421875 0.1875 -0.921875q0 -1.1875 -0.71875 -1.734375q-0.703125 -0.546875 -2.1875 -0.546875l-2.453125 0l0 4.5625z" fill-rule="nonzero"/><path fill="#d9ead3" d="m570.67456 65.32546l152.66138 0l0 42.614174l-152.66138 0z" fill-rule="evenodd"/><path stroke="#38761d" stroke-width="1.0" stroke-linejoin="round" stroke-linecap="butt" d="m570.67456 65.32546l152.66138 0l0 42.614174l-152.66138 0z" fill-rule="evenodd"/><path fill="#000000" d="m621.15137 88.72442q0.125 0.21875 0.21875 0.46875q0.109375 0.25 0.203125 0.5q0.09375 -0.265625 0.1875 -0.5q0.109375 -0.234375 0.234375 -0.484375l4.53125 -8.21875q0.109375 -0.21875 0.234375 -0.265625q0.140625 -0.046875 0.390625 -0.046875l1.328125 0l0 13.375l-1.578125 0l0 -9.828125q0 -0.1875 0 -0.40625q0.015625 -0.234375 0.03125 -0.46875l-4.578125 8.359375q-0.234375 0.421875 -0.65625 0.421875l-0.265625 0q-0.421875 0 -0.65625 -0.421875l-4.671875 -8.390625q0.03125 0.25 0.03125 0.484375q0.015625 0.234375 0.015625 0.421875l0 9.828125l-1.578125 0l0 -13.375l1.328125 0q0.25 0 0.375 0.046875q0.125 0.046875 0.25 0.265625l4.625 8.234375l0 0zm14.148132 -4.765625q1.03125 0 1.859375 0.34375q0.84375 0.34375 1.421875 0.984375q0.59375 0.625 0.90625 1.53125q0.3125 0.890625 0.3125 2.0q0 1.125 -0.3125 2.03125q-0.3125 0.890625 -0.90625 1.53125q-0.578125 0.625 -1.421875 0.96875q-0.828125 0.328125 -1.859375 0.328125q-1.03125 0 -1.875 -0.328125q-0.828125 -0.34375 -1.421875 -0.96875q-0.578125 -0.640625 -0.90625 -1.53125q-0.3125 -0.90625 -0.3125 -2.03125q0 -1.109375 0.3125 -2.0q0.328125 -0.90625 0.90625 -1.53125q0.59375 -0.640625 1.421875 -0.984375q0.84375 -0.34375 1.875 -0.34375zm0 8.421875q1.390625 0 2.078125 -0.9375q0.703125 -0.9375 0.703125 -2.609375q0 -1.6875 -0.703125 -2.625q-0.6875 -0.953125 -2.078125 -0.953125q-0.703125 0 -1.234375 0.25q-0.515625 0.234375 -0.875 0.703125q-0.34375 0.453125 -0.515625 1.125q-0.171875 0.65625 -0.171875 1.5q0 0.84375 0.171875 1.5q0.171875 0.65625 0.515625 1.109375q0.359375 0.453125 0.875 0.703125q0.53125 0.234375 1.234375 0.234375zm13.200989 1.171875q-0.359375 0 -0.453125 -0.34375l-0.140625 -1.15625q-0.609375 0.75 -1.390625 1.1875q-0.78125 0.4375 -1.78125 0.4375q-0.8125 0 -1.484375 -0.3125q-0.65625 -0.3125 -1.125 -0.90625q-0.46875 -0.609375 -0.71875 -1.515625q-0.25 -0.90625 -0.25 -2.078125q0 -1.046875 0.28125 -1.9375q0.28125 -0.90625 0.796875 -1.5625q0.53125 -0.671875 1.28125 -1.046875q0.765625 -0.390625 1.71875 -0.390625q0.875 0 1.484375 0.296875q0.625 0.296875 1.109375 0.828125l0 -5.234375l1.65625 0l0 13.734375l-0.984375 0zm-3.21875 -1.21875q0.8125 0 1.421875 -0.359375q0.609375 -0.375 1.125 -1.0625l0 -4.5625q-0.453125 -0.625 -1.0 -0.875q-0.546875 -0.25 -1.21875 -0.25q-1.3125 0 -2.03125 0.953125q-0.703125 0.9375 -0.703125 2.6875q0 0.921875 0.15625 1.578125q0.15625 0.65625 0.46875 1.078125q0.3125 0.421875 0.75 0.625q0.453125 0.1875 1.03125 0.1875zm10.741394 -8.375q0.84375 0 1.5625 0.28125q0.71875 0.28125 1.234375 0.828125q0.53125 0.53125 0.8125 1.328125q0.296875 0.78125 0.296875 1.78125q0 0.390625 -0.078125 0.53125q-0.078125 0.125 -0.3125 0.125l-6.296875 0q0.015625 0.890625 0.234375 1.5625q0.234375 0.65625 0.625 1.109375q0.390625 0.4375 0.9375 0.65625q0.546875 0.21875 1.203125 0.21875q0.625 0 1.078125 -0.140625q0.453125 -0.15625 0.78125 -0.3125q0.328125 -0.171875 0.546875 -0.3125q0.21875 -0.15625 0.375 -0.15625q0.21875 0 0.328125 0.15625l0.46875 0.609375q-0.3125 0.375 -0.75 0.65625q-0.421875 0.265625 -0.921875 0.453125q-0.484375 0.171875 -1.015625 0.25q-0.515625 0.09375 -1.015625 0.09375q-0.984375 0 -1.8125 -0.328125q-0.828125 -0.328125 -1.4375 -0.96875q-0.59375 -0.640625 -0.9375 -1.578125q-0.328125 -0.9375 -0.328125 -2.171875q0 -0.984375 0.296875 -1.84375q0.3125 -0.859375 0.875 -1.484375q0.578125 -0.625 1.390625 -0.984375q0.828125 -0.359375 1.859375 -0.359375zm0.03125 1.21875q-1.203125 0 -1.890625 0.703125q-0.6875 0.6875 -0.859375 1.921875l5.140625 0q0 -0.578125 -0.171875 -1.0625q-0.15625 -0.484375 -0.46875 -0.828125q-0.296875 -0.359375 -0.75 -0.546875q-0.4375 -0.1875 -1.0 -0.1875zm7.838379 -5.359375l0 13.734375l-1.65625 0l0 -13.734375l1.65625 0zm9.907898 6.875l-4.421875 -6.515625l1.8125 0q0.1875 0 0.28125 0.078125q0.09375 0.0625 0.171875 0.1875l3.484375 5.34375q0.0625 -0.1875 0.203125 -0.421875l3.28125 -4.890625q0.09375 -0.125 0.1875 -0.203125q0.09375 -0.09375 0.234375 -0.09375l1.734375 0l-4.4375 6.421875l4.578125 6.953125l-1.78125 0q-0.21875 0 -0.328125 -0.109375q-0.109375 -0.109375 -0.1875 -0.234375l-3.59375 -5.609375q-0.0625 0.203125 -0.15625 0.375l-3.5 5.234375q-0.078125 0.125 -0.1875 0.234375q-0.109375 0.109375 -0.296875 0.109375l-1.6875 0l4.609375 -6.859375z" fill-rule="nonzero"/><path fill="#ffffff" d="m13.653543 13.37823l44.850395 0l0 116.314964l-44.850395 0z" fill-rule="evenodd"/><path stroke="#000000" stroke-width="1.0" stroke-linejoin="round" stroke-linecap="butt" d="m13.653543 13.37823l44.850395 0l0 116.314964l-44.850395 0z" fill-rule="evenodd"/><path fill="#ff0000" d="m27.370062 33.754475l0 0c0 -1.6177177 1.3114185 -2.9291363 2.9291344 -2.9291363l0 0c0.77685356 0 1.5218906 0.3086052 2.0712109 0.8579235c0.5493164 0.5493202 0.8579216 1.2943573 0.8579216 2.0712128l0 0c0 1.6177139 -1.3114166 2.9291306 -2.9291325 2.9291306l0 0c-1.6177158 0 -2.9291344 -1.3114166 -2.9291344 -2.9291306z" fill-rule="evenodd"/><path fill="#ff9900" d="m35.370064 49.754475l0 0c0 -1.6177177 1.3114166 -2.9291344 2.9291306 -2.9291344l0 0c0.77685547 0 1.5218925 0.30860138 2.0712128 0.8579216c0.5493164 0.5493202 0.8579216 1.2943573 0.8579216 2.0712128l0 0c0 1.6177139 -1.3114166 2.9291306 -2.9291344 2.9291306l0 0c-1.6177139 0 -2.9291306 -1.3114166 -2.9291306 -2.9291306z" fill-rule="evenodd"/><path fill="#ffff00" d="m27.370062 65.75447l0 0c0 -1.6177139 1.3114185 -2.9291306 2.9291344 -2.9291306l0 0c0.77685356 0 1.5218906 0.30860138 2.0712109 0.8579216c0.5493164 0.5493202 0.8579216 1.2943535 0.8579216 2.071209l0 0c0 1.6177216 -1.3114166 2.9291382 -2.9291325 2.9291382l0 0c-1.6177158 0 -2.9291344 -1.3114166 -2.9291344 -2.9291382z" fill-rule="evenodd"/><path fill="#00ff00" d="m51.370064 65.75447l0 0c0 -1.6177139 1.3114166 -2.9291306 2.9291306 -2.9291306l0 0c0.77685547 0 1.5218925 0.30860138 2.0712128 0.8579216c0.5493164 0.5493202 0.8579216 1.2943535 0.8579216 2.071209l0 0c0 1.6177216 -1.3114166 2.9291382 -2.9291344 2.9291382l0 0c-1.6177139 0 -2.9291306 -1.3114166 -2.9291306 -2.9291382z" fill-rule="evenodd"/><path fill="#00ffff" d="m51.370064 39.61274l0 0c0 -1.6177139 1.3114166 -2.9291344 2.9291306 -2.9291344l0 0c0.77685547 0 1.5218925 0.3086052 2.0712128 0.8579254c0.5493164 0.5493202 0.8579216 1.2943573 0.8579216 2.071209l0 0c0 1.6177177 -1.3114166 2.9291344 -2.9291344 2.9291344l0 0c-1.6177139 0 -2.9291306 -1.3114166 -2.9291306 -2.9291344z" fill-rule="evenodd"/><path fill="#4a86e8" d="m42.534794 81.75447l0 0c0 -1.6177139 1.3114204 -2.9291306 2.9291344 -2.9291306l0 0c0.77685547 0 1.5218925 0.30860138 2.0712128 0.8579254c0.5493164 0.5493164 0.8579216 1.2943497 0.8579216 2.0712051l0 0c0 1.6177216 -1.3114166 2.9291382 -2.9291344 2.9291382l0 0c-1.6177139 0 -2.9291344 -1.3114166 -2.9291344 -2.9291382z" fill-rule="evenodd"/><path fill="#0000ff" d="m19.370062 49.754475l0 0c0 -1.6177177 1.3114185 -2.9291344 2.9291344 -2.9291344l0 0c0.77685356 0 1.5218906 0.30860138 2.0712109 0.8579216c0.5493183 0.5493202 0.8579235 1.2943573 0.8579235 2.0712128l0 0c0 1.6177139 -1.3114185 2.9291306 -2.9291344 2.9291306l0 0c-1.6177158 0 -2.9291344 -1.3114166 -2.9291344 -2.9291306z" fill-rule="evenodd"/><path fill="#9900ff" d="m35.370064 73.75447l0 0c0 -1.6177139 1.3114166 -2.9291306 2.9291306 -2.9291306l0 0c0.77685547 0 1.5218925 0.30860138 2.0712128 0.8579254c0.5493164 0.5493164 0.8579216 1.2943497 0.8579216 2.0712051l0 0c0 1.6177216 -1.3114166 2.9291382 -2.9291344 2.9291382l0 0c-1.6177139 0 -2.9291306 -1.3114166 -2.9291306 -2.9291382z" fill-rule="evenodd"/><path fill="#ff00ff" d="m19.370062 81.75447l0 0c0 -1.6177139 1.3114185 -2.9291306 2.9291344 -2.9291306l0 0c0.77685356 0 1.5218906 0.30860138 2.0712109 0.8579254c0.5493183 0.5493164 0.8579235 1.2943497 0.8579235 2.0712051l0 0c0 1.6177216 -1.3114185 2.9291382 -2.9291344 2.9291382l0 0c-1.6177158 0 -2.9291344 -1.3114166 -2.9291344 -2.9291382z" fill-rule="evenodd"/><path fill="#cc4125" d="m51.370064 97.75447l0 0c0 -1.6177139 1.3114166 -2.9291306 2.9291306 -2.9291306l0 0c0.77685547 0 1.5218925 0.30860138 2.0712128 0.8579254c0.5493164 0.5493164 0.8579216 1.2943497 0.8579216 2.0712051l0 0c0 1.6177216 -1.3114166 2.9291382 -2.9291344 2.9291382l0 0c-1.6177139 0 -2.9291306 -1.3114166 -2.9291306 -2.9291382z" fill-rule="evenodd"/><path fill="#e06666" d="m27.370062 97.75447l0 0c0 -1.6177139 1.3114185 -2.9291306 2.9291344 -2.9291306l0 0c0.77685356 0 1.5218906 0.30860138 2.0712109 0.8579254c0.5493164 0.5493164 0.8579216 1.2943497 0.8579216 2.0712051l0 0c0 1.6177216 -1.3114166 2.9291382 -2.9291325 2.9291382l0 0c-1.6177158 0 -2.9291344 -1.3114166 -2.9291344 -2.9291382z" fill-rule="evenodd"/><path fill="#f6b26b" d="m19.370062 113.75447l0 0c0 -1.6177139 1.3114185 -2.9291306 2.9291344 -2.9291306l0 0c0.77685356 0 1.5218906 0.30860138 2.0712109 0.8579254c0.5493183 0.5493164 0.8579235 1.2943497 0.8579235 2.0712051l0 0c0 1.6177216 -1.3114185 2.9291382 -2.9291344 2.9291382l0 0c-1.6177158 0 -2.9291344 -1.3114166 -2.9291344 -2.9291382z" fill-rule="evenodd"/><path fill="#ffd966" d="m35.370064 105.75447l0 0c0 -1.6177139 1.3114166 -2.9291306 2.9291306 -2.9291306l0 0c0.77685547 0 1.5218925 0.30860138 2.0712128 0.8579254c0.5493164 0.5493164 0.8579216 1.2943497 0.8579216 2.0712051l0 0c0 1.6177216 -1.3114166 2.9291382 -2.9291344 2.9291382l0 0c-1.6177139 0 -2.9291306 -1.3114166 -2.9291306 -2.9291382z" fill-rule="evenodd"/><path fill="#93c47d" d="m35.370064 137.75447l0 0c0 -1.6177063 1.3114166 -2.9291382 2.9291306 -2.9291382l0 0c0.77685547 0 1.5218925 0.308609 2.0712128 0.8579254c0.5493164 0.5493164 0.8579216 1.2943573 0.8579216 2.0712128l0 0c0 1.6177216 -1.3114166 2.9291382 -2.9291344 2.9291382l0 0c-1.6177139 0 -2.9291306 -1.3114166 -2.9291306 -2.9291382z" fill-rule="evenodd"/><path fill="#76a5af" d="m27.370062 121.75447l0 0c0 -1.6177139 1.3114185 -2.9291306 2.9291344 -2.9291306l0 0c0.77685356 0 1.5218906 0.30860138 2.0712109 0.8579254c0.5493164 0.5493164 0.8579216 1.2943497 0.8579216 2.0712051l0 0c0 1.6177216 -1.3114166 2.9291382 -2.9291325 2.9291382l0 0c-1.6177158 0 -2.9291344 -1.3114166 -2.9291344 -2.9291382z" fill-rule="evenodd"/><path fill="#6d9eeb" d="m43.370064 137.75447l0 0c0 -1.6177063 1.3114166 -2.9291382 2.9291306 -2.9291382l0 0c0.77685547 0 1.5218925 0.308609 2.0712128 0.8579254c0.5493164 0.5493164 0.8579216 1.2943573 0.8579216 2.0712128l0 0c0 1.6177216 -1.3114166 2.9291382 -2.9291344 2.9291382l0 0c-1.6177139 0 -2.9291306 -1.3114166 -2.9291306 -2.9291382z" fill-rule="evenodd"/><path fill="#6fa8dc" d="m43.370064 121.75447l0 0c0 -1.6177139 1.3114166 -2.9291306 2.9291306 -2.9291306l0 0c0.77685547 0 1.5218925 0.30860138 2.0712128 0.8579254c0.5493164 0.5493164 0.8579216 1.2943497 0.8579216 2.0712051l0 0c0 1.6177216 -1.3114166 2.9291382 -2.9291344 2.9291382l0 0c-1.6177139 0 -2.9291306 -1.3114166 -2.9291306 -2.9291382z" fill-rule="evenodd"/><path fill="#8e7cc3" d="m19.370062 145.75447l0 0c0 -1.6177063 1.3114185 -2.9291382 2.9291344 -2.9291382l0 0c0.77685356 0 1.5218906 0.308609 2.0712109 0.8579254c0.5493183 0.5493164 0.8579235 1.2943573 0.8579235 2.0712128l0 0c0 1.6177216 -1.3114185 2.9291382 -2.9291344 2.9291382l0 0c-1.6177158 0 -2.9291344 -1.3114166 -2.9291344 -2.9291382z" fill-rule="evenodd"/><path fill="#c27ba0" d="m43.370064 33.754475l0 0c0 -1.6177177 1.3114166 -2.9291363 2.9291306 -2.9291363l0 0c0.77685547 0 1.5218925 0.3086052 2.0712128 0.8579235c0.5493164 0.5493202 0.8579216 1.2943573 0.8579216 2.0712128l0 0c0 1.6177139 -1.3114166 2.9291306 -2.9291344 2.9291306l0 0c-1.6177139 0 -2.9291306 -1.3114166 -2.9291306 -2.9291306z" fill-rule="evenodd"/><path fill="#c27ba0" d="m35.370064 153.75447l0 0c0 -1.6177063 1.3114166 -2.9291382 2.9291306 -2.9291382l0 0c0.77685547 0 1.5218925 0.308609 2.0712128 0.8579254c0.5493164 0.5493164 0.8579216 1.2943573 0.8579216 2.0712128l0 0c0 1.6177216 -1.3114166 2.9291382 -2.9291344 2.9291382l0 0c-1.6177139 0 -2.9291306 -1.3114166 -2.9291306 -2.9291382z" fill-rule="evenodd"/><path fill="#000000" fill-opacity="0.0" d="m220.02887 31.608923l-157.48032 0" fill-rule="evenodd"/><path stroke="#000000" stroke-width="1.0" stroke-linejoin="round" stroke-linecap="butt" d="m214.02887 31.608923l-151.48032 0" fill-rule="evenodd"/><path fill="#000000" stroke="#000000" stroke-width="1.0" stroke-linecap="butt" d="m214.02887 33.260654l4.538101 -1.6517315l-4.538101 -1.6517315z" fill-rule="evenodd"/><path fill="#000000" fill-opacity="0.0" d="m220.02887 87.608925l-157.48032 0" fill-rule="evenodd"/><path stroke="#000000" stroke-width="1.0" stroke-linejoin="round" stroke-linecap="butt" d="m214.02887 87.608925l-151.48032 0" fill-rule="evenodd"/><path fill="#000000" stroke="#000000" stroke-width="1.0" stroke-linecap="butt" d="m214.02887 89.26066l4.538101 -1.6517334l-4.538101 -1.6517334z" fill-rule="evenodd"/><path fill="#000000" fill-opacity="0.0" d="m369.13123 31.608923l70.74017 54.897636" fill-rule="evenodd"/><path stroke="#000000" stroke-width="1.0" stroke-linejoin="round" stroke-linecap="butt" d="m369.13123 31.608923l66.00009 51.21911" fill-rule="evenodd"/><path fill="#000000" stroke="#000000" stroke-width="1.0" stroke-linecap="butt" d="m434.11865 84.13293l4.597809 1.4773636l-2.5725098 -4.0871506z" fill-rule="evenodd"/><path fill="#000000" fill-opacity="0.0" d="m369.13123 87.608925l70.74017 -1.1023636" fill-rule="evenodd"/><path stroke="#000000" stroke-width="1.0" stroke-linejoin="round" stroke-linecap="butt" d="m369.13123 87.608925l64.740906 -1.0088806" fill-rule="evenodd"/><path fill="#000000" stroke="#000000" stroke-width="1.0" stroke-linecap="butt" d="m433.89786 88.25158l4.5118103 -1.7222366l-4.5632935 -1.5808258z" fill-rule="evenodd"/><path fill="#000000" fill-opacity="0.0" d="m723.33594 86.632545l56.094482 -0.9133835" fill-rule="evenodd"/><path stroke="#000000" stroke-width="1.0" stroke-linejoin="round" stroke-linecap="butt" d="m723.33594 86.632545l50.095337 -0.8156967" fill-rule="evenodd"/><path fill="#000000" stroke="#000000" stroke-width="1.0" stroke-linecap="butt" d="m773.4581 87.46836l4.51062 -1.7254028l-4.564392 -1.5776291z" fill-rule="evenodd"/><path fill="#ffd966" d="m778.67456 67.93979l0 0c0 -4.4183617 3.581787 -8.000156 8.000122 -8.000156l101.511536 0c2.1217651 0 4.156616 0.8428726 5.6569214 2.343193c1.5003662 1.5003204 2.3432007 3.5351906 2.3432007 5.6569633l0 31.999687c0 4.4183655 -3.581787 8.00016 -8.000122 8.00016l-101.511536 0l0 0c-4.418335 0 -8.000122 -3.5817947 -8.000122 -8.00016z" fill-rule="evenodd"/><path stroke="#000000" stroke-width="1.0" stroke-linejoin="round" stroke-linecap="butt" d="m778.67456 67.93979l0 0c0 -4.4183617 3.581787 -8.000156 8.000122 -8.000156l101.511536 0c2.1217651 0 4.156616 0.8428726 5.6569214 2.343193c1.5003662 1.5003204 2.3432007 3.5351906 2.3432007 5.6569633l0 31.999687c0 4.4183655 -3.581787 8.00016 -8.000122 8.00016l-101.511536 0l0 0c-4.418335 0 -8.000122 -3.5817947 -8.000122 -8.00016z" fill-rule="evenodd"/><path fill="#000000" d="m797.3879 90.859634l0 -13.359375l5.046875 0q1.328125 0 2.03125 0.125q0.96875 0.171875 1.640625 0.640625q0.671875 0.453125 1.078125 1.28125q0.40625 0.828125 0.40625 1.828125q0 1.703125 -1.09375 2.890625q-1.078125 1.171875 -3.921875 1.171875l-3.421875 0l0 5.421875l-1.765625 0zm1.765625 -7.0l3.453125 0q1.71875 0 2.4375 -0.640625q0.71875 -0.640625 0.71875 -1.796875q0 -0.84375 -0.421875 -1.4375q-0.421875 -0.59375 -1.125 -0.78125q-0.4375 -0.125 -1.640625 -0.125l-3.421875 0l0 4.78125zm10.4591675 7.0l0 -9.671875l1.46875 0l0 1.46875q0.5625 -1.03125 1.03125 -1.359375q0.484375 -0.328125 1.0625 -0.328125q0.828125 0 1.6875 0.53125l-0.5625 1.515625q-0.609375 -0.359375 -1.203125 -0.359375q-0.546875 0 -0.96875 0.328125q-0.421875 0.328125 -0.609375 0.890625q-0.28125 0.875 -0.28125 1.921875l0 5.0625l-1.625 0zm12.8533325 -3.109375l1.6875 0.203125q-0.40625 1.484375 -1.484375 2.3125q-1.078125 0.8125 -2.765625 0.8125q-2.125 0 -3.375 -1.296875q-1.234375 -1.3125 -1.234375 -3.671875q0 -2.453125 1.25 -3.796875q1.265625 -1.34375 3.265625 -1.34375q1.9375 0 3.15625 1.328125q1.234375 1.3125 1.234375 3.703125q0 0.15625 0 0.4375l-7.21875 0q0.09375 1.59375 0.90625 2.453125q0.8125 0.84375 2.015625 0.84375q0.90625 0 1.546875 -0.46875q0.640625 -0.484375 1.015625 -1.515625zm-5.390625 -2.65625l5.40625 0q-0.109375 -1.21875 -0.625 -1.828125q-0.78125 -0.953125 -2.03125 -0.953125q-1.125 0 -1.90625 0.765625q-0.765625 0.75 -0.84375 2.015625zm15.406921 5.765625l0 -1.21875q-0.90625 1.4375 -2.703125 1.4375q-1.15625 0 -2.125 -0.640625q-0.96875 -0.640625 -1.5 -1.78125q-0.53125 -1.140625 -0.53125 -2.625q0 -1.453125 0.484375 -2.625q0.484375 -1.1875 1.4375 -1.8125q0.96875 -0.625 2.171875 -0.625q0.875 0 1.546875 0.375q0.6875 0.359375 1.109375 0.953125l0 -4.796875l1.640625 0l0 13.359375l-1.53125 0zm-5.171875 -4.828125q0 1.859375 0.78125 2.78125q0.78125 0.921875 1.84375 0.921875q1.078125 0 1.828125 -0.875q0.75 -0.890625 0.75 -2.6875q0 -1.984375 -0.765625 -2.90625q-0.765625 -0.9375 -1.890625 -0.9375q-1.078125 0 -1.8125 0.890625q-0.734375 0.890625 -0.734375 2.8125zm9.281982 -6.640625l0 -1.890625l1.640625 0l0 1.890625l-1.640625 0zm0 11.46875l0 -9.671875l1.640625 0l0 9.671875l-1.640625 0zm10.457336 -3.546875l1.609375 0.21875q-0.265625 1.65625 -1.359375 2.609375q-1.078125 0.9375 -2.671875 0.9375q-1.984375 0 -3.1875 -1.296875q-1.203125 -1.296875 -1.203125 -3.71875q0 -1.578125 0.515625 -2.75q0.515625 -1.171875 1.578125 -1.75q1.0625 -0.59375 2.3125 -0.59375q1.578125 0 2.578125 0.796875q1.0 0.796875 1.28125 2.265625l-1.59375 0.234375q-0.234375 -0.96875 -0.8125 -1.453125q-0.578125 -0.5 -1.390625 -0.5q-1.234375 0 -2.015625 0.890625q-0.78125 0.890625 -0.78125 2.8125q0 1.953125 0.75 2.84375q0.75 0.875 1.953125 0.875q0.96875 0 1.609375 -0.59375q0.65625 -0.59375 0.828125 -1.828125zm6.59375 2.078125l0.234375 1.453125q-0.6875 0.140625 -1.234375 0.140625q-0.890625 0 -1.390625 -0.28125q-0.484375 -0.28125 -0.6875 -0.734375q-0.203125 -0.46875 -0.203125 -1.9375l0 -5.578125l-1.203125 0l0 -1.265625l1.203125 0l0 -2.390625l1.625 -0.984375l0 3.375l1.65625 0l0 1.265625l-1.65625 0l0 5.671875q0 0.6875 0.078125 0.890625q0.09375 0.203125 0.28125 0.328125q0.203125 0.109375 0.578125 0.109375q0.265625 0 0.71875 -0.0625zm1.6051636 -10.0l0 -1.890625l1.640625 0l0 1.890625l-1.640625 0zm0 11.46875l0 -9.671875l1.640625 0l0 9.671875l-1.640625 0zm3.5354614 -4.84375q0 -2.6875 1.484375 -3.96875q1.25 -1.078125 3.046875 -1.078125q2.0 0 3.265625 1.3125q1.265625 1.296875 1.265625 3.609375q0 1.859375 -0.5625 2.9375q-0.5625 1.0625 -1.640625 1.65625q-1.0625 0.59375 -2.328125 0.59375q-2.03125 0 -3.28125 -1.296875q-1.25 -1.3125 -1.25 -3.765625zm1.6875 0q0 1.859375 0.796875 2.796875q0.8125 0.921875 2.046875 0.921875q1.21875 0 2.03125 -0.921875q0.8125 -0.9375 0.8125 -2.84375q0 -1.796875 -0.8125 -2.71875q-0.8125 -0.921875 -2.03125 -0.921875q-1.234375 0 -2.046875 0.921875q-0.796875 0.90625 -0.796875 2.765625zm9.297607 4.84375l0 -9.671875l1.46875 0l0 1.375q1.0625 -1.59375 3.078125 -1.59375q0.875 0 1.609375 0.3125q0.734375 0.3125 1.09375 0.828125q0.375 0.5 0.515625 1.203125q0.09375 0.453125 0.09375 1.59375l0 5.953125l-1.640625 0l0 -5.890625q0 -1.0 -0.203125 -1.484375q-0.1875 -0.5 -0.671875 -0.796875q-0.484375 -0.296875 -1.140625 -0.296875q-1.046875 0 -1.8125 0.671875q-0.75 0.65625 -0.75 2.515625l0 5.28125l-1.640625 0z" fill-rule="nonzero"/><path fill="#fff2cc" d="m439.87402 67.74753l44.850372 0l0 37.543304l-44.850372 0z" fill-rule="evenodd"/><path stroke="#000000" stroke-width="1.0" stroke-linejoin="round" stroke-linecap="butt" d="m439.87402 67.74753l44.850372 0l0 37.543304l-44.850372 0z" fill-rule="evenodd"/><path fill="#93c47d" d="m459.37006 81.75447l0 0c0 -1.6177139 1.3114319 -2.9291306 2.9291382 -2.9291306l0 0c0.77685547 0 1.5218811 0.30860138 2.0711975 0.8579254c0.5493469 0.5493164 0.8579407 1.2943497 0.8579407 2.0712051l0 0c0 1.6177216 -1.3114319 2.9291382 -2.9291382 2.9291382l0 0c-1.6177063 0 -2.9291382 -1.3114166 -2.9291382 -2.9291382z" fill-rule="evenodd"/><path fill="#6d9eeb" d="m467.37006 81.75447l0 0c0 -1.6177139 1.3114319 -2.9291306 2.9291382 -2.9291306l0 0c0.77685547 0 1.5218811 0.30860138 2.0711975 0.8579254c0.5493469 0.5493164 0.8579407 1.2943497 0.8579407 2.0712051l0 0c0 1.6177216 -1.3114319 2.9291382 -2.9291382 2.9291382l0 0c-1.6177063 0 -2.9291382 -1.3114166 -2.9291382 -2.9291382z" fill-rule="evenodd"/><path fill="#8e7cc3" d="m443.37006 89.75447l0 0c0 -1.6177139 1.3114319 -2.9291306 2.9291382 -2.9291306l0 0c0.77685547 0 1.5218811 0.30860138 2.0711975 0.8579254c0.5493469 0.5493164 0.8579407 1.2943497 0.8579407 2.0712051l0 0c0 1.6177216 -1.3114319 2.9291382 -2.9291382 2.9291382l0 0c-1.6177063 0 -2.9291382 -1.3114166 -2.9291382 -2.9291382z" fill-rule="evenodd"/><path fill="#c27ba0" d="m459.37006 97.75447l0 0c0 -1.6177139 1.3114319 -2.9291306 2.9291382 -2.9291306l0 0c0.77685547 0 1.5218811 0.30860138 2.0711975 0.8579254c0.5493469 0.5493164 0.8579407 1.2943497 0.8579407 2.0712051l0 0c0 1.6177216 -1.3114319 2.9291382 -2.9291382 2.9291382l0 0c-1.6177063 0 -2.9291382 -1.3114166 -2.9291382 -2.9291382z" fill-rule="evenodd"/><path fill="#000000" fill-opacity="0.0" d="m484.7244 86.51918l85.95279 0.12598419" fill-rule="evenodd"/><path stroke="#000000" stroke-width="1.0" stroke-linejoin="round" stroke-linecap="butt" d="m484.7244 86.51918l79.95279 0.1171875" fill-rule="evenodd"/><path fill="#000000" stroke="#000000" stroke-width="1.0" stroke-linecap="butt" d="m564.67474 88.2881l4.5405273 -1.6450806l-4.5357056 -1.6583786z" fill-rule="evenodd"/><path fill="#000000" fill-opacity="0.0" d="m58.503937 147.58798l403.81104 0l0 -42.299217" fill-rule="evenodd"/><path stroke="#000000" stroke-width="1.0" stroke-linejoin="round" stroke-linecap="butt" d="m58.503937 147.58798l403.81104 0l0 -36.299217" fill-rule="evenodd"/><path fill="#000000" stroke="#000000" stroke-width="1.0" stroke-linecap="butt" d="m463.9667 111.288765l-1.6517334 -4.538101l-1.6517334 4.538101z" fill-rule="evenodd"/></g></svg>